<?xml version="1.0" encoding="UTF-8"?>
<svg id="Capa_1" data-name="Capa 1" xmlns="http://www.w3.org/2000/svg" viewBox="0 0 1080 1080">
  <defs>
    <style>
      .cls-1 {
        letter-spacing: 0em;
      }

      .cls-2 {
        letter-spacing: 0em;
      }

      .cls-3 {
        letter-spacing: 0em;
      }

      .cls-4 {
        fill: #ea1c26;
      }

      .cls-4, .cls-5, .cls-6, .cls-7, .cls-8, .cls-9, .cls-10, .cls-11, .cls-12, .cls-13, .cls-14 {
        stroke-width: 0px;
      }

      .cls-5 {
        fill: #becc30;
      }

      .cls-6 {
        fill: #6b3713;
      }

      .cls-15 {
        letter-spacing: -.02em;
      }

      .cls-16 {
        letter-spacing: -.04em;
      }

      .cls-17 {
        letter-spacing: 0em;
      }

      .cls-7 {
        fill: #f80f18;
      }

      .cls-8 {
        fill: #6eaf1e;
      }

      .cls-18 {
        letter-spacing: -.02em;
      }

      .cls-19 {
        letter-spacing: 0em;
      }

      .cls-20 {
        letter-spacing: -.04em;
      }

      .cls-21 {
        letter-spacing: -.02em;
      }

      .cls-22 {
        letter-spacing: -.02em;
      }

      .cls-23 {
        letter-spacing: -.01em;
      }

      .cls-24 {
        letter-spacing: 0em;
      }

      .cls-9 {
        fill: #b52568;
      }

      .cls-10 {
        fill: #18a2c7;
      }

      .cls-25 {
        fill: #606060;
        font-family: Cinzel-Bold, Cinzel;
        font-size: 47.63px;
        font-weight: 700;
      }

      .cls-26 {
        letter-spacing: -.02em;
      }

      .cls-27 {
        letter-spacing: 0em;
      }

      .cls-28 {
        letter-spacing: 0em;
      }

      .cls-29 {
        letter-spacing: 0em;
      }

      .cls-30 {
        letter-spacing: 0em;
      }

      .cls-31 {
        letter-spacing: -.03em;
      }

      .cls-32 {
        fill: #360;
        font-family: Cinzel-Regular, Cinzel;
        font-size: 142.88px;
      }

      .cls-11 {
        fill: #b72b6c;
      }

      .cls-12 {
        fill: #17a1c8;
      }

      .cls-33 {
        letter-spacing: -.02em;
      }

      .cls-13 {
        fill: #ea1e28;
      }

      .cls-34 {
        letter-spacing: -.02em;
      }

      .cls-14 {
        fill: #cbda35;
      }

      .cls-35 {
        letter-spacing: 0em;
      }

      .cls-36 {
        letter-spacing: 0em;
      }
    </style>
  </defs>
  <text class="cls-32" transform="translate(251.31 838.76)"><tspan x="0" y="0">C</tspan><tspan class="cls-26" x="108.59" y="0">O</tspan><tspan class="cls-24" x="225.47" y="0">N</tspan><tspan class="cls-17" x="344.2" y="0">IAP</tspan></text>
  <text class="cls-25" transform="translate(134.19 921.17)"><tspan x="0" y="0">III C</tspan><tspan class="cls-21" x="104.21" y="0">O</tspan><tspan class="cls-15" x="145.07" y="0">N</tspan><tspan class="cls-34" x="185.46" y="0">G</tspan><tspan class="cls-23" x="224.09" y="0">R</tspan><tspan class="cls-2" x="259.09" y="0">ESO INT</tspan><tspan class="cls-1" x="461.7" y="0">E</tspan><tspan class="cls-23" x="491.56" y="0">R</tspan><tspan class="cls-27" x="526.57" y="0">N</tspan><tspan class="cls-31" x="567.48" y="0">A</tspan><tspan class="cls-3" x="600.05" y="0">C</tspan><tspan class="cls-18" x="637.06" y="0">IO</tspan><tspan class="cls-28" x="695.36" y="0">N</tspan><tspan class="cls-29" x="736.27" y="0">AL </tspan><tspan x="51.67" y="57.15">S</tspan><tspan class="cls-22" x="79.2" y="57.15">O</tspan><tspan class="cls-19" x="120.07" y="57.15">B</tspan><tspan class="cls-23" x="151.98" y="57.15">R</tspan><tspan x="186.98" y="57.15">E AMA</tspan><tspan class="cls-30" x="342.53" y="57.15">Z</tspan><tspan class="cls-21" x="373.73" y="57.15">O</tspan><tspan class="cls-33" x="414.59" y="57.15">N</tspan><tspan class="cls-28" x="455.03" y="57.15">I</tspan><tspan class="cls-29" x="473.13" y="57.15">A </tspan><tspan class="cls-35" x="519.14" y="57.15">P</tspan><tspan class="cls-36" x="550.24" y="57.15">E</tspan><tspan class="cls-16" x="580.1" y="57.15">R</tspan><tspan class="cls-20" x="613.68" y="57.15">U</tspan><tspan x="650.83" y="57.15">A</tspan><tspan class="cls-27" x="684.93" y="57.15">N</tspan><tspan x="725.84" y="57.15">A</tspan></text>
  <g>
    <path class="cls-11" d="m501.65,90.69c-.21-.14-.19-.45.04-.55.57-.26,1.16-.53,1.59-.95.66-.66,1.31-1.29,2.07-1.84.78-.56,1.62-1.05,2.5-1.45,1.75-.81,3.66-1.29,5.58-1.43,1.6-.11,3.2.05,4.77.38,2.39.5,4.87.92,7.15,1.8.62.24,1.24.49,1.77.88.85.64,1.38,1.59,1.9,2.49.59,1,1.25,1.96,1.89,2.93.31.46.71.65,1.18.9.05.03.09.09.09.15v.29c0,.11-.12.19-.22.16-.53-.19-.98-.11-1.35.26-.67.59-1.37,1.15-2.06,1.7s-1.37,1.08-2.2,1.36c-.8.28-1.68.31-2.52.43-.9.14-1.79.33-2.71.44-3.4.39-6.91.12-10.14-1.1-1.82-.69-3.76-1.58-5.19-2.93-1.38-1.3-2.57-2.88-4.16-3.93Z"/>
    <g>
      <path class="cls-6" d="m565.43,713.59h22c.35-9.68.88-19.36.72-29.03-.98-58.08-6.51-115.59-52.36-157.82-32.64-30.07-52.6-64.48-55.88-108.93-13.22,42.97-5.48,83.36,18.98,118.77,37.2,53.86,62.71,111.18,66.54,177.02Z"/>
      <path class="cls-6" d="m516.71,713.59h38.95c-.03-3.21-.46-6.85-1.27-10.95-6.66-33.4-12.96-66.68-28.42-98.39,5.32,36.82,1.13,72.79-9.25,109.34Z"/>
      <path class="cls-6" d="m507.39,391.33c0,.2-2.44,1.44-2.73,1.64-2.03,1.38-3.91,2.96-5.76,4.57s-3.57,3.03-4.96,4.92c-2.57,3.5-2.49,7.47-2.64,11.62-.14,4.04-.04,8.09.32,12.12.72,7.97,2.45,15.85,5.15,23.38s6.53,15.03,11.1,21.82c1.71,2.53,3.52,4.99,5.44,7.37-6.14-26.15-6.59-59.41-5.93-87.43Z"/>
    </g>
    <g id="aguila.psd">
      <path class="cls-4" d="m368.56,215.4l-9.32,6c.28-3.39.49-6.01.79-9.67-1.41.73-2.68,1.46-4.01,2.05-5.13,2.28-2.31-3.03-4.4-5.24-.7-.74-1.86-.85-2.67-1.47-1.07-.82-1.29-2.31-1.77-3.57-.66-1.74-2.08-3.38-3.74-4.24-1.36-.7-3.62-.54-4.38-2.09-.3-.61-.24-1.35-.5-1.99-.39-.98-1.41-1.52-2.23-2.17s-1.54-1.78-1.04-2.71c-.87-.44-1.74-.88-2.61-1.31-.19-.1-.4-.2-.51-.39-.13-.23-.09-.52-.04-.78.59-3.37.8-7.24-1.47-9.8-.42-.48-.93-.92-1.09-1.54-.23-.92.44-1.8,1.05-2.52-.84-.23-1.68-.43-2.53-.61-1.04-.21-1.33-1.58-.47-2.2.75-.54,1.53-1.04,2.34-1.51.96-.56,2.81-1.32,2.78-2.66,0-.25-.1-.48-.2-.71-.27-.65-.55-1.29-.82-1.94-.16-.37-.33-.77-.66-1.01-.65-.49-2.55.2-3.29.32.35-1.3,1.91-1.92,3.26-1.79s2.57.79,3.86,1.19c2.71.84,4.18-.59,6.05-2.3-3.34-.69-6.95-1.74-10.63-2.11-4.44-.45-8.94-.16-13.39-.54-2.08-.17-4.1-1.15-6.36-1.83l.9-3.66c-.49-.28-1.13-.48-1.55-.9-.81-.8-1.51-1.72-2.25-2.6.82-.39,1.6-.99,2.46-1.12,1.7-.26,3.44-.26,5.82-.42-3.45-1.72-7.54-.76-8.98-4.24,2.23-6.95,6-11.2,14.8-7.34-2.45-3.29-6.71-2.77-5.96-7.32l6.42.83c-.02-3.65.04-3.67,5.13-2.03,2.75-2.47,4.61-2.44,7.32.04,5.12,4.67,10.27,9.32,15.47,14.02l2.33-4.68q-3.17-3.7-.83-5.34c-3.34-2.38-.12-4.69.63-6.41,1.32-3.04,3.49-6.36,6.23-7.98,2.47-1.46,4.21-3.58,6.94-4.64,1.67-.65,3.41-1.11,5.02-1.89,2.26-1.1,5.55-4.78,8.25-3.42,2.81,1.41,5.48,3.09,8.52,4.85-.55-.32-1.11-2.98-1.31-3.62-.41-1.31-.54-2.55-.31-3.92-.04.24,4.01,1.06,4.38,1.09,2.32.2,5.19-.08,6.83-1.92.6-.68,1.2-1.6,2.11-1.55.5.03.93.37,1.3.72.99.93,1.84,2,2.69,3.07.53-1.55,1.28-3.41,2.43-4.62.29-.31,3.72-2.07,3.74-1.51.14,3.63.28,7.13.45,11.33,3.45-4.25,3.11-10.93,10.24-11.39-.94,5.75-4.27,10.94-2.67,17.35,4.43-5.11,5.97-13.11,15.12-12.11-3.91,5.4-7.76,10.44-9.24,17.3,4.91-4.93,7.04-12.45,16.19-12.81-3.71,5.52-7.01,10.42-10.63,15.81,5.67-3.68,9.08-10.56,17.86-8.51-4.75,4.53-8.92,8.51-13.09,12.48,5.09-2.19,9.07-7.2,16.38-4.78-4.62,3.62-8.87,6.95-13.11,10.28,4.14-1.05,7.82-3.94,13.4-1.91-5.48,3.63-10.38,6.88-14.85,9.85l9.32-1.86.51.87c-3.77,4.47-8.81,6.67-14.42,7.91-3.52.78-6.98,1.89-10.52,2.46-2.49.41-5.09.11-7.63.24-1.35.07-3.03-.06-3.97.66-4.37,3.39-8.6,6.96-12.7,10.67-.7.63-2.52,2.49-.32,3.26,1.03.36,2.74-1.18,3.45-1.53,2.37,2.63,4.92,5.21,7.17,8.03,1.6,2.01,2.94,4.26,4.13,6.55.39.75-.05,1.93-.15,3.46-7.88-4.88-15.66-4.5-23.78-2.3-2.1,9.9-3.45,20.05-.45,30.33,1.14,3.9,1.9,7.9,3.03,11.8,1.94,6.69,6.66,10.81,13.05,13.95-.95.2-2.07.83-2.81.53-3.9-1.57-7.89-2.96-11.79-4.47-3.76-1.46-6.59-3.3-8.8-6.47-.19-.27-.83-.22-1.25-.34-6.32-1.72-8.35-4.15-8.64-10.94Z"/>
    </g>
    <g id="bufeo_colorado.psd" data-name="bufeo colorado.psd">
      <path class="cls-14" d="m415.46,358.9c-.96,1.29-.92,1.26.17,2.71.71.94,1.39,1.91,2.05,2.89.56.83,1.29,1.64,1.37,2.69,0,.03,0,.07-.01.1-.02.03-.06.05-.09.06-.57.21-1.24.24-1.79-.04-.22-.11-2.59-1.44-2.6-1.43-.69.99-.49,1.98.04,2.99.61,1.16,1.05,2.43,1.04,3.76,0,.1-2.52-.54-2.74-.62-.9-.33-1.76-.79-2.61-1.22-1.74-.88-3.42-1.86-5.04-2.95-1.12-.75-2.21-1.55-3.26-2.39-3.16-2.52-5.6-5.68-7.36-9.32-1.02-2.11-1.85-4.31-2.9-6.41-.35-.7-1.11-1.18-1.68-1.77-2.56-2.69-5.14-5.35-7.66-8.07-2.96-3.19-6.14-6.11-9.69-8.65-2.03-1.45-3.8-3.18-5.21-5.28-2.04-3.01-4.75-5.25-7.94-7-2.57-1.41-5.04-3.02-7.55-4.55-1.14-.7-2.36-1.31-3.34-2.2-.51-.46-.7-1.4-.79-2.15-.05-.47.32-1.02.58-1.49.26-.47,1.95-.57,2.67-.24,3.52,1.62,7.05,3.23,10.57,4.84.8.37,1.58.82,2.41,1.09.74.24,2.14.27,2.81-.06.42-.39.81-.77,1.21-1.13,1.54-1.37,3.37-2,5.34-1.4,1.98.61,3.89,1.5,5.78,2.36,3.19,1.45,6.33,3.04,9.54,4.46,1.78.79,3.64,1.38,5.48,2,2.97,1,5.92,2.06,8.97,2.78s6.27,1.42,9.42,2.04,6.55,1.22,9.84,1.75c1.06.17,2.12.34,3.18.47,1.68.2,3.36.27,5.04.57,1.46.26,2.9.6,4.32,1.01,1.17.34,2.27.62,3.05,1.63,1.14,1.43,2.04,3.05,3.25,4.41,1.77,1.99,3.64,3.91,5.61,5.71,3.02,2.75,6.22,5.32,9.24,8.08,1.39,1.27,2.54,2.8,3.78,4.23,1.36,1.55,2.76,3.08,4.05,4.69.74.93,1.34,1.98,1.94,3.02.73,1.25,1.32,2.58,2.12,3.77.51.77,1.25,1.4,1.96,2.02,2.2,1.93,4.65,3.64,6.6,5.79,2.01,2.22,3.58,4.84,5.29,7.32.29.42.4,1.05.39,1.58,0,.65-.29,1.18-1.14.76-1.06-.52-2.12-.7-3.3-.31-.51.17-1.13.01-1.83,0,1,2.79-.4,4.99-1.49,7.21-.78,1.58-.97,3.17-.87,4.87.04.7.39,1.57-.42,2.06-.25.15-.89.09-1.05-.12-.93-1.17-1.89-2.35-2.61-3.65-.75-1.34-1.17-2.86-1.84-4.25-1.6-3.31-1.95-6.92-2.57-10.46-.1-.6-.38-.85-.92-1.17-1.6-.93-3.11-2.02-4.59-3.14-1.7-1.28-3.24-2.79-5.01-3.96-3.84-2.55-7.82-4.88-12.05-6.76-2.39-1.06-4.96-1.38-7.49-1.66-5.1-.58-10.21-.96-15.32-1.43-1.45-.13-2.91-.29-4.36-.44Z"/>
    </g>
    <g id="caimancrocodilus.psd">
      <path class="cls-10" d="m603.14,504.08c-2.52.45-5.04.88-7.54,1.37-4.44.87-8.77,1.98-13.27,2.54s-9.4.89-14.11.98c-5.47.1-10.99-.08-16.33-1.29-3.74-.85-7.39-2.22-10.65-4.26-2.91-1.83-4.77-4.17-6.25-7.28s-2.32-6.22-3.19-9.41c-.28-1.04-.57-2.09-.66-3.16s.09-2.02-.53-2.96c-.07-.1-.06-.38.03-.45.83-.72.74-1.8,1.12-2.68.39-.9.76-1.86,1.24-2.67.6-1.03,1.29-1.99,1.69-3.14.19-.56.57-1.06.9-1.57.28-.42.6-.82.92-1.21.39-.48.75-.98,1.21-1.39.76-.68,1.2-1.51,1.46-2.48.03-.11.16-.27.25-.28,1.23-.12,1.32-1.11,1.68-1.99.23-.56.74-1.15,1.28-1.39.76-.35,1.06-.94,1.42-1.58.41-.73.91-1.29,1.87-1.29.26,0,.57-.35.77-.61.57-.74,1.37-1.04,2.18-1.45.92-.47,2.01-.68,2.74-1.68.61-.83,1.49-1.73,2.84-1.47.23.04.55-.2.78-.38.86-.65,1.63-1.48,2.88-1.29.18.03.41-.2.59-.35.66-.58,1.28-1.23,1.98-1.75.59-.44,1.27-.76,1.93-1.08,1.64-.81,3.4-1.41,4.79-2.68.06-.06.18-.07.28-.08,1.43-.15,2.68-.82,4.01-1.28,1.18-.41,2.1-1.12,3.16-1.64.79-.39,1.74-.44,2.89-.7.68-1.49,2.35-1.5,4.02-1.5.85-1.63,1.69-1.95,3.62-1.69.48.06,1.09-.39,1.54-.73,1.27-.95,2.25-1.08,3.66-.28.27-.28.56-.6.86-.9,1.06-1.08,2.65-1.15,3.93.09,2.05-1.82,3.8-1.58,5.09-.7,1.57-1.71,2.42-1.85,4.22-.68,1.45-1.2,2.94-1.29,4.46-.14,1.42-1.37,2.48-1.45,3.94-.3.45.36.83.44,1.23-.08.17-.22.47-.46.71-.46,1.31.02,2.63.11,3.94.19.21.01.5.18.62.09.89-.66,1.77-.35,2.7,0,.18-.92.52-1.65,1.45-2.04.4-.17.61-.75.99-1.04.28-.22.71-.23,1.03-.41.66-.39,1.32-.78,1.91-1.27.51-.43.7-1.26,1.63-1.12.13.02.29-.32.46-.47.47-.42.96-.58,1.63-.7.88-.16,1.93-.12,2.75-1.05,1.4-1.58,3.16-2.82,5.18-3.6.28-.11.58-.38.72-.65.64-1.28,1.42-2.42,2.87-2.81.69-.18,1.46-.18,2.17-.1,1.62.19,3.22.66,4.83.67,1.26.01,2.53-.45,3.78-.77,1.25-.32,2.49-.72,3.73-1.07,2.3-.65,4.4-1.64,6.01-3.49.74-.84,1.75-.68,2.71-.53.91.13,1.43.78,1.67,1.55.32,1.03.31,2.11-.3,3.08-.99,1.58-1.93,3.19-3.02,4.69-1.48,2.03-2.92,4.13-4.69,5.9-2.49,2.49-4.88,5.16-8.12,6.77-.77.38-1.47.75-1.47,1.77,0,.22-.31.42-.45.65-.28.48-.54.96-.8,1.45-.09.17-.11.4-.24.5-1.24.97-1.98,2.47-3.56,3.12-.61.25-1.09,1.03-1.44,1.67-1.33,2.42-3,4.56-5.01,6.44-.18.17-.25.46-.41.65-.59.7-1.17,1.32-2.06,1.75-1.96.96-3.57,2.39-4.83,4.22-1.37,1.98-3.6,2.9-5.53,4.19-1.01.67-2.02,1.35-3.05,2.05,1.28.52,2.42,1.02,3.59,1.43.66.24,1.37.39,2.07.48,1.44.18,2.75.69,3.98,1.45,1.4.87,1.94,2.29,2.6,3.63-.06.06-.13.13-.19.19-.54-.3-1.08-.59-1.59-.87.05.43.11.88.15,1.23-2.13-.48-4.2-.94-6.37-1.43.17,1.62,2.16,2.39,1.55,4.06-1.24-.81-2.4-1.65-3.63-2.36-1.64-.94-2.25-.84-3.69.32-.37.3-.75.59-1.12.89-.6-.77-.39-1.67.71-3.25-1.71-.26-3.43-.58-5.15-.77-1.83-.2-4.14-2.81-2.82-4.99.26-.43.41-.94.68-1.55-1.38.56-2.59,1.12-3.85,1.56-2.77.97-5.52,2.04-8.35,2.77-5.49,1.42-11.05,2.6-16.56,3.94-1.73.42-3.41,1.04-5.09,1.62-.48.17-.88.54-1.47.91,2.64-.14,5.05-.45,7.44-.33,1.61.08,3.21.69,4.76,1.22,1.08.37,2.22.8,2.77,1.97.15.33.24.68.36,1.03-.35-.06-.7-.11-1.04-.17-.12-.02-.25-.04-.5-.08.36.6.67,1.11.98,1.62-.07.07-.13.15-.2.22-.69-.23-1.37-.54-2.08-.68-.69-.14-1.42-.11-2.16-.16.39.85.7,1.52,1.03,2.22-.32.12-.4.17-.44.15-2.55-1.32-5.23-1.16-7.87-.53-2.07.49-4.06,1.3-6.11,1.86-.92.25-1.92.32-2.88.33-.93.01-1.92-1.06-2.08-2.21-.23-1.69-.39-3.39-.58-5.09-.03-.25-.09-.5-.13-.75-2.98.68-5.93,1.33-8.86,2.05-.64.16-1.2.61-1.82.87-1.26.54-2.6.94-3.8,1.6-1.38.77-2.9,1.32-3.83,2.82-.54.88-1.58,1.44-2.25,2.27-.49.6-.78,1.38-1.09,2.11-.33.79-.23,1.55-.01,2.41.32,1.26.44,2.56,1.21,3.66.24.33.49.67.8.93.82.69,1.79,1.25,2.51,2.03,1.33,1.45,3.14,2.23,4.61,3.47.2.16.59.28.81.2.85-.31,1.56,0,2.31.33.27.12.61.19.9.14,1.03-.21,1.96,0,2.88.47.34.18.9.34,1.18.18.96-.54,1.79-.02,2.67.11.55.09,1.14.19,1.68.11,1.02-.16,1.88.17,2.76.62.27.14.68.23.95.13,1.19-.44,2.32-.72,3.45.19.19.15.62.03.93,0,.82-.06,1.7-.38,2.43-.16.81.24,1.52.24,2.15-.13.71-.41,1.32-.18,1.92.06.92.36,1.77.61,2.74.08.34-.19.87-.02,1.32-.02.86,0,1.73-.04,2.59-.01,1.53.04,3.06.07,4.58.2.67.06,1.31.41,1.98.49.62.08,1.3-.18,1.89-.02,1.46.38,2.88.91,4.32,1.38-.01.21-.02.42-.03.63Z"/>
    </g>
    <g id="guacamayo.psd">
      <path class="cls-11" d="m412.2,494.02c10.01,8.37,19.65,16.02,31.19,20.83,2.6,1.08,5.14,2.45,7.86,3.04,3.28.71,5.01,3.03,7.65,5.64-10.7-.3-18.43-6.31-26.93-10.28-.2.72-.4,1.42-.6,2.12-1.01-.3-2.18-.36-2.99-.94-6.69-4.8-13.31-9.7-19.95-14.56-.42-.3-.86-.57-1.64-.43,3.48,3.08,6.95,6.17,10.58,9.38-2.36.93-3.6.49-13.9-6.91-4.29-3.08-8.01-6.96-11.94-10.42-.11,1.1-.22,2.26-.34,3.43-1.17-.67-2.51-1.16-3.48-2.04-6.27-5.72-11.87-11.96-15.82-19.62-1.28-2.48-3.68-4.39-6.07-6.18.58,1.45,1.16,2.91,1.73,4.36-.22.11-.44.22-.66.33-.41-.61-.82-1.22-1.23-1.83-.27-.02-.54-.03-.8-.05-.05,1.47-.1,2.94-.17,4.81.32.2.91.56,1.47.92-.55,1.42-2.09.75-3.28-1.3-.23-.4-.43-.82-.91-1.71-.93,1.18-1.67,2.1-2.55,3.21.45-4.45.89-8.72,1.36-13.34-4.91-2.1-9.56-4.98-13.03-9.43-.98-1.26-2.01-2.5-2.9-3.83-3.84-5.74-8.3-7.15-14.61-4.7-1.61.62-3.37.86-5.15,1.29.06.32.19.93.31,1.54l-.66.58c-1.67-1.61-4-2.93-4.85-4.89-1.19-2.76-1.38-5.99-1.76-9.04-.09-.74.6-1.82,1.25-2.35,3.49-2.86,7.43-4.56,12.05-4.79,4.41-.22,8.81-.71,13.17-1.37,1.06-.16,2.58-1.31,2.82-2.28,1.55-6.09,3.05-12.21,4.06-18.4.51-3.16-.12-6.49-.05-9.74.03-1.46.29-3.02.88-4.34,1.08-2.47,2.69-2.91,5.07-1.8,1.88-2.65,3.62-5.4,5.68-7.88,1.3-1.56,2.98-2.87,4.69-4,.86-.56,2.16-.45,3.25-.65-.01,1.17,0,2.34-.04,3.51,0,.24-.16.48-.12.38,1.22.35,3.01.37,3.36,1.09.54,1.1.08,2.68.05,4.24,2.95,1.13,3.31,2.06,1.67,5.63,1.2,1.19,2.43,2.4,3.64,3.6,1.71-.48,3.76-1.81,5.25-1.34,4.24,1.33,7.47-.92,11.03-2.15,3.72-1.28,7.4-2.67,11.18-3.73,4.43-1.25,8.94-2.19,13.41-3.29,3.09-.77,6.18-1.58,9.26-2.4.85-.23,1.69-.54,2.53-.81l.39.67c-2.76,2.11-5.51,4.22-8.27,6.33,0,.14,0,.29,0,.43,3.16-.64,6.31-1.28,9.47-1.92.18.25.36.5.54.75-1.38,1.27-2.76,2.54-4.46,4.11,1.61-.16,2.75-.27,3.89-.38.14.28.28.56.42.83-3.36,2.19-6.72,4.39-10.62,6.94,2.84-.53,5.18-.97,8.19-1.53-3.37,3.97-7.45,5.93-11.72,8.31,1.48.46,2.55.8,3.86,1.21-2.17,4.04-6.17,5.02-9.74,6.93,1.57.75,2.88,1.37,5.07,2.41-2.05,1.77-3.56,3.33-5.33,4.5-1.01.67-1.14,1.49-1.64,2.33-1.92,3.21-4.45,6.06-6.84,8.98-.25.31-1.09.09-1.63.22-1.47.35-2.28.96-1.64,2.77,1.67,4.74.28,9.1-1.99,13.3-.3.56-.75,1.31-.6,1.8.87,2.77-.9,4.78-2.2,6.65-.75,1.07-2.78,1.25-4.71,2.01-1.69,3.9-1.76,3.9-10.36.28.34.8.48,1.81,1.06,2.38,6.73,6.59,13.74,12.9,20.25,19.69,12.38,12.92,28.43,19.29,44.6,25.44,3.22,1.22,6.81,1.46,10.23,2.16.97.2,1.93.43,2.88,1.3-.55.1-1.13.36-1.65.28-3.36-.49-6.68-1.33-10.05-1.55-11.64-.77-21.39-6.38-31.2-11.87-.9-.5-1.76-1.08-2.69-1.52-.92-.43-1.91-.73-3.5-1.32Z"/>
    </g>
    <g id="manati.psd">
      <path class="cls-5" d="m537.87,182.03c.69,1.43,1.34,2.73,1.96,4.05.75,1.57,1.58,3.11,2.18,4.73.64,1.74.91,3.62.71,5.44-.14,1.3-1.05,2.48-2.46,2.82-1.31.31-2.67.46-4.01.52-1.04.04-1.89-.54-2.57-1.34-.38-.46-1.91-.44-2.44-.26-2.06.69-2.08,2.74-2.97,4.21-.54.88-.95,1.84-1.53,2.7-.45.66-1.04,1.22-1.6,1.8-.92.96-2.73,1.05-3.92.42-.58-.31-1.37-.21-2.04-.36-1.03-.23-2.07-.45-3.06-.79-.63-.21-.73-1.67-.2-2.53.71-1.15,1.5-2.26,2.19-3.42.49-.81.95-1.65,1.28-2.54.15-.39-.06-.91-.1-1.38-.52.12-1.14.11-1.54.4-.88.62-1.61,1.48-2.49,2.1-1.49,1.04-3.01,2.06-4.61,2.93-1.74.94-3.56,1.76-5.39,2.5-2.51,1.02-5.1,1.86-7.61,2.91-2.39,1-4.81,2.02-7.04,3.33-1.61.94-2.92,2.37-4.38,3.56-.91.74-1.81,1.51-2.78,2.17-2.58,1.76-5.12,3.6-8.09,4.68-1.23.45-2.51.78-3.78,1.12-2.67.71-4.81,2.13-6.31,4.49-1.62,2.55-3.15,5.16-4.94,7.57-2.16,2.92-4.42,5.8-6.92,8.43-1.45,1.52-3.33,2.72-5.56,3.09-1.39.23-2.34-.69-2.33-2.45,0-1.88.08-3.75.09-5.63,0-2.08-.63-4.02-1.62-5.82-.59-1.06-1.4-2.01-2.16-2.97-.65-.82-.54-1.88.37-2.88,1.67-1.83,3.89-2.82,6.02-3.96,2.66-1.43,5.55-2.06,8.41-2.83,2.2-.59,3.73-1.95,4.79-3.92,1.93-3.6,3.89-7.19,5.81-10.79,1.6-2.98,3.13-6,4.76-8.96.89-1.61,1.93-3.14,2.86-4.72.83-1.41,1.59-2.87,2.44-4.27.47-.79,1.04-1.53,1.57-2.28,1.04-1.45,2.02-2.94,3.14-4.32,1.66-2.03,3.35-4.06,5.18-5.92.69-.7,1.22-1.55,2.04-2.15.87-.64,1.61-1.45,2.4-2.19,1.91-1.79,4.1-3.13,6.44-4.28.87-.43,1.65-1.07,2.55-1.39,1.87-.67,3.69-1.48,5.54-2.17,4.52-1.69,9.21-2.26,13.93-2.77,1.55-.17,3.13.08,4.7.09,1.78.01,3.58.14,5.34-.07,2.99-.36,5.93-.41,8.86.33,1.79.45,3.76.45,5.25,1.69,1.84,1.53,3.65,3.12,5.29,4.86,1.83,1.93,3.59,3.92,5.69,5.56.7.54,1.53.95,2.11,1.59.79.87,1.05,1.95.76,3.18-.43,1.85-.66,3.74-1.1,5.59-.18.75-.7,1.41-1.03,2.12-.94,2.01-2.73,1.75-4.42,1.59-1.25-.12-2.48-.42-3.73-.6-.32-.04-.68.04-.99.15-2.44.88-3.24.06-4.52-1.43-.91-1.06-1.94-1.17-3.06-1.4-.37-.08-.79.04-1.39.09Z"/>
    </g>
    <g id="mano.psd">
      <path class="cls-9" d="m576.66,415.39c.22,1.07.43,2.15.66,3.22.11.52.06.92-.65.98-.14-.3-.29-.61-.42-.89-.26.19-.53.39-.81.59-.18-.29-.45-.57-.54-.89-.34-1.18-.68-2.36-.93-3.55-.38-1.81-1.56-2.99-2.97-4.02-.59-.43-1.18-.89-1.7-1.4-.56-.55-.42-1.08.17-1.59.32-.28.72-.78.66-1.11-.13-.79.59-1.53.02-2.35-.15-.22.2-.75.24-1.14.09-1.11.14-2.22.22-3.45-.61.29-1.2.61-1.81.85-1.23.47-2.48.88-3.71,1.35-.56.22-1.14.45-1.63.79-1.12.77-2.49,1.38-2.59,3.01-.03.45.17.92.27,1.38.02.1.12.18.14.27.53,2.67,2.77,3.37,4.87,4.16.98.37,1.71.95,2.32,1.77.36.48.82.89,1.23,1.33.27.29.52.6.78.9-.39.59-.67.69-1.39.41-1.32-.52-1.9-1.91-3.18-2.39-.91-.34-1.8-.73-2.7-1.1-.1.13-.19.26-.29.4.28.18.6.33.84.56.48.46.97.93,1.34,1.48.17.26.04.71.05,1.07-.31-.06-.71-.02-.93-.2-.9-.73-1.73-1.53-2.61-2.28-.36-.3-.81-.48-1.17-.78-.39-.32-.85-.64-1.07-1.07-.8-1.54-1.52-3.12-2.24-4.7-.32-.69-.54-1.42-.84-2.12-.19-.43-.07-.67.31-.87.65-.34,1.29-.7,1.94-1.03,1.51-.75,2.52-1.94,3.18-3.47.33-.76.66-1.59,1.19-2.23.26-.31.57-.58.91-.78.25-.34.54-.65.82-.97.63-.7,1.26-1.37,2.06-1.86.69-.42,1.42-.78,2.2-1.2-.93-.65-1.87-1.28-2.8-1.94-2.19-1.55-4.36-3.15-6.03-5.27-.97-1.24-1.69-2.67-2.53-4-.15-.24-.35-.48-.59-.63-1.64-1.02-3.47-1.51-5.37-1.69-5.63-.52-11.72-1.09-16.77,2.02-3.11,1.92-5.35,5.06-6.73,8.44-1.51,3.7-2.51,8.09-2.31,12.09.11,2.12.53,4.18,1.68,6.02.42.67.49,1.6,1.39,1.9,0-1.06,0-2.12,0-3.17.01-1.23.27-2.31,1.5-2.97,1.15-.62,2.36-.99,3.6-.63.59.17,1.13.75,1.55,1.27,1.06,1.31,1.13,2.91,1.1,4.52,0,.15-.02.33-.1.45-1,1.52-1.89,3.15-3.07,4.52-1.04,1.21-2.7,1.68-4.23,1.27-1.63-.44-2.51-2.12-3.24-3.51-1.14-2.16-2.24-4.35-2.93-6.7-.98-3.37-1.09-6.85-.25-10.26.63-2.54,1.64-4.96,2.65-7.36,1-2.39,2.02-4.8,3.45-6.97,2.26-3.4,5.56-5.49,9.38-6.8,2.87-.98,5.87-1.48,8.87-1.85s6-.35,8.8-1.21c.62-.19,1.33-.19,1.99-.16,1.92.08,3.69-.53,5.5-1.02,1.11-.3,2.24-.57,3.36-.82,1.97-.43,3.95-.86,5.94-1.23,2.17-.41,4.34-.79,6.57-.68,1.77.08,3.55-.02,5.32.14,1.47.13,2.92.5,4.38.78,1.66.31,3.33.6,4.99.95,2.08.45,3.94,1.36,5.65,2.65,1.16.87,2.44,1.57,3.68,2.33.14.09.38.07.56.02,1.01-.28,2-.59,3.01-.86,1.18-.31,2.26-.03,3.31.54.49.27,1.04.43,1.53.7,1.39.79,2.63,1.76,3.54,3.11.63.93,1.31,1.83,1.91,2.78.63,1,.57,1.49-.17,2.41-.06.08-.15.14-.22.22q-.84.98-.04,2.02s.04.03.05.05c.44.63.1,3.09-.47,3.62-1.22,1.14-2.65,1.41-4.27,1.2-.56-.07-1.16.23-1.75.31-.29.04-.59-.01-.88-.07-.54-.1-1.07-.24-1.79-.41-.99.59-1.64-1.26-2.9-.68.15,1.1.32,2.31.49,3.51.25,1.77.59,3.53.74,5.31.14,1.75.85,2.96,2.4,3.88,1.57.94,2.96,2.2,4.43,3.31.49.37.99.73,1.54,1.14-.02.1-.05.29-.09.48l.17-.11c.36.41.66.9,1.1,1.2.73.51,1.5,1.12,2.47.89,1.53-.37,3.03-.86,4.38-1.73.64-.41,2.29-.23,2.69.39.18.28.06.74.09,1.26-.8.3-1.67.63-2.54.96-1.04.39-2.09.75-3.1,1.19-.19.08-.37.61-.28.8.25.51.59,1,.99,1.4.49.49,1.13.83,1.59,1.34.21.23.14.72.19,1.09-.32-.02-.7.07-.94-.08-.76-.46-1.43-1.1-2.22-1.49-.93-.45-1.94-.91-2.94-1-1.26-.12-2.11-.81-3.02-1.49-1.11-.83-2.2-1.71-3.36-2.47-2.56-1.67-5.11-3.37-7.76-4.88-1.47-.84-1.86-2.13-2.23-3.56-.2-.78-.06-1.74-1-2.23.07-.15.24-.37.2-.43-.57-.76-.21-1.78-.75-2.55-.21-.3-.35-.49-.71-.23-.79.57-1.61,1.11-2.4,1.68-.62.44-.68,1.11-.15,1.65,1.74,1.78,3.13,3.79,4.3,5.99,1.38,2.57,2.81,5.11,4.35,7.58.68,1.09,1.78,1.82,3.19,1.83.84,0,1.69-.08,2.5.04.41.06.88.42,1.13.78.7,1.01,1.31,2.08,1.94,3.13.13.22.27.45.3.7.04.26.06.66-.09.78-.18.14-.54.03-.9.03-.03.2-.02.52-.13.79-.11.26-.3.58-.53.67-.21.08-.6-.05-.77-.22-.37-.37-.49-.11-.71.14-.2.21-.54.53-.71.48-.34-.11-.69-.4-.87-.71-.21-.35-.21-.82-.34-1.23-.33-1.01-1.05-1.58-2.09-1.69-1.03-.12-2.08-.15-3.11-.27-.33-.04-.69-.21-.95-.43-1.65-1.35-3.25-2.75-4.91-4.09-1.71-1.38-3.16-2.99-4.52-4.7-.85-1.07-1.94-1.96-2.73-3.06-1.26-1.77-2.59-3.58-2.86-5.8-.12-.98.23-2.04.49-3.03.3-1.15,1.02-2.07,1.84-2.92.4-.42.65-.97.98-1.46.15-.22.34-.42.51-.62.07.03.13.06.2.08-.03-.19-.06-.38-.09-.56-.08,0-.14-.03-.16-.01-.86.83-1.72,1.67-2.58,2.51-.27.26-.56.51-.84.77-.05-.05-.09-.11-.14-.16.1-.36.19-.71.29-1.07-.06-.04-.13-.09-.19-.13-.34.39-.68.79-1.06,1.23-.23-.31-.45-.59-.7-.93-.41.52-.79,1.01-1.17,1.5-.04-.02-.09-.04-.13-.07.03-.22.05-.45.1-.88-.21.28-.31.4-.4.52-.14.19-.27.39-.41.59-.14-.18-.27-.36-.43-.56-.19.13-.38.27-.76.53.13-1.01.24-1.84.35-2.67-.06-.02-.12-.03-.18-.05-.25.89-.49,1.78-.77,2.78-.64-.62-.96-.25-1.4.23v-1.02l-.14-.02c-.2.4-.4.81-.6,1.21-.04-.02-.09-.03-.13-.05.06-.27.13-.53.19-.8-.08-.04-.15-.08-.23-.12-.27.51-.66,1-.8,1.54-.37,1.48-.59,3.01-.97,4.49-.31,1.23-.72,2.44-1.18,3.62-.55,1.4-1.17,2.79-1.82,4.14-.34.7-.24,1.27.22,1.85,1.7,2.13,3.87,3.4,6.61,3.61.77.06,1,.68,1.26,1.19.3.61.46,1.3.63,1.97.05.21-.07.46-.12.69-.22-.09-.5-.12-.64-.28-.31-.34-.5-.78-.81-1.11-.22-.24-.55-.39-.84-.58-.1.07-.21.15-.31.22.32,1.06.68,2.1.95,3.17.18.7.25,1.44.3,2.17.01.19-.27.4-.42.6-.17-.21-.43-.4-.5-.64-.31-1.03-.56-2.08-.85-3.11-.06-.2-.22-.38-.49-.52.21,1.43.42,2.85.64,4.29-1.16.06-1.27-.06-1.45-1.06-.15-.83-.28-1.67-.5-2.48-.11-.41-.39-.78-.59-1.17-.1.05-.19.1-.29.15Zm-47.03-5.14c.29.95,1.65,1.42,2.3.73.68-.73,1.34-1.61,1.63-2.54.22-.7.53-1.69-.27-2.4-.22-.2-.44-.4-.68-.62-.94.26-1.5,1-1.89,1.82-.18.38-.13.91-.05,1.35.03.16.5.21.7.38.14.11.26.37.23.54-.12.75-.75.99-1.97.74Z"/>
    </g>
    <g id="otorongo.psd">
      <g>
        <path class="cls-4" d="m633.34,360.2c.04-.07.08-.14.12-.21.72-1.26,1.11-2.68,1.82-3.94.76-1.35,1.84-2.6,2.78-3.83.41-.54.93-1.07,1.27-1.65.29-.5.29-1.1.3-1.66,0-.44.02-.88-.07-1.31-.17-.86-.7-1.59-1.09-2.38-.73-1.44-.98-3.01-1.32-4.56-.17-.8-.37-1.6-.54-2.4-.04-.21.01-.43.02-.65,0-.07,0-.16-.03-.21-.27-.47-.45-.61-.96-.74.09,0,.15,0,.21,0,.01-.03.03-.06.04-.09-.44-.18-.87-.37-1.36-.57.08.11.15.2.24.32-.37.22-.68-.2-1.1-.07.04.36.09.74.13,1.12-.01,0-.03,0-.04.01-.11-.34-.23-.68-.32-1.02-.05-.2-.16-.3-.33-.34-.32-.08-.65-.14-.95-.2,0,.18-.02.33,0,.48,0,.04.05.11.09.12.18.06.5.6.44.76-.02.06-.09.1-.18.19-.29-.41-.58-.8-.85-1.22-.26-.4-.57-.68-1.05-.63.17.36.36.74.54,1.12-.04.02-.07.04-.11.06-.16-.26-.31-.53-.49-.77-.17-.23-.23-.65-.68-.48.12.39.71.59.56,1.17-.44-.45-.85-.86-1.26-1.28-.03.02-.06.04-.09.05-.01.09-.02.19-.04.29l-.31-.06s-.06.04-.09.06c.07.14.13.28.22.4.1.15.23.25.17.48-.04.14.04.33.1.48.13.33.29.66.43.99.01.03-.03.08-.05.14-.39-.83-.76-1.63-1.14-2.45-.18.05-.34.09-.53.13,0,.08,0,.17.01.25-.05.04-.11.08-.16.12-.12-.05-.24-.1-.39-.15,0,.1-.01.2-.02.3-.14.04-.05-.45-.28-.12-.44-.04-.62.14-.58.55.01.13,0,.26-.06.4-.01-.08,0-.18-.04-.25-.06-.13-.15-.25-.22-.37-.19.12-.49,0-.58.32-.06.22-.16.43-.24.64-.03-.01-.07-.02-.1-.04.07-.25.15-.49.23-.77-.13,0-.24.01-.31.02-.11.23-.2.44-.29.64-.02-.01-.05-.02-.07-.03.06-.18.12-.36.18-.53-.38-.15-.74-.29-1.1-.43-.64-.25-1.28-.48-1.9-.77-.25-.12-.43-.38-.63-.6-.09-.09-.14-.22-.23-.37-.2.33-.36.61-.53.9-.03-.01-.05-.03-.08-.04.16-.28.32-.56.47-.84.03-.06.04-.15.05-.22-.08.01-.18,0-.24.04-.14.1-.27.22-.43.34.05-.37.54-.41.49-.82-.04-.33-.19-.57-.5-.74-.74.55-1.48,1.11-2.16,1.62.06-.31.42-.76,1.15-1.4-.37.19-.75.35-1.1.57-.36.22-.7.49-1.06.75.25-.51,1.43-1.43,1.68-1.32.04-.1.08-.21.15-.39-.82.31-1.58.59-2.33.88.32-.4,1.94-1.02,3.38-1.28-.29-.26-.58-.09-.83-.01-.55.17-1.09.39-1.64.56.19-.12.38-.23.65-.4-.2-.04-.33-.1-.46-.09-.26.03-.51.1-.76.14-.06,0-.14-.04-.21-.07.06-.03.11-.08.17-.1.38-.15.75-.29,1.14-.43.39-.14.79-.27,1.18-.4.11-.04.23-.07.34-.1v-.09c-.26,0-.52.02-.77.02-.15,0-.3-.05-.45-.03-.63.06-1.25.15-1.88.22.02-.12.04-.24.06-.41.09.09.15.16.23.25-.01-.1-.02-.17-.04-.31.11.12.17.18.23.24,0-.03,0-.06,0-.08l1.28-.08s0-.04,0-.07c-.86-.14-1.73-.28-2.59-.42l.03-.15c1.3.2,2.6.4,3.9.6,0-.09.02-.23.04-.42-.99-.3-1.99-.59-2.99-.89,1.06.02,2.04.44,3.01.75.23-.74.34-1.56.89-2.13.49-.51,1.26-.74,1.54-1.45.2-.52-.08-.83-.19-1.3-.14-.59-.11-1.22.14-1.78.06-.14.14-.28.16-.43.02-.11,0-.22,0-.33-.06-.91.24-1.83.81-2.54.1-.13.21-.25.33-.36.01-.01.03-.03.04-.04.01-.02.02-.04.03-.07.02-.06.05-.13.08-.19.17-.33.4-.67.7-.9.31-.24.67-.42,1-.64.93-.62.92-.55.54-1.57-.4-1.09-.73-2.61-.03-3.66.35-.53.95-.85,1.52-1.13.53-.27,1.11-.55,1.71-.48.26.03.52.14.69.34.11.12.18.28.26.42.34.6,1,1.24,1.64,1.51.71.3,1.08-.04,1.79-.3.72-.28,1.44-.2,2.23-.2.46,0,.93,0,1.39.01,1.02,0,2.05.02,3.07-.06,1.51-.11,3.02-.42,4.54-.33,2.63.16,5.23,1.1,7.85,1.48,2.25.33,4.58.04,6.79.43,2.15.38,4.18,1.24,5.97,2.48s3.24,3.13,5.05,4.48c1.41,1.05,2.93,1.96,4.52,2.71,1.71.81,3.53,1.46,5.42,1.72s3.76-.05,5.64-.16c5.38-.33,10.72-1.05,16.1-1.33,4.37-.23,8.85-.14,13,1.24,3.32,1.1,6.34,3.03,8.77,5.55,2.65,2.75,3.99,5.68,4.21,9.5.3,5.06.21,10.15-.24,15.2-.3,3.37-.78,6.88.16,10.19.88,3.09,2.78,5.85,5.17,7.97,1.48,1.31,3.13,2.41,4.87,3.35,1.78.96,4.42,1.37,5.72,3.04.36.46.59,1.07.46,1.64-.17.72-.84,1.2-1.53,1.46-1.2.46-2.55.45-3.81.18-2.42-.5-4.94-1.59-7.11-2.76s-4.17-2.64-5.8-4.48c-1.48-1.67-2.6-3.62-3.77-5.52s-2-3.74-2.36-5.99c-.49-3.11-.06-6.25.51-9.32.29-1.55.61-3.1.88-4.66.11-.66.11-1.15.01-1.8-.06-.44-.52-1.77-.34-2.14-.25.53-.5.95-.66,1.4-1.18,3.47-1.9,7.18-2.63,10.77-.24,1.18-.46,2.38-.52,3.58-.1,1.96.23,3.92.83,5.78.3.94.68,1.85,1.1,2.74.37.78,1.05,1.57,1.31,2.36.11.34.19.74.1,1.06-.23.8-.53,1.59-1.06,2.27-.46.59-.92,1.19-1.39,1.78-.8,1.01-1.58,2.03-2.4,3.02s-1.68,1.99-2.41,3.07c-.18.27-.36.55-.59.78-.26.26-.57.45-.88.65-.28.17-.55.36-.87.45-.42.12-.72-.03-1.09-.18-.8-.32-1.65-.6-2.51-.51-.27.03-.54.09-.81.1-.42.01-.7-.22-1.08-.31-.34-.09-.7-.06-1.06-.1-.58-.07-1.13-.34-1.61-.68-.24-.17-.46-.35-.63-.58-.26-.36-.29-.83-.23-1.26.11-.74.87-1.32,1.47-1.66.46-.26.99-.46,1.51-.4.38.05.73.23,1.11.3.77.16,1.76-.12,2.39-.56.48-.34.87-.8,1.25-1.25.56-.66,1.13-1.32,1.56-2.08.72-1.27.89-2.8.02-4.04-.18-.26-.32-.56-.55-.78-.49-.5-1.16-.77-1.77-1.08-.99-.51-1.9-1.15-2.79-1.81-.56-.42-1.11-.85-1.58-1.36-.52-.55-.8-1.16-1.16-1.82-.1-.19-.22-.38-.32-.57-.06-.12-.12-.24-.18-.37,0-.14-.19-.42-.25-.55-.07-.16-.14-.32-.2-.48-.16-.44-.26-.89-.37-1.34,0,0-.71.4-.77.45-.29.25-.43.6-.55.95-.14.41-.39.75-.59,1.13-.42.77-.52,1.67-.87,2.48-.2.47-.47.89-.68,1.36-.1.23-.2.48-.23.73s.02.5-.01.75c-.06.49-.25.99-.53,1.4-.56.83-1.44,1.37-2.22,1.96-1.44,1.09-2.73,2.38-4.09,3.57-.06.06-.13.12-.17.19-.02.05-.04.11-.06.16-.07.13-.2.19-.31.29-.09.08-.15.19-.23.28-.12.13-.28.22-.43.31-1.11.65-2,1.57-2.89,2.49-.42.44-.89.9-1.49,1-.56.09-1.11-.14-1.68-.2-.37-.03-.75.01-1.12-.03s-.69-.23-1.05-.34c-1.04-.32-2.18-.12-3.16-.63-.48-.25-.83-.45-1.39-.36-.14.02-.29.06-.43.02-.18-.05-.31-.21-.45-.34-.18-.17-.39-.31-.63-.39-.19-.07-.4-.12-.53-.28-.27-.35-.02-1.03.14-1.37.21-.46.55-.86.94-1.17.15-.12.31-.23.49-.3.06-.02.13-.04.19-.06.37-.1.74-.24,1.12-.3.34-.06.67.05,1,.13.86.2,1.76.19,2.65.17.36,0,.73-.02,1.06-.15.27-.11.51-.3.72-.5.66-.6,1.23-1.28,1.82-1.95.27-.31.55-.61.83-.92.12-.13.34-.29.43-.42.85-1.27,2.02-2.53,2.22-4.07s-.25-3.16-.3-4.73c-.05-1.46-.37-2.73-.65-4.15-.09-.47-.25-1.01-.24-1.49,0-.41.19-.81.19-1.22,0-.11-.46-1.68-.23-1.68q-.34,0-.41.65c-.02-.16-.03-.33-.05-.49-.27.02-.53,0-.79.06-.44.1-.86.29-1.3.37-.82.15-1.65.3-2.48.38-6.58.62-13.22-.74-19.43-2.84-.4-.14-.81-.28-1.21-.42-.76-.27-1.51-.54-2.27-.82-.54-.2-1.29-.66-1.77-.14-1.76,1.91-3.45,3.87-5.31,5.68-1.63,1.58-4.01,2.96-4.29,5.45-.02.14-.04.32-.18.37-.12.69-.37,1.36-.43,2.05-.14,1.55,1.01,1.95,1.69,3.11.23.39.31.86.23,1.3-.09.5-.37.93-.64,1.36-.76,1.19-1.55,2.18-3.05,2.23-.88.03-1.73-.33-2.44-.84-.79-.57-1.63-1.37-2.23-2.12-.82-1.03-1.02-2.42-.98-3.74.02-.74.11-1.48.17-2.23.06-.7-.06-1.39-.03-2.07,0-.24.12-.48.19-.7-1.16.76-2.01,1.84-2.96,2.81-.29.29-.6.56-.89.85-.67.66-1.52,1.08-2.22,1.7-.58.51-1.1,1.08-1.67,1.59-.2.18-.45.3-.7.41-1.03.45-1.71.61-2.84.39-1.29-.25-2.61-.37-3.91-.58s-2.47-.63-3.72-.98c-.35-.1-.53-.38-.57-.7-.15-1.08-.08-2.06.76-2.85,1.21-1.14,3.23-1.64,4.83-1.38.77.12,1.53.32,2.32.34.21,0,.42,0,.61-.09.51-.23.96-.96,1.3-1.38.51-.64.98-1.3,1.47-1.96.35-.47.7-.95,1-1.45Zm69.13,22.8s-.07-.04-.1-.06c-.35.39-.65.81-.75,1.41.31-.49.58-.92.85-1.35Zm-83.92-50.59v.09c.4-.06.81-.11,1.22-.17,0-.04-.01-.09-.02-.13-.41-.06-.8.14-1.2.21Z"/>
        <path class="cls-4" d="m627.01,336.29c.11.16.26.32.33.5.05.13-.01.3-.03.51,0,0,.13.1.13.1-.25.34.18.64.05.97-.03.08-.07.15-.13.26-.12-.64-.23-1.22-.33-1.8-.03-.17-.01-.36-.02-.54,0,0,0,0,0,0Z"/>
        <path class="cls-4" d="m616.53,331.93c-.22.03-.44.05-.66.08-.23.03-.44-.08-.47-.3.35.37.44-.04.64-.22,0,.13.01.23.02.35.14-.11.24-.19.35-.28.04.14.08.25.11.36,0,0,0,0,0,0Z"/>
        <path class="cls-4" d="m627.71,336.25c.05-.04.11-.08.16-.12.11.25.23.49.34.73-.23-.03-.53-.4-.5-.62Z"/>
        <path class="cls-4" d="m629.81,337.32c-.23-.25-.46-.51-.69-.76.03-.02.05-.05.08-.07.22.26.45.52.67.77-.02.02-.04.04-.06.05Z"/>
      </g>
    </g>
    <g id="sajino.psd">
      <path class="cls-4" d="m301.19,253.18c1.69.23,3.37.47,5.06.7.48.06.99.3,1.41-.18.04-.04.19,0,.28.03,1.26.29,2.52.63,3.79.87.62.11,1.27,0,1.91.04.48.03.97.06,1.43.19.68.2,1.27.46,2.08.34.78-.11,1.67.39,2.49.67.54.18,1.04.45,1.56.69.03-.05.06-.11.08-.16-.3-.29-.61-.58-.95-.91.95-.28,1.71.29,2.48.31,1.65.02,2.77,1.25,4.25,1.6.04,0,.09-.03.17-.06-.31-.24-.6-.47-.89-.7.04-.06.07-.12.11-.18.29.12.58.24.72.3.25-.1.46-.25.57-.2.3.15.58.36.84.59.44.38.53.09.63-.27-.37-.26-.73-.51-1.09-.77.04-.07.08-.15.11-.22.43.17.85.33,1.36.53.05-.28.1-.54.17-.92.86.44,1.68.87,2.6,1.35-.02-.21-.03-.31-.05-.42-.01-.09-.03-.18-.08-.42.65.35,1.19.63,1.73.92.02-.02.04-.05.05-.07-.42-.35-.84-.69-1.26-1.04.06-.08.12-.16.19-.25.37.21.75.39,1.09.62.89.6,1.88.64,2.84.39.79-.21,1.38.08,2,.4.14.07.29.14.54.27-.07-.31-.11-.51-.17-.82.41.09.73.17,1.12.26.02-.2.04-.36.06-.57.15.07.27.12.36.18.43.3.75.63,1.41.68.68.06,1.3.73,2.01,1.18.2-.12.49-.3.87-.54.14.09.37.25.68.47-.02-.15-.02-.23-.04-.41.47.26.86.61,1.31.69.33.05.6.15.9.23,1.01.27,1.24,1.28,2.03,1.81,0-.28,0-.53,0-.77.08-.03.17-.05.25-.08.52,1.23,1.09,2.44,1.53,3.69.34.99.56,2.02.72,3.06.16,1.1.07,2.24.3,3.32.15.67.69,1.26,1.07,1.88,1.61,2.57,2.9,5.25,3.44,8.28.21,1.19.84,2.34,1.46,3.4.56.96,1.37,1.76,2.04,2.65.17.23.59.48.16.87-.04.03.1.35.22.46,1.21,1.12,1.08,1.71-.49,2.32-1.02.4-2.03.83-3.04,1.25-.43-.59-1.05-.42-1.62-.44-.37-.01-.78.09-1.11-.03-2.08-.77-4.22-1.25-6.42-1.32-1.13-.04-2.27.31-3.42.43-.72.07-1.44.05-2.16.05-1.41,0-2.83.1-4.23-.04-.85-.09-1.65-.46-2.55-.12-.32.12-.76-.09-1.15-.15-.05.1-.11.2-.16.3.96.8,1.88,1.66,2.89,2.39,1,.72,2.08,1.31,3.13,1.95.84.51,1.01.99.92,2.02-.11,1.32-.16,2.64-.18,3.96-.01.74-.24,1.27-.82,1.77-.91.8-1.68,1.76-2.56,2.6-.82.77-1.69,1.47-2.58,2.16-.19.15-.53.12-.99.21.07-1.43.03-2.73.24-3.99.07-.43.68-.91,1.15-1.11.62-.26.81-.52.51-1.12-.07-.14-.07-.33-.11-.54.53-.24,1.05-.5,1.58-.73.58-.25.92-.84.55-1.33-.36-.47-.93-.91-1.49-1.04-1.36-.33-2.76-.49-4.16-.68-.61-.09-1.24-.11-1.93-.16-.15,2.14-.34,4.22-.44,6.3-.05,1.19.31,2.29.9,3.35.46.82.65,1.78.96,2.67.65,1.86,1.88,3.37,3.07,4.89.24.3.69.53.36,1.06-.34.55-.73.14-1.1.09-.07,0-.14-.04-.14.14-.33.14-.65.42-.97.41-1.63-.04-2.86-.76-3.44-2.43-.37-1.08-.74-2.17-1.18-3.23-.27-.64-.51-1.4-1.53-1.13-.21.06-.47-.08-.61-.11-.08-.6-.12-1.19-.23-1.76-.33-1.75-.74-3.48-1.72-5.01-.31-.48-.76-.87-1.08-1.35-.22-.33-.34-.73-.51-1.1-.48-1.02-.96-2.04-1.47-3.04-.08-.16-.28-.34-.45-.37-2.04-.34-2.62-1.65-1.47-3.34.04-.06.06-.13.13-.3-.42-.25-.84-.53-1.28-.76-.55-.29-1.09-.68-1.68-.77-.64-.1-1.43-.09-1.98.21-1.5.8-2.92,1.77-4.37,2.67-.21.13-.46.18-.68.27.07-.23.15-.46.22-.69.02-.07.02-.14.03-.24-.42.05-.82.1-1.28.15,0-.18,0-.34.02-.65-1.11.8-2.15,1.55-3.19,2.3-.06-.08-.13-.16-.19-.25.27-.28.53-.56.86-.92-1.05.02-1.12,1.2-1.99,1.43.02-.23.03-.4.04-.47-1-.28-1.96-.26-2.91.35-.03-.2-.04-.33-.06-.49-.29.11-.57.22-.85.32-.04-.05-.07-.09-.11-.14.22-.22.44-.43.66-.65-.03-.06-.07-.11-.1-.17-.31.2-.66.36-.91.62-1.07,1.1-1.66,2.47-2.1,3.91-.31,1.01-.58,2-.52,3.09.08,1.38.77,2.46,1.46,3.55.61.96,1.4,1.73,2.3,2.43.59.46,1,1.18,1.45,1.8.08.1,0,.32-.02.54.91.94,1.91,1.96,2.99,3.07-1.36.51-2.58.8-3.86.41-.22-.07-.46-.36-.53-.6-.34-1.05-.7-2.06-1.54-2.84-.26.18-.52.36-.84.57-.51-2.31-2.22-3.7-3.59-5.29-.85-.98-1.94-1.76-2.94-2.6-.57-.48-.46-1.11-.38-1.68.2-1.62.5-3.23.75-4.85.03-.22-.02-.46-.03-.59-1.61.15-2.72,1.11-3.9,1.95-.11.08-.33-.04-.49-.02-.19.02-.39.06-.55.16-.68.43-1.34.88-2.14,1.41.02-.33.04-.48.05-.64-.04,0-.12,0-.16.04-.23.18-.44.41-.69.54-.38.2-.81.31-1.19.52-.96.52-.98,1.51-.91,2.37.16,2.01.33,4.04.76,6,.49,2.21,1.05,4.43,2.39,6.34.32.46.6.95.87,1.45.31.58.04,1-.62.96-.63-.03-1.29-.03-1.9-.17-1.18-.29-2.11-.89-2.4-2.2-.21-.92-.47-1.83-.72-2.82-.07,0-.23-.04-.39-.01-.7.13-1.09-.15-1.14-.86-.09-1.52-.09-3.04-.28-4.55-.19-1.57-.55-3.11-.84-4.66-.2-1.05-.41-2.1-.65-3.15-.1-.44-.24-.89-.46-1.29-.33-.58-.21-1.04.29-1.45,1.51-1.24,3.3-2.22,3.95-4.26.05-.15.21-.27.29-.41.07-.12.11-.26.2-.47-.3.04-.51.07-.74.1.11-.8-.07-.98-.71-.74-.26-.42-.53-.83-.79-1.25-.26.13-.47.24-.91.47.1-.54.17-.9.24-1.23-.52.05-.77-.41-.53-1.34-.28.04-.52.08-.83.12.05-.18.1-.33.15-.53-.18,0-.35,0-.6,0,.12-.25.2-.43.32-.69-.57.02-1.16.06-.69-.79-.37.15-.66.27-1.04.43.19-.7-.26-1.4.44-1.89-.32.13-.63.26-.99.41-.12-.39-.24-.73-.35-1.09-.4.03-.94-.61-.97-1.25-.25.09-.5.19-.82.31-.08-.48-.16-.91-.22-1.28-.16-.19-.45-.39-.43-.56.1-.91-.32-1.89.32-2.74-.48-.63.48-1.08.19-1.81-.16-.39.43-1.08.69-1.63.08-.16.22-.3.39-.52-.27-.06-.45-.1-.82-.19.79-1.15,1.54-2.23,2.4-3.48-.39.33-.64.55-1.06.9.09-.33.09-.47.16-.56.34-.46.77-.82.84-1.47.09-.86.83-1.32,1.38-1.9.47-.5.83-1.11,1.37-1.84-.42.05-.6.07-.77.09-.03-.04-.06-.09-.1-.13.17-.14.32-.3.51-.42,2.3-1.52,4.07-3.76,6.7-4.82.23-.09.29-.54.52-.66.78-.44,1.57-.86,2.4-1.18.74-.28,1.55-.41,2.32-.75-.34-.05-.69-.1-1.2-.18,3.17-.94,6.28-1.18,9.45-1.35-.14-.25-.23-.4-.32-.55,1.03-.06,2.06-.11,3.1-.17Z"/>
    </g>
    <g id="taricaya.psd">
      <path class="cls-12" d="m625.47,168.78c0-.36,0-.69-.01-1.17-.47.75-.88,1.39-1.28,2.03-.12-.03-.25-.07-.37-.1-.11-.72-.22-1.43-.35-2.21-.59-.13-.98.09-1.04.84-.03.31-.12.63-.27.9-.08.15-.33.32-.48.29-.16-.03-.35-.24-.41-.41-.18-.53-.3-1.07-.46-1.66l-2.68-.44c-.4.72-.89,1.52-2.21,1.17.58-1.24-.25-1.71-1.12-2.31-1.06-.73-1.55-1.82-1.96-3.11-.92-2.87-.23-5.7-.25-8.54,0-1.43-.05-2.85-.08-4.32-.36.05-.51.04-.64.1-2.96,1.28-5.86.69-8.82-.14-2.11-.59-4.32-.81-6.48-1.24-.94-.18-1.87-.41-2.78-.71-2.12-.72-4.31-.28-6.45-.46-3.14-.26-6.32-.36-9.33-1.55-1.55-.61-3.18-1.01-4.78-1.46-2.4-.66-4.71-1.5-6.91-2.72-1.44-.8-3.03-1.36-4.56-1.99-2.99-1.22-6.1-2.22-8.97-3.69-2.53-1.29-4.8-3.08-7.18-4.66-.2-.13-.38-.3-.67-.52.2,1.9-.69,3.35-1.67,4.67-.43.58-1.38.76-2.09,1.13-.22.12-.44.25-.66.38-.76.44-1.49.96-2.3,1.28-.37.15-.9-.11-1.55-.22.58-.87,1.01-1.53,1.64-2.49-.57.16-.99.18-1.26.38-.77.57-1.44,1.27-2.23,1.8-.28.19-.79.06-1.19.07.08-.33.15-.67.24-1,.15-.63,1.33-1.15.24-1.92-1.11.64-2.2,1.27-3.29,1.9-.1-.09-.2-.18-.31-.27.67-1.21,1.33-2.43,2.11-3.84-.37-.13-.9-.19-1.22-.47-.45-.39-.82-.92-1.1-1.45-.18-.34-.14-.8-.2-1.23-1.95-.56-2.49-1.91-1.36-3.44-1.1-.91-1.11-.98-.62-2.21-.09-.46-.38-1.01-.23-1.36.49-1.09.78-2.31,2.15-2.84,1.05-.41,1.91-1.27,2.94-1.74.63-.29,1.41-.25,2.13-.34.3-.04.61,0,.83,0-.71-1.7-1.39-3.36-2.11-5.09-2.06.1-3.62,1.24-4.93,2.81-.94-.52-1.37-2.01-.83-3.02,1.17-2.17,2.93-3.61,5.18-4.09.34-2.04.34-4.08,1.06-5.82.71-1.72,1.68-3.48,3.42-4.58,3.34-2.12,7.08-2.91,10.9-3.56,3.5-.59,6.94-1.56,10.44-2.1,4.47-.68,9-1.02,13.48-1.65,4-.56,7.99-.64,11.93.22,2.84.63,5.62,1.57,8.43,2.36.92.26,1.86.45,2.78.72,3.31,1,6.67,1.89,9.92,3.05,4.7,1.68,8.32,4.99,11.86,8.36.45.43.95.83,1.47,1.18,4.21,2.82,7.82,6.32,11.29,9.99,1.22,1.29,2.33,2.73,4.23,3.23.77.2,1.43.88,2.06,1.44.14.12.06.76-.13.95-.59.6-1.28,1.11-1.95,1.64-.68.54-.69,1.04.05,1.47.55.32,1.14.61,1.76.74,1.25.25,2.41.72,3.81.51,2.19-.32,4.32.32,6.33,1.37,1.49.77,3.17,1.19,4.67,1.93.98.49,1.89,1.2,2.7,1.96.93.87,1.65,1.96,2.56,2.86,1.24,1.25,1.3,1.73.09,2.95-1.27,1.28-2.51,2.58-3.8,3.84-.27.26-.64.5-1,.57-1.38.26-2.78.41-4.16.67-.74.14-1.46.43-2.2.61-.36.09-.9.24-1.08.07-.72-.67-1.46-.43-2.27-.34-.8.09-1.64-.05-2.46-.15-2.72-.31-5.4-1.12-8.17-.1-2.56.95-5.05.61-7.3-.99-.07.96-.14,1.82-.19,2.68-.01.27-.02.58.08.83,1.26,3.12,1.02,6.11-.61,9.06-.78,1.42-1.38,2.95-2,4.45-.43,1.03.49,1.98,1.97,2.11,1.66.14,2.1.58,2.5,2.3.08.33.43.61.7.88,1.52,1.53,1.01,4.4-.96,4.96Z"/>
    </g>
    <path class="cls-11" d="m414.03,216.92c-.41.2-.89-.13-.84-.59.12-1.15.26-2.34,0-3.42-.41-1.67-.81-3.29-.96-5.02-.15-1.77-.13-3.56.06-5.34.38-3.54,1.41-7.02,3.02-10.2,1.34-2.64,3.11-5.02,5.1-7.2,3.05-3.32,6.06-6.86,9.62-9.63.96-.75,1.94-1.51,3.07-1.97,1.82-.75,3.82-.68,5.74-.66,2.14.02,4.3-.12,6.44-.23,1.01-.05,1.71-.51,2.55-1.01.1-.06.22-.06.32,0l.46.28c.18.11.2.37.04.5-.8.67-1.1,1.46-.87,2.37.31,1.62.52,3.25.75,4.88s.41,3.19.08,4.77c-.32,1.54-1.11,2.96-1.69,4.4-.63,1.56-1.17,3.16-1.86,4.7-2.6,5.76-6.35,11.07-11.33,15.02-2.81,2.23-6.06,4.46-9.54,5.45-3.36.95-6.99,1.35-10.16,2.87Z"/>
    <path class="cls-4" d="m723.3,316.96c.24.48.9.51,1.18.06.7-1.14,1.42-2.33,2.43-3.12,1.57-1.23,3.08-2.43,4.44-3.9,1.4-1.51,2.64-3.17,3.73-4.92,2.17-3.5,3.69-7.41,4.48-11.46.65-3.37.73-6.79.44-10.19-.43-5.19-.67-10.56-1.96-15.62-.35-1.37-.71-2.75-1.41-3.98-1.13-1.97-3.01-3.33-4.78-4.68-1.97-1.5-3.84-3.16-5.71-4.78-.89-.77-1.2-1.68-1.61-2.73-.05-.12-.16-.21-.29-.22l-.62-.07c-.24-.03-.44.19-.39.43.26,1.18-.03,2.11-.89,2.78-1.43,1.26-2.78,2.6-4.15,3.93s-2.64,2.62-3.46,4.3c-.79,1.63-1.09,3.49-1.58,5.22-.53,1.88-1.18,3.72-1.63,5.62-1.71,7.11-2.05,14.62-.31,21.76.98,4.03,2.37,8.38,4.85,11.75,2.39,3.26,5.42,6.19,7.25,9.83Z"/>
    <path class="cls-11" d="m639.5,414.87c-.25.18-.6.01-.62-.29-.05-.77-.09-1.58-.38-2.26-.46-1.06-.9-2.09-1.19-3.21-.3-1.16-.48-2.34-.55-3.53-.15-2.39.15-4.8.86-7.08.59-1.9,1.49-3.67,2.57-5.33,1.65-2.53,3.24-5.21,5.29-7.44.55-.6,1.12-1.21,1.81-1.65,1.12-.7,2.45-.87,3.72-1.08,1.42-.22,2.83-.56,4.23-.87.66-.15,1.07-.53,1.57-.95.06-.05.14-.06.21-.03l.34.13c.13.05.17.22.08.33-.45.53-.56,1.08-.31,1.67.39,1.04.71,2.09,1.04,3.14s.63,2.06.59,3.14c-.04,1.05-.4,2.08-.63,3.1-.24,1.1-.42,2.22-.71,3.32-1.08,4.1-2.96,8.02-5.81,11.19-1.61,1.79-3.51,3.63-5.7,4.67-2.12,1.01-4.47,1.67-6.4,3.03Z"/>
    <path class="cls-14" d="m594.65,338.93c-.21.21-.56.12-.63-.17-.18-.72-.36-1.46-.75-2.05-.61-.92-1.21-1.8-1.67-2.81-.48-1.03-.86-2.11-1.13-3.22-.55-2.21-.69-4.53-.42-6.79.23-1.88.77-3.7,1.49-5.44,1.11-2.66,2.14-5.44,3.68-7.89.41-.66.84-1.33,1.41-1.86.93-.85,2.15-1.24,3.31-1.65,1.29-.46,2.55-1.01,3.82-1.55.6-.25.92-.68,1.31-1.16.05-.06.12-.08.19-.07l.34.07c.13.03.2.18.13.29-.33.58-.34,1.11,0,1.62.54.91,1.02,1.84,1.52,2.77s.95,1.83,1.09,2.85c.14.99-.02,2.02-.05,3.01-.04,1.08-.01,2.15-.09,3.23-.3,4.03-1.4,8.04-3.52,11.5-1.2,1.95-2.67,4.01-4.54,5.36-1.81,1.31-3.9,2.34-5.48,3.95Z"/>
    <path class="cls-11" d="m493.26,377.58c-.2-.09-.23-.37-.04-.49.46-.31.95-.63,1.27-1.06.49-.67.97-1.32,1.57-1.9.61-.6,1.28-1.15,2-1.62,1.43-.95,3.04-1.64,4.71-2.03,1.39-.32,2.82-.4,4.24-.33,2.17.11,4.41.13,6.54.6.58.13,1.16.26,1.68.53.84.44,1.43,1.21,2.02,1.93.65.8,1.37,1.55,2.07,2.31.33.36.72.48,1.16.63.05.02.09.06.1.12l.04.26c.02.1-.07.19-.17.17-.49-.09-.88.04-1.15.41-.51.62-1.04,1.2-1.58,1.78s-1.06,1.14-1.74,1.5c-.67.35-1.44.5-2.15.73-.78.25-1.53.54-2.32.76-2.94.81-6.06,1.06-9.07.44-1.69-.35-3.53-.87-4.97-1.86-1.39-.95-2.66-2.17-4.2-2.88Z"/>
    <path class="cls-14" d="m556.96,359.96c-.25.06-.48-.17-.4-.42.19-.62.4-1.27.37-1.89-.05-.97-.09-1.91.02-2.88.11-1,.32-1.99.62-2.95.6-1.92,1.55-3.73,2.78-5.31,1.03-1.32,2.27-2.44,3.61-3.42,2.05-1.5,4.1-3.13,6.38-4.28.61-.31,1.24-.62,1.91-.76,1.09-.22,2.19.04,3.25.26,1.18.25,2.39.4,3.59.58.57.08,1-.1,1.52-.28.06-.02.13,0,.18.04l.23.21c.09.08.07.22-.03.28-.51.28-.77.68-.74,1.22,0,.93-.07,1.86-.12,2.78s-.12,1.81-.48,2.65c-.35.81-.94,1.51-1.42,2.25-.52.8-.99,1.62-1.54,2.4-2.07,2.9-4.72,5.43-7.91,7.07-1.8.93-3.84,1.81-5.87,1.97-1.96.16-4.01-.02-5.94.48Z"/>
    <path class="cls-12" d="m523.1,447.93c-.35.01-.59-.37-.41-.67.44-.77.91-1.57,1.05-2.41.22-1.31.44-2.58.87-3.84.44-1.3,1.01-2.56,1.69-3.75,1.36-2.39,3.16-4.52,5.28-6.27,1.76-1.45,3.74-2.59,5.82-3.51,3.18-1.4,6.4-2.97,9.77-3.83.91-.23,1.84-.46,2.78-.44,1.51.03,2.9.7,4.26,1.31,1.51.68,3.07,1.24,4.62,1.82.73.28,1.37.17,2.11.07.09-.01.17.03.22.1l.24.34c.09.13.03.32-.13.37-.77.22-1.23.69-1.34,1.41-.28,1.24-.63,2.46-.98,3.68s-.69,2.38-1.41,3.39c-.7.98-1.69,1.75-2.55,2.59-.93.91-1.8,1.87-2.77,2.74-3.61,3.26-7.9,5.86-12.63,7.11-2.67.71-5.66,1.28-8.42.9-2.67-.36-5.35-1.2-8.06-1.11Z"/>
    <path class="cls-4" d="m650.11,481.1c-.36.11-.71-.21-.61-.58.24-.92.5-1.88.41-2.79-.13-1.42-.26-2.78-.17-4.21.09-1.47.33-2.92.7-4.34.74-2.84,2-5.55,3.7-7.95,1.41-1.99,3.14-3.72,5.04-5.24,2.89-2.33,5.78-4.85,9.02-6.68.88-.49,1.77-.99,2.74-1.23,1.57-.39,3.2-.09,4.76.16,1.74.28,3.52.42,5.28.6.83.08,1.46-.21,2.2-.51.09-.04.19-.02.26.04l.34.29c.13.11.12.32-.03.41-.73.45-1.07,1.05-.99,1.83.05,1.36.03,2.71.02,4.07-.01,1.31-.05,2.65-.52,3.9-.45,1.21-1.26,2.28-1.92,3.38-.71,1.2-1.34,2.43-2.09,3.61-2.82,4.38-6.53,8.25-11.07,10.87-2.56,1.48-5.49,2.9-8.44,3.28-2.86.37-5.86.25-8.64,1.1Z"/>
    <path class="cls-5" d="m414.55,263.24c-.17.24-.54.2-.65-.07-.28-.68-.57-1.39-1.05-1.92-.75-.81-1.46-1.6-2.08-2.52-.63-.95-1.16-1.96-1.6-3.01-.87-2.1-1.36-4.37-1.43-6.65-.06-1.89.2-3.77.66-5.6.69-2.8,1.3-5.7,2.45-8.35.31-.72.63-1.44,1.12-2.05.79-.98,1.94-1.55,3.02-2.13,1.21-.64,2.37-1.39,3.54-2.1.55-.34.8-.81,1.12-1.35.04-.06.11-.1.18-.1l.35.02c.14,0,.22.14.17.27-.24.62-.17,1.15.24,1.6.67.82,1.29,1.66,1.92,2.51s1.21,1.66,1.51,2.65c.29.96.28,2,.4,2.99.12,1.07.31,2.13.39,3.21.31,4.03-.17,8.16-1.76,11.9-.89,2.11-2.03,4.36-3.69,5.98-1.59,1.57-3.51,2.9-4.83,4.72Z"/>
    <path class="cls-10" d="m354.15,374.92c-.1.28-.47.33-.65.1-.45-.58-.92-1.19-1.52-1.57-.93-.59-1.83-1.16-2.67-1.89-.86-.75-1.64-1.59-2.34-2.48-1.4-1.8-2.47-3.86-3.13-6.04-.56-1.81-.8-3.69-.84-5.58-.07-2.88-.25-5.85.16-8.7.11-.77.23-1.56.54-2.27.5-1.15,1.46-2.01,2.35-2.85,1-.94,1.92-1.96,2.86-2.96.44-.47.56-1,.72-1.59.02-.07.08-.12.15-.14l.34-.08c.13-.03.25.08.24.21-.07.66.14,1.16.66,1.48.86.61,1.68,1.27,2.51,1.92s1.6,1.29,2.15,2.16c.53.85.8,1.85,1.17,2.78.4,1,.86,1.97,1.23,2.99,1.36,3.81,1.99,7.92,1.45,11.94-.3,2.27-.81,4.74-1.98,6.74-1.13,1.93-2.62,3.72-3.41,5.83Z"/>
    <path class="cls-4" d="m425.7,294.74c-.18.23-.54.19-.65-.09-.26-.69-.54-1.41-1-1.94-.72-.83-1.42-1.64-2.01-2.58-.6-.97-1.11-1.99-1.52-3.05-.82-2.13-1.25-4.4-1.26-6.68,0-1.9.3-3.76.8-5.58.77-2.78,1.45-5.67,2.67-8.29.33-.71.67-1.42,1.17-2.02.81-.96,1.97-1.5,3.08-2.05,1.23-.61,2.41-1.32,3.59-2.01.56-.32.82-.79,1.15-1.32.04-.06.11-.1.18-.09l.35.02c.13,0,.22.15.17.27-.26.61-.2,1.15.2,1.6.65.83,1.25,1.7,1.85,2.56s1.17,1.69,1.44,2.69c.26.97.23,2.01.32,3,.1,1.07.26,2.14.31,3.22.2,4.04-.38,8.15-2.06,11.85-.95,2.09-2.15,4.31-3.84,5.89-1.63,1.52-3.58,2.81-4.95,4.6Z"/>
    <path class="cls-4" d="m405.45,312.84c-.12.22-.43.22-.55,0-.3-.55-.61-1.12-1.06-1.51-.7-.61-1.38-1.21-1.99-1.93-.62-.74-1.16-1.54-1.63-2.38-.94-1.69-1.56-3.55-1.83-5.46-.23-1.59-.18-3.19.02-4.78.32-2.42.56-4.92,1.27-7.26.19-.63.39-1.27.75-1.83.57-.9,1.48-1.49,2.34-2.08.96-.66,1.87-1.39,2.78-2.1.43-.34.6-.76.82-1.24.03-.06.08-.09.14-.1l.29-.02c.11,0,.2.1.17.21-.15.54-.04.99.35,1.32.64.62,1.24,1.28,1.85,1.93s1.17,1.29,1.52,2.09c.33.78.43,1.66.62,2.48.21.89.46,1.76.64,2.66.64,3.36.63,6.88-.35,10.18-.55,1.86-1.3,3.86-2.54,5.38-1.19,1.47-2.68,2.77-3.61,4.43Z"/>
    <path class="cls-4" d="m657.01,279.82c-.12.19-.41.18-.52-.02-.27-.5-.54-1.03-.95-1.4-.64-.58-1.26-1.13-1.8-1.8-.56-.69-1.05-1.43-1.46-2.2-.83-1.55-1.36-3.24-1.56-4.97-.17-1.44-.08-2.87.15-4.29.37-2.16.65-4.4,1.39-6.48.2-.56.4-1.13.75-1.62.56-.79,1.43-1.28,2.25-1.78.91-.56,1.78-1.18,2.66-1.79.41-.29.58-.66.8-1.08.03-.05.08-.08.14-.08h.27c.11,0,.19.09.16.19-.15.48-.06.89.3,1.2.58.58,1.13,1.19,1.68,1.8s1.06,1.2,1.36,1.93c.29.71.35,1.5.51,2.25.17.81.39,1.6.52,2.42.5,3.04.39,6.2-.61,9.13-.57,1.65-1.32,3.42-2.52,4.75-1.16,1.28-2.58,2.39-3.5,3.85Z"/>
    <path class="cls-4" d="m600.54,361.76c-.15.1-.35,0-.36-.19,0-.46-.01-.93-.17-1.34-.24-.64-.48-1.25-.62-1.92-.15-.69-.22-1.39-.24-2.09-.03-1.41.21-2.82.69-4.14.4-1.1.97-2.12,1.65-3.07,1.03-1.45,2.04-2.98,3.3-4.24.34-.34.69-.68,1.11-.92.68-.38,1.46-.45,2.22-.54.84-.1,1.68-.26,2.51-.4.39-.07.65-.28.95-.52.04-.03.08-.03.12-.01l.2.09c.08.03.1.13.04.19-.28.3-.36.62-.22.97.2.62.36,1.25.53,1.88s.32,1.23.26,1.86c-.05.62-.29,1.21-.45,1.81-.17.64-.3,1.3-.5,1.93-.74,2.38-1.95,4.65-3.71,6.44-.99,1.01-2.16,2.04-3.47,2.6-1.27.54-2.67.87-3.84,1.62Z"/>
    <path class="cls-11" d="m466.76,494.09c.26.41-.03.94-.51.95-1.22.01-2.49.02-3.58.43-1.7.64-3.35,1.26-5.13,1.63-1.84.38-3.72.58-5.59.6-3.76.05-7.52-.6-11.05-1.89-2.94-1.07-5.64-2.63-8.17-4.45-3.85-2.78-7.93-5.49-11.28-8.88-.91-.91-1.82-1.85-2.45-2.97-1.01-1.81-1.18-3.91-1.4-5.93-.24-2.25-.66-4.48-1.04-6.71-.18-1.06-.75-1.73-1.37-2.54-.07-.1-.09-.22-.04-.33l.24-.52c.09-.2.36-.26.52-.1.8.75,1.66.97,2.59.61,1.66-.53,3.34-.95,5.02-1.39s3.29-.83,4.98-.68c1.65.15,3.23.79,4.82,1.22,1.72.47,3.45.83,5.15,1.37,6.35,2.01,12.38,5.27,17.14,9.99,2.69,2.66,5.43,5.79,6.89,9.31,1.42,3.4,2.29,7.15,4.27,10.28Z"/>
    <path class="cls-5" d="m299.68,241.73c-.36.27-.88.05-.92-.4-.11-1.13-.21-2.31-.68-3.29-.73-1.53-1.43-3.01-1.91-4.64-.5-1.68-.82-3.41-.99-5.15-.34-3.49-.03-7.03.9-10.41.77-2.81,2-5.45,3.5-7.93,2.28-3.79,4.49-7.79,7.37-11.17.78-.91,1.57-1.83,2.57-2.5,1.6-1.08,3.54-1.4,5.4-1.76,2.07-.4,4.11-.96,6.15-1.49.97-.25,1.55-.83,2.25-1.47.08-.08.2-.1.31-.06l.5.18c.2.07.26.31.14.47-.64.8-.77,1.62-.37,2.46.62,1.5,1.14,3.03,1.68,4.55s1.02,2.99,1.02,4.57c0,1.54-.48,3.06-.76,4.57-.3,1.63-.5,3.27-.87,4.89-1.37,6.06-3.94,11.91-7.95,16.69-2.26,2.7-4.96,5.49-8.11,7.13-3.05,1.58-6.46,2.68-9.22,4.76Z"/>
    <path class="cls-5" d="m675.59,179.1c.05.32-.26.58-.56.45-.75-.31-1.54-.63-2.32-.66-1.22-.04-2.39-.09-3.59-.32-1.23-.24-2.44-.6-3.61-1.08-2.33-.94-4.49-2.31-6.34-4.02-1.53-1.42-2.81-3.08-3.89-4.86-1.66-2.71-3.48-5.44-4.67-8.39-.32-.8-.65-1.61-.74-2.47-.16-1.38.28-2.72.67-4.02.43-1.45.75-2.94,1.09-4.41.16-.7-.02-1.26-.19-1.92-.02-.08,0-.16.06-.22l.28-.26c.11-.1.29-.07.35.07.3.67.77,1.03,1.44,1.05,1.16.1,2.31.28,3.46.44s2.24.34,3.25.87c.98.52,1.79,1.32,2.66,2,.94.73,1.92,1.4,2.83,2.17,3.4,2.88,6.28,6.45,8,10.59.97,2.34,1.85,4.98,1.85,7.53,0,2.47-.44,5-.02,7.45Z"/>
    <path class="cls-12" d="m572.58,213.96c0,.21-.23.34-.41.23-.45-.28-.92-.57-1.42-.68-.78-.16-1.53-.32-2.27-.6-.77-.29-1.5-.66-2.2-1.09-1.39-.86-2.63-1.98-3.63-3.28-.83-1.08-1.46-2.29-1.97-3.55-.77-1.92-1.64-3.88-2.08-5.9-.12-.55-.24-1.11-.21-1.67.05-.9.48-1.72.87-2.51.43-.88.8-1.81,1.18-2.71.18-.43.13-.81.09-1.26,0-.05.02-.1.06-.13l.21-.14c.08-.05.19-.01.22.08.12.46.38.75.81.83.73.19,1.45.43,2.17.66s1.4.46,1.99.91c.57.44,1.01,1.05,1.49,1.58.52.57,1.08,1.11,1.58,1.71,1.87,2.22,3.33,4.83,3.97,7.68.37,1.61.65,3.4.36,5.04-.27,1.58-.83,3.16-.83,4.78Z"/>
    <path class="cls-5" d="m691.35,296.62c.1.3.49.38.69.14.51-.61,1.04-1.25,1.7-1.63,1.03-.59,2.02-1.17,2.95-1.92.95-.77,1.83-1.64,2.62-2.58,1.58-1.88,2.81-4.05,3.62-6.37.67-1.93,1.01-3.94,1.14-5.97.19-3.1.51-6.28.19-9.37-.09-.84-.18-1.68-.49-2.47-.49-1.26-1.49-2.22-2.41-3.17-1.03-1.05-1.99-2.19-2.96-3.31-.46-.53-.56-1.1-.71-1.75-.02-.08-.08-.14-.15-.16l-.36-.1c-.14-.04-.28.07-.27.22.05.72-.2,1.24-.77,1.56-.95.62-1.86,1.29-2.78,1.96s-1.78,1.32-2.41,2.24c-.61.89-.94,1.96-1.38,2.94-.47,1.06-1.01,2.09-1.45,3.17-1.62,4.04-2.47,8.44-2.05,12.79.23,2.46.68,5.14,1.85,7.34,1.13,2.12,2.66,4.11,3.43,6.42Z"/>
    <path class="cls-12" d="m437.5,102.83c3.11,2.19,5.94,4.8,9.16,6.83,3.07,1.92,6.68,2.79,10.21,3.29,2.82.4,5.67.6,8.51.47,1.47-.07,2.93-.21,4.39-.42,2.64-.37,5.26-.88,7.84-1.54,1.12-.29,2.09-.66,3.12-1.2,1.47-.77,3.09-.66,4.61-1.2,2.98-1.07,5.52-3.74,7.41-6.23,1.09-1.43,2.23-2.31,3.43-2.58.03,0,.05-.03.05-.06l.04-1s-.02-.05-.04-.06c-.17-.06-.84-.31-.91-.47s-.07-.34-.07-.51c-.02-1.43-.47-2.86-1.26-4.05-1.95-2.94-4.62-5.45-7.69-7.12-3.12-1.69-6.72-2.28-10.22-2.22-4.07.07-7.93,1.11-11.89,1.83s-7.38,1.63-10.96,3.08c-1.63.66-3.21,1.44-4.83,2.14-4.28,1.85-6.69,5.07-8.56,8.7-.8,1.06-1.58,1.81-2.35,2.32Z"/>
    <path class="cls-4" d="m526.01,132.61c-2.99,3.16-5.56,6.73-8.72,9.73s-6.86,4.65-10.7,6.01c-3.07,1.09-6.22,1.95-9.43,2.45-1.66.26-3.33.43-5.01.53-3.04.18-6.1.21-9.14.05-1.33-.07-2.49-.27-3.77-.64-1.82-.53-3.61-.03-5.44-.3-3.58-.52-7.03-2.94-9.72-5.3-1.55-1.36-3.03-2.08-4.43-2.12-.03,0-.06-.02-.06-.05l-.27-1.12s0-.06.03-.08c.18-.11.87-.54.91-.73s0-.39-.04-.59c-.3-1.61-.13-3.31.49-4.82,1.52-3.73,3.94-7.16,7.01-9.72,3.11-2.61,7.01-4.08,10.94-4.8,4.58-.84,9.13-.55,13.74-.64,4.4-.09,8.64.16,12.98.97,1.98.37,3.93.89,5.9,1.31,5.21,1.1,8.65,4.17,11.57,7.81,1.13,1.01,2.18,1.67,3.16,2.07Z"/>
    <path class="cls-10" d="m352.81,254.8c-.97-1.77-2.19-3.41-3.07-5.22s-1.09-3.68-1.15-5.57c-.05-1.51.01-3.02.24-4.51.12-.77.28-1.53.47-2.29.35-1.37.76-2.72,1.26-4.05.22-.58.47-1.06.81-1.58.49-.73.52-1.59.9-2.36.73-1.51,2.29-2.69,3.71-3.55.82-.49,1.35-1.04,1.56-1.66,0-.01.02-.02.03-.02l.53.04s.03.01.03.02c.02.1.11.46.2.51s.17.05.27.07c.75.09,1.48.41,2.06.9,1.44,1.2,2.61,2.75,3.31,4.47s.82,3.67.58,5.51c-.27,2.14-1.04,4.11-1.65,6.16s-1.28,3.79-2.25,5.6c-.44.82-.95,1.61-1.41,2.42-1.22,2.15-3.06,3.24-5.08,4.01-.61.36-1.04.73-1.36,1.1Z"/>
    <path class="cls-11" d="m379.96,292.17c2.05-1.51,4.31-2.74,6.28-4.36s3.19-3.64,4.26-5.78c.85-1.71,1.58-3.47,2.11-5.3.27-.95.49-1.9.67-2.87.32-1.75.56-3.52.69-5.3.06-.77.03-1.47-.1-2.23-.18-1.1.24-2.1.22-3.18-.04-2.12-1.2-4.3-2.37-6.03-.68-1-.99-1.91-.91-2.73,0-.02,0-.03-.03-.04l-.63-.24s-.04,0-.05.01c-.08.1-.37.47-.49.48s-.23-.03-.34-.06c-.91-.29-1.91-.31-2.84-.06-2.28.61-4.44,1.77-6.15,3.37s-2.88,3.78-3.58,6.01c-.82,2.6-.98,5.26-1.37,7.93s-.53,5.03-.38,7.6c.07,1.18.23,2.35.33,3.52.26,3.11,1.79,5.32,3.69,7.28.5.73.81,1.39.97,1.98Z"/>
    <path class="cls-12" d="m461.67,450.96c-.7-2.45-1.06-5-1.89-7.41s-2.3-4.27-3.92-6.02c-1.3-1.4-2.69-2.7-4.23-3.83-.79-.58-1.61-1.13-2.46-1.63-1.53-.92-3.1-1.76-4.72-2.5-.71-.32-1.37-.54-2.13-.69-1.09-.22-1.88-.96-2.9-1.32-2-.7-4.44-.38-6.48.12-1.17.29-2.13.26-2.87-.1-.02,0-.04,0-.05,0l-.44.51s-.01.03,0,.05c.06.11.31.51.27.63s-.11.2-.18.29c-.59.75-.96,1.68-1.05,2.63-.22,2.35.1,4.78,1,6.94s2.53,4.02,4.37,5.46c2.14,1.68,4.59,2.76,6.95,4.06s4.52,2.26,6.99,3.01c1.13.34,2.28.6,3.41.92,3,.84,5.62.18,8.12-.91.86-.22,1.58-.28,2.2-.22Z"/>
    <path class="cls-5" d="m467.81,417.69c-.58-2.02-.88-4.12-1.56-6.11s-1.89-3.52-3.24-4.96c-1.07-1.15-2.22-2.23-3.49-3.16-.65-.48-1.33-.93-2.03-1.35-1.26-.76-2.56-1.45-3.9-2.07-.58-.27-1.13-.44-1.76-.57-.9-.18-1.55-.79-2.4-1.09-1.65-.58-3.67-.31-5.34.1-.97.24-1.76.22-2.37-.08-.01,0-.03,0-.04,0l-.36.42s-.01.03,0,.04c.05.09.25.42.23.52s-.09.17-.15.24c-.49.62-.79,1.39-.87,2.17-.18,1.94.09,3.94.83,5.73s2.09,3.32,3.61,4.5c1.77,1.38,3.79,2.28,5.74,3.35s3.73,1.86,5.77,2.49c.93.28,1.88.5,2.82.76,2.48.69,4.63.15,6.7-.75.71-.18,1.31-.23,1.81-.18Z"/>
    <path class="cls-5" d="m703.18,400.83c-2.81.62-5.71.86-8.48,1.63-2.64.73-4.97,2.31-7.05,4.02-1.66,1.37-3.22,2.86-4.6,4.51-.71.85-1.38,1.74-2.01,2.66-1.14,1.66-2.19,3.38-3.14,5.16-.41.77-.7,1.5-.92,2.35-.32,1.22-1.21,2.06-1.68,3.19-.92,2.21-.73,4.99-.3,7.31.25,1.34.15,2.42-.31,3.23-.01.02,0,.04,0,.05l.54.53s.04.02.05,0c.12-.07.6-.31.73-.27s.22.13.32.22c.81.72,1.83,1.2,2.9,1.36,2.64.41,5.4.2,7.9-.67s4.7-2.59,6.45-4.57c2.03-2.31,3.42-4.99,5.04-7.57s2.85-4.95,3.86-7.69c.46-1.25.83-2.53,1.27-3.79,1.15-3.33.58-6.32-.49-9.22-.19-.99-.21-1.8-.1-2.49Z"/>
    <path class="cls-4" d="m293.59,320.4c5.29,3.12,11.02,5.53,16.15,8.93,4.87,3.23,8.56,7.97,11.65,12.83,2.47,3.89,4.65,7.94,6.35,12.21.88,2.21,1.65,4.45,2.31,6.73,1.21,4.13,2.22,8.32,2.96,12.56.32,1.85.42,3.52.31,5.39-.16,2.68,1.09,4.98,1.3,7.59.41,5.09-1.83,10.61-4.23,15.05-1.38,2.56-1.91,4.82-1.52,6.77,0,.04-.01.09-.05.11l-1.45.72s-.09.01-.12-.02c-.21-.22-1.01-1.03-1.3-1.02s-.54.13-.8.24c-2.12.92-4.52,1.22-6.8.85-5.62-.92-11.09-3.16-15.6-6.58-4.57-3.46-7.83-8.36-10.07-13.55-2.6-6.03-3.64-12.4-5.23-18.71-1.51-6.03-2.51-11.94-2.76-18.17-.11-2.85-.02-5.69-.06-8.53-.13-7.52,3.01-13.22,7.09-18.39,1.03-1.88,1.61-3.53,1.85-5Z"/>
    <path class="cls-12" d="m669.02,309.18c-1.04-1.47-2.29-2.79-3.25-4.31s-1.34-3.15-1.58-4.82c-.2-1.33-.3-2.68-.24-4.02.03-.69.09-1.39.19-2.08.17-1.25.4-2.49.71-3.71.13-.53.31-.99.56-1.48.36-.7.3-1.46.56-2.18.5-1.41,1.75-2.62,2.93-3.52.68-.52,1.09-1.06,1.21-1.63,0-.01.01-.02.03-.02l.47-.02s.02,0,.03.02c.03.08.15.4.23.43s.16.03.24.03c.68,0,1.35.21,1.92.58,1.39.92,2.59,2.17,3.39,3.62s1.1,3.17,1.08,4.82c-.02,1.92-.51,3.75-.84,5.63s-.75,3.49-1.43,5.19c-.31.77-.67,1.52-1,2.29-.86,2.03-2.38,3.18-4.09,4.07-.5.38-.85.75-1.09,1.12Z"/>
    <path class="cls-11" d="m619.08,211.24c-4.06-.45-8.19-.35-12.22-1.02-3.83-.63-7.36-2.5-10.56-4.61-2.56-1.68-4.98-3.55-7.18-5.67-1.13-1.1-2.21-2.25-3.23-3.45-1.86-2.18-3.61-4.44-5.22-6.81-.7-1.03-1.21-2.02-1.66-3.18-.63-1.67-2.02-2.72-2.86-4.25-1.64-2.98-1.78-6.93-1.53-10.28.14-1.93-.15-3.45-.92-4.52-.02-.02-.02-.06,0-.08l.68-.83s.05-.03.08-.02c.19.07.89.35,1.07.27s.29-.22.42-.36c1.04-1.14,2.41-1.97,3.89-2.36,3.66-.97,7.59-1.1,11.25-.26s7.03,2.94,9.8,5.47c3.22,2.95,5.58,6.53,8.26,9.93,2.56,3.24,4.77,6.55,6.62,10.27.84,1.7,1.56,3.45,2.36,5.16,2.13,4.53,1.78,8.84.71,13.08-.11,1.42-.02,2.58.24,3.54Z"/>
    <path class="cls-13" d="m562.4,294.92c0,8.61-1.81,16.8-5.07,24.2-.75-6.18-3.78-12.57-5.68-15.69-2.33-3.84-5.35-5.7-8-7.33-.54-.33-1.06-.65-1.59-1.01-.76-.5-1.52-.9-2.19-1.25-.31-.17-.69-.37-1.02-.57,1.12-1.5,4.61-7.08,4.61-18.04,0-8.15-4.5-16.93-14.38-16.93s-15.31,6.09-15.31,15.89c0,14.68,2.14,17.95,3.01,19.03-.43.23-.91.46-1.29.65l-.36.18c-.48.24-1.1.48-1.75.74-.29.12-.6.24-.92.37-1.77-1.56-4.26-2.74-7.77-3.17-3.56-5.17-8.02-6-11.01-6.56-.82-.15-1.59-.3-2.21-.5-.31-.1-1.28-.41-1.47-.47,2.13-3.06,3.21-10.27,3.21-21.48s-6.56-17.78-17.12-17.78-16.04,9.85-16.04,18.99c0,11.98,3.62,18.29,5.03,20.29-.51.28-1.24.61-2.21.9-5.43,1.59-9.29,4.51-12.13,9.19-2.73,4.48-5.03,12.23-5.67,18.66-1.85-5.77-2.85-11.93-2.85-18.32,0-33.2,26.91-60.1,60.1-60.1s60.1,26.9,60.1,60.1Z"/>
    <path class="cls-8" d="m485.42,307.88c0,4.99,1.07,9.07,3.25,12.41-2.7,1.37-4.84,3.38-6.48,6.09-2.37,3.9-4.38,11.45-4.38,16.49,0,.82,0,2.13.19,3.63-6.53-3.33-13.2-8.7-16.98-12.9-4.48-4.97-10.38-14.97-10.38-17,0-6.35,2.65-15.12,5.02-19.02,2.07-3.42,4.79-5.47,8.81-6.65,1.79-.53,6.05-2.08,6.85-5.24.27-1.06.25-2.66-1.38-4.34-.36-.46-4.13-5.67-4.13-17.16,0-4.9,2.17-13.21,10.26-13.21,9.37,0,11.33,6.53,11.33,12,0,15.32-2.15,18.14-2.17,18.17-1.08,1.32-2.44,3.3-1.84,5.31.64,2.16,2.94,2.9,5.38,3.68l.88.28c.98.32,1.97.51,2.94.69.46.08.91.17,1.36.27-5.67,2.42-8.54,7.95-8.54,16.49Z"/>
    <path class="cls-12" d="m551.71,321.81c-.17,1.85-6.53,10.34-10.64,14.18-2.73,2.54-7.73,6.84-13.16,9.75.03-1.43-.09-2.66-.18-3.5-.03-.35-.1-1.02-.1-1.28,0-3.77-2.08-11.34-4.89-15.8-1.93-3.09-4.29-4.57-6.48-5.38,1.63-3.03,2.35-6.85,2.35-12.18,0-1.71,0-4.96-1.21-8.24.08-.04.61-.3.61-.3,2.23-1.09,4.53-2.2,5.02-4.49.33-1.49-.22-3.09-1.69-4.88-.02-.02-1.81-2.42-1.81-15.51,0-4.61,1.65-10.11,9.52-10.11,6.79,0,8.59,7.01,8.59,11.16,0,10.24-3.49,14.64-3.53,14.68l-.09.11-.08.14c-1.08,1.82-1.4,3.38-1,4.79.58,2.07,2.51,3.09,4.2,3.99.58.31,1.19.63,1.71.98.57.38,1.16.74,1.74,1.1,2.3,1.42,4.49,2.77,6.09,5.42,2.01,3.31,5.01,10.13,5.01,15.37Z"/>
    <path class="cls-7" d="m519.22,348.97c-.33.27-.77.47-1.28.61l-1.8.47c-1.55.41-2.83.76-4.01,1.03-2.27.53-4.11.85-6.82.85-.76,0-1.57-.02-2.48-.07-2.39-.12-4.9-.27-7.23-.5-3.7-.37-6.34-.9-7.84-1.6l-.17-.07c-1.09-.57-2.15-1.91-2.15-6.81,0-3.96,1.78-10.09,3.25-12.52,1.26-2.07,2.85-3.26,5.3-3.98,1.57-.46,4.28-1.58,4.86-3.84.18-.7.27-2.08-1.12-3.47-.17-.17-.36-.34-.57-.54-1.64-1.55-4.13-3.89-4.13-10.63,0-5.41.66-10.28,8.66-10.28h.12c.15,0,.29,0,.43.02,1.57.04,2.89.24,4,.61l.33.12c.35.13.67.28.97.44.98.53,1.71,1.23,2.24,2.15,1.1,1.88,1.19,4.32,1.19,6.67,0,2.97-.25,5.24-.77,6.94l-.06.21c-.63,1.94-1.5,2.8-2.61,3.9l-.11.1c-.39.4-.72.77-1,1.16l-.35.48v.08c-.69,1.26-.53,2.28-.23,2.95v.17l.42.52c.78.96,2.07,1.44,3.53,1.92.39.12.79.23,1.24.32.23.05.48.09.73.14,1.77.33,3.17.59,4.5,2.71,2.12,3.39,3.72,9.47,3.72,11.76,0,.62.07,1.31.15,2.04.21,2.15.48,4.83-.93,5.97Z"/>
    <g id="paiche.psd">
      <path class="cls-12" d="m570.87,244.52c4.64,2.26,9.33,4.44,13.92,6.8,3.23,1.66,6.34,3.55,9.48,5.38,1.03.6,1.97,1.24,1.69,2.77-.17.91-.13,1.98.2,2.83.36.92,1,1.94,1.81,2.41.95.55,1.93-.07,2.57-1.02.16-.24.42-.41,1.1-1.07.61,2.44,1.39,4.5,1.62,6.61.68,6.37,2.65,12.37,5.86,17.82,2.4,4.08,6.08,7.14,10.83,8.53,1.65.48,2.8-.26,3.11-1.98q1.82.53,1.7,4.33c3.04,1.84,6.13,1.55,9.22.1.98-.46,1.99-1,2.77-1.73,3.29-3.09,3.59-7.02,2.84-11.17-.25-1.41-1.04-1.24-2.09-.72-2.08,1.04-2.88.44-2.83-2.1l1.25,1.08c.28-.25.53-.41.69-.63,4.23-6.07,3.92-12.6,1.76-19.27-.82-2.54-1.64-5.13-2.9-7.47-1.78-3.32-4.29-5.93-7.73-7.87-3.12-1.76-5.69-4.49-8.59-6.67-4.65-3.48-9.3-6.97-14.09-10.25-6.88-4.7-14.48-8.01-22.48-10.09-4.33-1.13-8.96-1.19-13.47-1.46-4.34-.26-8.63-.58-12.77-2.1-2.39-.88-4.94-1.35-7.3-2.29-3.64-1.44-7.17-3.16-10.78-4.67-.31-.13-.66-.19-1.01-.22-.83-.07-1.57.55-1.62,1.38-.02.36,0,.71.11,1.02,2.19,5.64,5.12,10.71,9.49,15.13,4.32,4.36,9.56,7.14,14.52,10.44,1.19.79,2.48,1.43,3.66,2.22.41.28.74.76.97,1.22,1.25,2.44,2.38,4.94,3.72,7.32.39.69,1.52,1.62,2.02,1.47,1.06-.31,1.5-1.42,1.16-2.65-.28-1.03-.52-2.08-.78-3.12l.37-.3Z"/>
    </g>
    <g id="rana2.psd">
      <path class="cls-11" d="m673.54,230.67c-2.12-1.24-4.14-2.46-6.19-3.63-.63-.36-1.33-.6-2.01-.86-.91-.35-1.89-.55-2.74-1-1.22-.65-2.34-1.46-3.51-2.2-.12-.08-.21-.23-.34-.29-.3-.14-.56-.14-.53.31.04.57.02,1.16.14,1.71.18.83-.2,1.25-1.01,1.61-.57.26-1.3.18-1.58-.34-.15-.28-.12-.77.03-1.06.57-1.14.78-2.29.45-3.55-.14-.54-.44-.86-.91-1.04-.13-.05-.35,0-.46.09-1.64,1.44-3.67,1.85-5.72,2.04-2.58.24-5.18.32-7.78.39-.73.02-1.49-.17-2.2-.4-.79-.25-1.03-.93-.9-2.05.04-.33.04-.68,0-1.01-.1-.84.19-1.16.95-.85.95.4,1.88.3,2.87.24,1.02-.05,2.01-.05,3.01-.36,1.28-.4,2.6-.67,3.89-1.04.38-.11.72-.34,1.05-.49-1.31-.82-2.6-1.58-3.84-2.42-.7-.47-1.07-1.2-1.26-2.03-.06-.25-.19-.53-.38-.7-2.98-2.73-5.99-5.43-8.95-8.18-1.18-1.1-2.17-2.38-2.8-3.89-.76-1.84-.45-3.55.67-5.11.53-.74,1.16-1.4,1.8-2.05.22-.22.6-.4.91-.41,1.84-.04,3.58-.47,5.3-1.14,1.37-.53,2.8-.91,4.21-1.32.54-.16.74-.47.82-1.01.25-1.61.69-3.16,1.89-4.36.84-.84,1.87-1.37,3.02-1.64.97-.23,1.97-.4,2.96-.51,1.86-.2,3.36.66,4.74,1.78,1.47,1.2,2.43,2.78,3.07,4.55.3.82,1.24,1.23,2.04,1.23.31,0,.63.17.94.26.3.09.6.18.88.3.62.27,1.28.51,1.85.87.75.48,1.44,1.06,2.15,1.6.48.37,1.03.49,1.61.64.88.23,1.78.41,2.52,1.16.62.64,1.32,1.33,2.53,1.22.66-.06,1.48,0,2.18.17.65.16,1.21.68,1.82,1,.23.12.51.18.78.2.49.03.99-.08,1.46,0,.88.16,1.77.33,2.6.66,1.25.49,2.51.41,3.8.32,2.07-.14,4.12-.08,6.19.2,1.4.19,2.37.96,3.32,1.86,1.27,1.2,2.53,2.41,3.81,3.61,1.36,1.28,2.69,2.59,4.11,3.79.65.55,1.47.98,2.28,1.26,1.07.37,2.22.53,3.33.78.11.02.21.05.32.08,1.58.48,3.16.98,4.75,1.43,1.38.4,2.78.72,4.15,1.14.52.16,1.03.44,1.46.77.97.74,1.12,2.2.46,3.4-.55,1-1.41,1.57-2.48,1.73-1.06.16-2.15.12-3.23.17-.34.02-.67.05-1.14.09.45.49.8.87,1.17,1.25.47.48.54,1.02.4,1.66-.26,1.14-.86,2.09-1.51,3.03-.08.11-.14.24-.24.41,1.97-.24,3.85-.47,5.74-.7.61-.07,1.23-.18,1.85-.15.42.02.91.15,1.23.41,1.02.84,1.36,2.09,1.8,3.29.58,1.61-.04,2.84-1.19,3.87-2.77,2.48-5.52,4.98-8.37,7.36-2.43,2.03-4.98,3.91-7.48,5.85-.86.67-1.75,1.31-2.63,1.95-.18.13-.41.25-.62.27-4.78.31-9.56.65-14.34.9-4.1.21-8.22.28-12.32.5-.8.04-1.56.51-2.36.73-.92.25-1.85.47-2.65-.33-.54-.54-.56-.7-.09-1.19-.29-.23-.57-.48-.88-.69-.21-.14-.45-.27-.69-.3-2.14-.33-4.23-.81-6.27-1.55-1.41-.51-2.84-.6-4.28.13-.61.31-1.4.3-2.11.4-.14.02-.32-.1-.45-.19-.7-.49-.94-1.26-1.17-2.02-.12-.4.81-.98,1.33-.83.61.17,1.21.37,1.82.54.1.03.21,0,.31-.02.86-.13,1.73-.26,2.56-.38-.41-.3-.95-.69-1.48-1.07-.72-.52-1.46-1.02-2.16-1.57-.5-.4-1-.82-1.39-1.31-.76-.93-1.68-1.3-2.87-1.21-.78.06-1.51-.24-2.13-.72-.21-.16-.3-.47-.48-.77-.41-.02-.99.02-1.52-.11-.98-.24-1.28-.97-.84-1.87.75-1.54,1.93-1.75,3.2-.61.19.17.51.31.77.3,1.11-.02,1.91.66,2.8,1.15,1.53.84,3.06,1.69,4.63,2.45.59.28,1.32.26,1.93.49,1.12.43,2.23.89,3.3,1.43,1.2.61,1.78.24,2.04-1.08.31-1.54.86-3.04,1.36-4.53.35-1.03.8-2.03,1.16-2.92Zm-23.71-11.03c-2.29-.17-4.44.36-6.54,1.16,1.11,1.04,6.07.17,6.54-1.16Z"/>
    </g>
  </g>
</svg>