<?xml version="1.0" encoding="UTF-8"?>
<svg id="Capa_1" data-name="Capa 1" xmlns="http://www.w3.org/2000/svg" viewBox="0 0 1080 1080">
  <defs>
    <style>
      .cls-1 {
        fill: #ea1c26;
      }

      .cls-1, .cls-2, .cls-3, .cls-4, .cls-5, .cls-6, .cls-7, .cls-8, .cls-9, .cls-10, .cls-11 {
        stroke-width: 0px;
      }

      .cls-2 {
        fill: #becc30;
      }

      .cls-3 {
        fill: #6b3713;
      }

      .cls-4 {
        fill: #f80f18;
      }

      .cls-5 {
        fill: #6eaf1e;
      }

      .cls-6 {
        fill: #b52568;
      }

      .cls-7 {
        fill: #18a2c7;
      }

      .cls-8 {
        fill: #b72b6c;
      }

      .cls-9 {
        fill: #17a1c8;
      }

      .cls-10 {
        fill: #ea1e28;
      }

      .cls-11 {
        fill: #cbda35;
      }
    </style>
  </defs>
  <path class="cls-8" d="m529.88,74.96c-.31-.21-.28-.68.06-.83.86-.39,1.75-.8,2.4-1.43,1-.99,1.97-1.95,3.12-2.77,1.18-.85,2.45-1.58,3.77-2.19,2.65-1.22,5.52-1.95,8.42-2.15,2.42-.17,4.82.08,7.19.57,3.61.75,7.35,1.38,10.79,2.72.93.36,1.87.73,2.67,1.33,1.29.96,2.07,2.4,2.87,3.76.88,1.51,1.89,2.96,2.86,4.42.46.69,1.08.99,1.77,1.36.08.04.13.13.13.22v.44c0,.17-.18.29-.34.24-.8-.28-1.48-.16-2.03.39-1.01.9-2.06,1.73-3.11,2.57s-2.07,1.63-3.31,2.05c-1.21.42-2.54.46-3.8.66-1.36.21-2.71.5-4.08.66-5.13.59-10.43.18-15.29-1.66-2.74-1.04-5.67-2.38-7.82-4.41-2.08-1.96-3.88-4.34-6.27-5.93Z"/>
  <g>
    <path class="cls-3" d="m626.08,1014.48h33.18c.53-14.59,1.33-29.2,1.08-43.78-1.48-87.61-9.82-174.34-78.97-238.05-49.22-45.35-79.34-97.25-84.28-164.3-19.93,64.81-8.26,125.73,28.62,179.13,56.1,81.23,94.59,167.7,100.37,267Z"/>
    <path class="cls-3" d="m552.6,1014.48h58.75c-.04-4.85-.69-10.34-1.92-16.52-10.04-50.38-19.55-100.58-42.87-148.41,8.02,55.54,1.71,109.79-13.95,164.92Z"/>
    <path class="cls-3" d="m538.55,528.41c0,.3-3.68,2.17-4.11,2.47-3.06,2.08-5.9,4.46-8.69,6.9s-5.38,4.57-7.47,7.42c-3.88,5.28-3.75,11.27-3.98,17.53-.22,6.09-.06,12.2.49,18.28,1.08,12.03,3.69,23.9,7.77,35.27,4.17,11.62,9.85,22.67,16.74,32.9,2.57,3.82,5.31,7.53,8.2,11.11-9.26-39.44-9.95-89.61-8.94-131.88Z"/>
  </g>
  <g id="aguila.psd">
    <path class="cls-1" d="m329.15,263.06l-14.06,9.05c.42-5.11.74-9.07,1.18-14.59-2.13,1.1-4.04,2.2-6.04,3.09-7.73,3.44-3.49-4.57-6.64-7.91-1.06-1.12-2.81-1.28-4.03-2.22-1.61-1.24-1.95-3.48-2.67-5.39-1-2.62-3.13-5.1-5.64-6.4-2.04-1.06-5.45-.81-6.61-3.16-.46-.93-.37-2.04-.75-3-.59-1.48-2.13-2.29-3.37-3.28s-2.32-2.69-1.56-4.09c-1.31-.66-2.62-1.32-3.93-1.98-.29-.15-.6-.31-.76-.59-.2-.35-.14-.78-.07-1.18.89-5.09,1.21-10.92-2.21-14.79-.63-.72-1.41-1.39-1.64-2.32-.34-1.39.66-2.72,1.59-3.8-1.26-.35-2.53-.65-3.81-.91-1.56-.32-2.01-2.38-.72-3.32,1.13-.81,2.31-1.56,3.53-2.27,1.44-.84,4.24-1.98,4.2-4.02,0-.37-.16-.73-.3-1.07-.41-.97-.83-1.95-1.24-2.92-.24-.56-.5-1.15-.99-1.52-.98-.74-3.85.3-4.96.48.52-1.97,2.89-2.9,4.91-2.7s3.87,1.2,5.82,1.8c4.08,1.26,6.3-.89,9.13-3.47-5.03-1.04-10.48-2.62-16.04-3.18-6.69-.68-13.49-.24-20.2-.81-3.14-.26-6.18-1.74-9.59-2.76l1.36-5.52c-.74-.42-1.7-.73-2.34-1.36-1.23-1.21-2.27-2.6-3.4-3.92,1.23-.58,2.41-1.49,3.7-1.69,2.56-.39,5.18-.4,8.77-.63-5.21-2.6-11.38-1.15-13.55-6.39,3.37-10.48,9.05-16.89,22.33-11.07-3.69-4.96-10.12-4.18-8.99-11.05l9.69,1.25c-.03-5.5.06-5.54,7.73-3.06,4.15-3.72,6.95-3.67,11.05.06,7.73,7.05,15.49,14.05,23.33,21.15l3.52-7.06q-4.78-5.58-1.25-8.06c-5.03-3.59-.18-7.07.94-9.67,1.98-4.59,5.26-9.59,9.4-12.04,3.73-2.2,6.36-5.41,10.47-7,2.51-.98,5.14-1.67,7.57-2.85,3.41-1.66,8.36-7.22,12.44-5.16,4.23,2.13,8.26,4.66,12.85,7.31-.84-.48-1.68-4.5-1.98-5.46-.62-1.97-.81-3.84-.47-5.91-.06.36,6.05,1.6,6.6,1.65,3.51.31,7.82-.12,10.3-2.9.91-1.02,1.82-2.41,3.18-2.33.76.04,1.4.56,1.96,1.08,1.5,1.41,2.78,3.02,4.06,4.63.8-2.35,1.92-5.15,3.66-6.96.44-.46,5.61-3.13,5.65-2.28.22,5.48.42,10.75.67,17.08,5.21-6.42,4.7-16.49,15.45-17.18-1.42,8.68-6.45,16.5-4.02,26.18,6.69-7.71,9.01-19.77,22.81-18.27-5.9,8.14-11.7,15.75-13.94,26.09,7.41-7.44,10.61-18.78,24.42-19.33-5.6,8.33-10.57,15.72-16.04,23.84,8.55-5.56,13.7-15.92,26.94-12.83-7.16,6.83-13.46,12.83-19.75,18.83,7.68-3.31,13.68-10.85,24.71-7.2-6.97,5.46-13.37,10.49-19.78,15.51,6.24-1.59,11.8-5.94,20.21-2.88-8.26,5.48-15.66,10.38-22.39,14.85l14.06-2.81.77,1.31c-5.68,6.74-13.28,10.06-21.74,11.93-5.31,1.17-10.52,2.84-15.87,3.72-3.75.61-7.67.16-11.5.36-2.04.1-4.58-.1-5.99,1-6.59,5.11-12.97,10.5-19.16,16.1-1.05.95-3.8,3.75-.48,4.92,1.56.55,4.13-1.79,5.2-2.31,3.58,3.97,7.42,7.86,10.82,12.11,2.42,3.03,4.43,6.43,6.23,9.87.59,1.13-.08,2.92-.22,5.22-11.88-7.35-23.62-6.79-35.86-3.47-3.17,14.93-5.21,30.24-.68,45.74,1.71,5.87,2.86,11.92,4.57,17.79,2.93,10.09,10.04,16.3,19.68,21.04-1.43.3-3.12,1.25-4.24.8-5.88-2.37-11.91-4.47-17.79-6.74-5.68-2.2-9.94-4.97-13.28-9.75-.29-.41-1.25-.33-1.89-.51-9.54-2.59-12.59-6.27-13.04-16.51Z"/>
  </g>
  <g id="bufeo_colorado.psd" data-name="bufeo colorado.psd">
    <path class="cls-11" d="m399.89,479.49c-1.45,1.95-1.39,1.9.26,4.09,1.07,1.42,2.09,2.88,3.09,4.35.85,1.25,1.95,2.47,2.07,4.05,0,.05,0,.1-.02.15-.03.05-.09.08-.14.1-.86.32-1.87.35-2.7-.06-.33-.16-3.91-2.18-3.92-2.15-1.04,1.5-.74,2.99.06,4.51.92,1.75,1.59,3.66,1.57,5.67,0,.15-3.81-.81-4.14-.93-1.36-.5-2.65-1.19-3.94-1.84-2.62-1.32-5.16-2.81-7.6-4.45-1.69-1.13-3.33-2.34-4.92-3.6-4.77-3.8-8.45-8.56-11.1-14.06-1.54-3.18-2.79-6.5-4.37-9.66-.52-1.05-1.68-1.78-2.53-2.68-3.86-4.05-7.75-8.07-11.55-12.17-4.46-4.81-9.26-9.22-14.61-13.05-3.06-2.19-5.73-4.8-7.86-7.96-3.07-4.54-7.16-7.92-11.97-10.56-3.88-2.13-7.61-4.55-11.39-6.86-1.72-1.05-3.56-1.98-5.03-3.31-.77-.69-1.06-2.11-1.19-3.24-.08-.71.48-1.54.87-2.25.39-.71,2.94-.85,4.02-.35,5.31,2.44,10.63,4.87,15.94,7.31,1.21.55,2.38,1.24,3.63,1.65,1.12.36,3.23.41,4.24-.09.63-.59,1.22-1.17,1.83-1.71,2.33-2.07,5.09-3.02,8.06-2.11,2.99.92,5.86,2.26,8.72,3.56,4.82,2.19,9.55,4.58,14.39,6.72,2.68,1.18,5.49,2.08,8.27,3.02,4.48,1.51,8.93,3.1,13.54,4.19,4.72,1.11,9.45,2.14,14.21,3.08,4.93.98,9.88,1.84,14.84,2.63,1.59.25,3.19.52,4.79.7,2.54.29,5.07.41,7.6.86,2.2.39,4.38.9,6.52,1.52,1.76.51,3.42.93,4.61,2.46,1.72,2.15,3.08,4.6,4.9,6.65,2.67,3.01,5.49,5.9,8.47,8.61,4.56,4.15,9.38,8.02,13.94,12.19,2.1,1.92,3.83,4.23,5.71,6.38,2.05,2.34,4.16,4.65,6.1,7.08,1.12,1.4,2.02,2.99,2.93,4.55,1.1,1.88,2,3.89,3.2,5.69.77,1.16,1.89,2.11,2.95,3.04,3.32,2.92,7.01,5.49,9.96,8.74,3.04,3.34,5.4,7.3,7.98,11.05.44.64.6,1.58.59,2.38-.01.99-.44,1.78-1.72,1.15-1.59-.79-3.2-1.06-4.98-.47-.77.25-1.7.02-2.76,0,1.5,4.2-.6,7.53-2.25,10.88-1.18,2.38-1.46,4.78-1.31,7.35.06,1.05.59,2.36-.63,3.1-.38.23-1.35.13-1.59-.17-1.4-1.77-2.85-3.54-3.94-5.51-1.12-2.03-1.77-4.31-2.78-6.41-2.41-5-2.95-10.43-3.88-15.78-.16-.9-.57-1.27-1.39-1.76-2.41-1.41-4.69-3.05-6.93-4.74-2.56-1.93-4.88-4.21-7.55-5.98-5.8-3.84-11.8-7.36-18.18-10.19-3.61-1.6-7.48-2.08-11.3-2.51-7.69-.88-15.41-1.45-23.11-2.15-2.19-.2-4.38-.44-6.57-.66Z"/>
  </g>
  <g id="caimancrocodilus.psd">
    <path class="cls-7" d="m682.96,698.47c-3.79.68-7.6,1.33-11.38,2.07-6.69,1.31-13.22,2.98-20.02,3.84-7.06.89-14.17,1.34-21.28,1.47-8.25.16-16.58-.12-24.63-1.94-5.64-1.28-11.15-3.35-16.06-6.43-4.4-2.75-7.19-6.29-9.42-10.98-2.15-4.52-3.5-9.37-4.81-14.19-.43-1.56-.86-3.15-.99-4.77s.14-3.05-.8-4.47c-.1-.16-.09-.57.04-.67,1.24-1.09,1.11-2.72,1.68-4.05.59-1.36,1.14-2.8,1.86-4.03.91-1.55,1.95-3,2.55-4.73.29-.84.86-1.6,1.36-2.37.42-.64.91-1.23,1.39-1.82.59-.72,1.14-1.48,1.82-2.1,1.14-1.03,1.81-2.28,2.2-3.73.05-.17.23-.41.38-.42,1.85-.18,1.98-1.68,2.53-3,.35-.84,1.12-1.73,1.93-2.1,1.15-.52,1.6-1.42,2.14-2.38.61-1.09,1.37-1.95,2.83-1.94.39,0,.85-.53,1.16-.92.87-1.12,2.07-1.57,3.29-2.19,1.39-.71,3.03-1.02,4.14-2.53.91-1.25,2.24-2.61,4.28-2.22.35.07.83-.3,1.18-.57,1.3-.98,2.45-2.23,4.34-1.94.26.04.62-.3.88-.53,1-.87,1.92-1.85,2.99-2.64.89-.66,1.92-1.14,2.92-1.63,2.48-1.22,5.13-2.13,7.22-4.04.1-.09.27-.11.42-.12,2.16-.22,4.05-1.24,6.05-1.93,1.78-.61,3.17-1.68,4.77-2.48,1.19-.59,2.63-.67,4.36-1.06,1.03-2.25,3.55-2.27,6.07-2.27,1.29-2.46,2.56-2.94,5.45-2.55.72.1,1.64-.59,2.33-1.11,1.91-1.44,3.39-1.63,5.53-.42.41-.42.84-.9,1.3-1.36,1.6-1.63,3.99-1.74,5.92.14,3.09-2.74,5.73-2.38,7.67-1.06,2.37-2.58,3.64-2.79,6.36-1.03,2.19-1.81,4.44-1.94,6.72-.22,2.15-2.07,3.74-2.19,5.95-.45.68.54,1.25.67,1.86-.13.25-.33.71-.7,1.07-.69,1.98.03,3.97.17,5.95.28.32.02.76.27.94.14,1.34-.99,2.67-.53,4.07-.01.26-1.38.78-2.48,2.18-3.08.61-.26.93-1.13,1.5-1.57.42-.33,1.08-.34,1.55-.62.99-.58,2-1.18,2.87-1.91.77-.64,1.06-1.9,2.46-1.69.19.03.44-.48.69-.7.71-.63,1.45-.87,2.46-1.06,1.33-.24,2.91-.18,4.15-1.58,2.12-2.39,4.76-4.26,7.81-5.44.43-.17.88-.57,1.08-.98.96-1.93,2.14-3.66,4.32-4.24,1.03-.28,2.2-.27,3.27-.15,2.44.29,4.86.99,7.29,1.02,1.9.02,3.82-.68,5.7-1.16,1.89-.48,3.75-1.09,5.63-1.62,3.47-.98,6.63-2.47,9.07-5.26,1.11-1.27,2.63-1.02,4.09-.81,1.37.2,2.15,1.18,2.51,2.34.48,1.56.47,3.18-.45,4.65-1.49,2.38-2.91,4.82-4.56,7.08-2.23,3.06-4.41,6.23-7.07,8.89-3.75,3.75-7.36,7.78-12.24,10.21-1.16.58-2.21,1.13-2.22,2.67,0,.33-.47.64-.67.99-.42.72-.81,1.45-1.2,2.19-.13.25-.16.61-.36.76-1.87,1.46-2.98,3.72-5.36,4.7-.92.38-1.64,1.55-2.18,2.52-2.01,3.64-4.52,6.87-7.56,9.71-.27.26-.37.69-.62.99-.88,1.05-1.77,1.99-3.11,2.64-2.96,1.44-5.38,3.61-7.29,6.37-2.06,2.99-5.43,4.37-8.34,6.31-1.52,1.02-3.04,2.04-4.6,3.09,1.92.78,3.64,1.54,5.41,2.16,1,.36,2.07.59,3.12.72,2.18.28,4.15,1.04,6,2.19,2.1,1.31,2.92,3.45,3.93,5.48-.09.1-.19.19-.28.29-.81-.45-1.63-.9-2.39-1.32.08.65.16,1.33.23,1.85-3.21-.72-6.33-1.42-9.61-2.16.26,2.44,3.26,3.61,2.34,6.12-1.87-1.22-3.62-2.49-5.48-3.56-2.47-1.42-3.39-1.27-5.56.49-.56.45-1.13.89-1.7,1.34-.91-1.16-.59-2.51,1.07-4.9-2.58-.39-5.17-.87-7.77-1.16-2.76-.31-6.24-4.23-4.26-7.52.39-.66.62-1.41,1.02-2.34-2.07.85-3.91,1.7-5.8,2.36-4.18,1.46-8.33,3.07-12.6,4.17-8.29,2.14-16.67,3.91-24.98,5.94-2.6.64-5.14,1.57-7.68,2.45-.72.25-1.33.81-2.22,1.38,3.99-.21,7.62-.68,11.22-.5,2.42.12,4.84,1.05,7.18,1.84,1.63.55,3.35,1.21,4.18,2.98.23.49.37,1.03.55,1.55-.52-.09-1.05-.17-1.57-.26-.19-.03-.37-.06-.76-.13.55.9,1.02,1.67,1.48,2.44-.1.11-.2.23-.3.34-1.05-.35-2.07-.81-3.14-1.02-1.04-.21-2.14-.16-3.26-.23.59,1.28,1.06,2.3,1.55,3.34-.48.17-.6.26-.66.23-3.84-1.98-7.88-1.75-11.88-.8-3.12.74-6.12,1.96-9.22,2.8-1.39.38-2.89.48-4.34.5-1.41.02-2.9-1.6-3.13-3.33-.35-2.55-.58-5.12-.87-7.68-.04-.38-.13-.76-.2-1.13-4.49,1.03-8.94,2.01-13.36,3.09-.96.24-1.81.91-2.75,1.31-1.91.82-3.93,1.42-5.73,2.42-2.08,1.15-4.38,1.99-5.78,4.25-.82,1.33-2.38,2.18-3.39,3.42-.74.91-1.18,2.08-1.65,3.18-.5,1.19-.34,2.34-.02,3.63.48,1.9.66,3.86,1.82,5.51.36.5.74,1.01,1.21,1.41,1.24,1.05,2.7,1.89,3.78,3.07,2.01,2.19,4.74,3.37,6.96,5.24.29.25.89.42,1.22.3,1.29-.47,2.36,0,3.48.5.41.18.93.29,1.35.21,1.56-.31,2.96-.01,4.35.71.52.27,1.36.51,1.77.27,1.44-.82,2.69-.03,4.03.17.84.13,1.71.28,2.53.16,1.54-.24,2.84.26,4.16.93.41.21,1.03.35,1.43.2,1.8-.66,3.5-1.08,5.2.29.29.23.93.05,1.41,0,1.23-.1,2.57-.57,3.67-.24,1.22.37,2.3.36,3.25-.19,1.08-.62,2-.27,2.9.08,1.39.54,2.67.92,4.14.12.51-.28,1.32-.02,1.99-.02,1.3,0,2.6-.05,3.91-.02,2.31.06,4.62.11,6.91.3,1.01.08,1.97.62,2.98.74.94.12,1.96-.27,2.85-.04,2.2.58,4.34,1.37,6.51,2.08-.02.32-.03.63-.05.95Z"/>
  </g>
  <g id="guacamayo.psd">
    <path class="cls-8" d="m394.97,683.3c15.1,12.62,29.64,24.16,47.04,31.41,3.91,1.63,7.76,3.7,11.85,4.58,4.94,1.07,7.56,4.56,11.53,8.5-16.13-.45-27.8-9.52-40.61-15.51-.31,1.08-.61,2.14-.91,3.2-1.52-.45-3.29-.55-4.51-1.42-10.09-7.24-20.07-14.62-30.09-21.96-.63-.46-1.3-.86-2.47-.66,5.24,4.65,10.48,9.3,15.95,14.15-3.56,1.4-5.42.74-20.97-10.43-6.47-4.65-12.09-10.49-18.02-15.72-.16,1.66-.34,3.42-.51,5.17-1.76-1.01-3.78-1.74-5.25-3.08-9.46-8.63-17.91-18.04-23.86-29.6-1.93-3.75-5.55-6.62-9.16-9.32.87,2.19,1.74,4.39,2.62,6.58-.33.16-.66.33-.99.49-.62-.92-1.24-1.84-1.86-2.75-.4-.02-.81-.05-1.21-.07-.08,2.22-.15,4.44-.25,7.26.48.3,1.37.85,2.22,1.38-.83,2.15-3.16,1.14-4.95-1.97-.35-.6-.65-1.23-1.37-2.58-1.41,1.77-2.51,3.17-3.84,4.84.68-6.71,1.34-13.15,2.05-20.12-7.4-3.17-14.41-7.51-19.65-14.22-1.48-1.9-3.04-3.77-4.38-5.77-5.8-8.66-12.52-10.78-22.04-7.08-2.43.94-5.08,1.29-7.77,1.95.1.48.28,1.4.47,2.32l-1,.88c-2.52-2.42-6.04-4.42-7.32-7.37-1.8-4.17-2.09-9.03-2.65-13.64-.14-1.11.9-2.74,1.88-3.54,5.26-4.32,11.2-6.88,18.17-7.23,6.65-.34,13.29-1.07,19.87-2.07,1.61-.24,3.88-1.98,4.26-3.44,2.34-9.18,4.6-18.41,6.12-27.75.78-4.76-.18-9.79-.07-14.69.05-2.2.44-4.55,1.32-6.55,1.64-3.72,4.06-4.39,7.65-2.71,2.84-3.99,5.46-8.14,8.57-11.89,1.96-2.36,4.5-4.33,7.08-6.03,1.29-.85,3.25-.68,4.91-.98-.02,1.76-.01,3.53-.07,5.29-.01.36-.24.72-.19.57,1.84.53,4.54.56,5.06,1.64.81,1.66.13,4.04.07,6.4,4.45,1.71,5,3.11,2.51,8.5,1.81,1.79,3.66,3.62,5.49,5.43,2.58-.73,5.67-2.73,7.92-2.02,6.4,2.01,11.27-1.39,16.64-3.24,5.6-1.92,11.16-4.02,16.86-5.63,6.68-1.89,13.49-3.3,20.23-4.97,4.67-1.16,9.31-2.39,13.96-3.62,1.29-.34,2.54-.81,3.81-1.22l.59,1.01c-4.16,3.18-8.32,6.37-12.47,9.55,0,.22,0,.43.01.65,4.76-.97,9.52-1.93,14.28-2.9.27.38.54.75.81,1.13-2.08,1.92-4.16,3.83-6.73,6.2,2.43-.24,4.15-.41,5.86-.58.21.42.42.84.64,1.26-5.06,3.31-10.13,6.61-16.02,10.46,4.28-.8,7.82-1.46,12.35-2.31-5.08,5.99-11.24,8.94-17.68,12.54,2.23.7,3.85,1.2,5.82,1.82-3.27,6.09-9.3,7.57-14.69,10.46,2.37,1.13,4.35,2.07,7.64,3.63-3.1,2.67-5.38,5.02-8.05,6.78-1.52,1.01-1.72,2.25-2.48,3.52-2.9,4.84-6.72,9.14-10.32,13.54-.38.46-1.64.13-2.46.33-2.22.53-3.44,1.45-2.48,4.18,2.52,7.15.42,13.73-3,20.06-.45.84-1.13,1.97-.9,2.71,1.31,4.18-1.36,7.21-3.32,10.03-1.13,1.62-4.19,1.88-7.1,3.04-2.55,5.88-2.65,5.89-15.62.42.52,1.21.73,2.74,1.6,3.59,10.15,9.94,20.73,19.45,30.55,29.7,18.68,19.49,42.88,29.09,67.27,38.36,4.85,1.84,10.27,2.2,15.43,3.25,1.46.3,2.92.64,4.35,1.96-.83.15-1.7.54-2.5.42-5.06-.74-10.08-2-15.17-2.34-17.56-1.16-32.25-9.62-47.05-17.9-1.36-.76-2.65-1.63-4.05-2.29-1.39-.65-2.88-1.1-5.28-2Z"/>
  </g>
  <g id="manati.psd">
    <path class="cls-2" d="m584.52,212.72c1.05,2.15,2.02,4.12,2.96,6.1,1.12,2.37,2.39,4.69,3.29,7.14.96,2.62,1.37,5.46,1.07,8.2-.21,1.96-1.59,3.74-3.71,4.25-1.97.47-4.02.69-6.05.78-1.57.07-2.86-.81-3.87-2.02-.57-.69-2.88-.66-3.69-.39-3.1,1.03-3.14,4.14-4.48,6.35-.81,1.33-1.44,2.78-2.31,4.07-.67.99-1.58,1.83-2.41,2.71-1.38,1.45-4.11,1.59-5.91.63-.88-.46-2.06-.31-3.08-.54-1.55-.34-3.11-.68-4.62-1.19-.95-.32-1.11-2.52-.31-3.82,1.07-1.74,2.26-3.41,3.31-5.16.74-1.22,1.43-2.49,1.93-3.82.22-.59-.08-1.38-.15-2.08-.78.19-1.71.17-2.32.6-1.33.94-2.42,2.23-3.76,3.16-2.25,1.57-4.54,3.11-6.96,4.41-2.63,1.42-5.37,2.65-8.13,3.78-3.79,1.54-7.7,2.8-11.47,4.38-3.61,1.51-7.25,3.05-10.62,5.02-2.42,1.42-4.41,3.58-6.61,5.38-1.37,1.12-2.73,2.28-4.2,3.28-3.89,2.65-7.72,5.43-12.2,7.05-1.86.67-3.78,1.18-5.7,1.69-4.03,1.07-7.25,3.22-9.51,6.78-2.44,3.84-4.75,7.78-7.46,11.42-3.26,4.4-6.66,8.75-10.43,12.71-2.18,2.29-5.02,4.1-8.38,4.67-2.1.35-3.52-1.04-3.52-3.7,0-2.83.12-5.66.13-8.49,0-3.14-.95-6.07-2.44-8.77-.88-1.6-2.11-3.03-3.25-4.48-.98-1.24-.82-2.84.56-4.34,2.53-2.76,5.86-4.25,9.08-5.98,4.01-2.15,8.37-3.11,12.69-4.27,3.31-.89,5.63-2.95,7.23-5.92,2.92-5.43,5.86-10.84,8.77-16.27,2.41-4.5,4.73-9.04,7.18-13.51,1.34-2.43,2.91-4.73,4.32-7.12,1.26-2.13,2.41-4.32,3.67-6.45.71-1.19,1.56-2.31,2.37-3.44,1.56-2.18,3.04-4.44,4.74-6.51,2.5-3.07,5.05-6.12,7.82-8.93,1.04-1.06,1.84-2.34,3.08-3.25,1.31-.96,2.43-2.18,3.62-3.3,2.87-2.7,6.19-4.72,9.71-6.45,1.31-.64,2.48-1.61,3.84-2.1,2.82-1.02,5.56-2.23,8.36-3.28,6.82-2.55,13.9-3.4,21.01-4.18,2.33-.25,4.73.12,7.09.14,2.69.02,5.41.21,8.06-.11,4.51-.54,8.94-.61,13.37.5,2.7.68,5.68.67,7.92,2.54,2.77,2.31,5.5,4.71,7.98,7.33,2.76,2.92,5.42,5.91,8.59,8.39,1.05.82,2.31,1.43,3.19,2.4,1.19,1.32,1.59,2.94,1.15,4.8-.65,2.79-1,5.65-1.66,8.43-.27,1.12-1.05,2.12-1.55,3.19-1.42,3.04-4.11,2.64-6.67,2.4-1.88-.18-3.74-.64-5.62-.9-.48-.07-1.03.06-1.5.23-3.68,1.33-4.88.09-6.82-2.16-1.37-1.6-2.93-1.76-4.61-2.11-.56-.11-1.19.06-2.1.13Z"/>
  </g>
  <g id="mano.psd">
    <path class="cls-6" d="m643.02,564.7c.33,1.62.65,3.24,1,4.85.17.78.1,1.38-.99,1.48-.21-.45-.43-.92-.63-1.35-.39.28-.8.59-1.22.89-.28-.44-.67-.85-.81-1.34-.52-1.77-1.03-3.55-1.41-5.36-.57-2.73-2.35-4.5-4.49-6.06-.89-.65-1.78-1.34-2.56-2.11-.85-.84-.63-1.63.26-2.4.48-.42,1.08-1.17,1-1.68-.19-1.19.89-2.3.04-3.54-.23-.33.31-1.13.36-1.72.14-1.67.22-3.34.33-5.2-.93.44-1.8.92-2.73,1.28-1.85.71-3.74,1.32-5.59,2.03-.85.32-1.72.68-2.46,1.19-1.69,1.16-3.76,2.08-3.9,4.54-.04.68.25,1.39.41,2.08.03.15.18.27.21.41.79,4.03,4.18,5.08,7.35,6.28,1.48.56,2.58,1.43,3.5,2.67.54.73,1.24,1.34,1.86,2.01.41.44.79.91,1.18,1.35-.59.9-1.01,1.04-2.09.61-1.99-.79-2.86-2.88-4.8-3.61-1.37-.52-2.71-1.11-4.07-1.67-.15.2-.29.4-.44.6.42.28.9.5,1.26.84.72.7,1.47,1.41,2.02,2.23.26.39.07,1.07.08,1.61-.47-.09-1.07-.03-1.4-.3-1.35-1.09-2.61-2.31-3.94-3.43-.54-.45-1.22-.73-1.76-1.17-.59-.48-1.29-.96-1.62-1.61-1.2-2.32-2.29-4.71-3.37-7.09-.48-1.04-.81-2.15-1.27-3.2-.28-.64-.11-1.02.46-1.32.98-.51,1.94-1.06,2.93-1.56,2.27-1.14,3.81-2.92,4.8-5.23.49-1.15.99-2.39,1.79-3.36.39-.47.85-.87,1.37-1.18.38-.51.81-.99,1.24-1.46.95-1.05,1.89-2.07,3.11-2.81,1.04-.64,2.14-1.17,3.32-1.81-1.4-.97-2.82-1.94-4.22-2.93-3.3-2.34-6.58-4.75-9.09-7.95-1.46-1.86-2.54-4.02-3.82-6.03-.23-.36-.53-.73-.89-.95-2.48-1.53-5.24-2.28-8.09-2.55-8.49-.79-17.68-1.65-25.29,3.05-4.7,2.9-8.07,7.63-10.16,12.74-2.28,5.58-3.78,12.21-3.48,18.23.16,3.19.79,6.3,2.53,9.08.63,1.01.73,2.41,2.09,2.86,0-1.6-.01-3.2,0-4.79.02-1.85.41-3.49,2.26-4.48,1.73-.93,3.56-1.49,5.44-.94.9.26,1.71,1.14,2.34,1.91,1.6,1.98,1.7,4.4,1.66,6.81,0,.23-.03.49-.15.67-1.51,2.3-2.85,4.75-4.63,6.82-1.57,1.82-4.07,2.53-6.38,1.91-2.45-.66-3.78-3.2-4.89-5.29-1.72-3.25-3.38-6.57-4.41-10.1-1.48-5.09-1.65-10.33-.38-15.48.94-3.82,2.47-7.48,4-11.11,1.52-3.61,3.05-7.25,5.21-10.51,3.4-5.13,8.39-8.28,14.15-10.26,4.32-1.48,8.85-2.23,13.37-2.8,4.38-.55,9.04-.53,13.27-1.82.94-.29,2.01-.28,3.01-.24,2.89.13,5.57-.81,8.3-1.54,1.68-.45,3.37-.86,5.07-1.24,2.98-.65,5.96-1.3,8.95-1.86,3.27-.61,6.55-1.18,9.92-1.03,2.67.12,5.36-.02,8.02.21,2.22.19,4.4.76,6.6,1.17,2.51.47,5.03.9,7.52,1.44,3.14.68,5.94,2.06,8.52,3.99,1.75,1.31,3.68,2.37,5.55,3.51.21.13.58.1.84.03,1.52-.41,3.02-.89,4.54-1.3,1.77-.47,3.41-.04,4.99.82.74.4,1.57.64,2.31,1.06,2.1,1.19,3.97,2.66,5.34,4.7.95,1.41,1.98,2.76,2.88,4.19.95,1.5.85,2.25-.25,3.63-.1.12-.23.21-.33.32q-1.26,1.48-.05,3.04s.06.05.08.08c.67.95.16,4.66-.7,5.47-1.84,1.72-3.99,2.13-6.44,1.81-.84-.11-1.75.35-2.64.47-.43.06-.9-.02-1.33-.1-.81-.16-1.61-.37-2.7-.62-1.5.89-2.48-1.89-4.38-1.03.23,1.66.48,3.48.74,5.3.38,2.67.9,5.33,1.11,8.01.21,2.64,1.28,4.46,3.62,5.86,2.38,1.42,4.47,3.32,6.69,5,.74.56,1.49,1.1,2.33,1.71-.03.15-.08.43-.13.72l.25-.17c.54.62,1,1.36,1.65,1.82,1.1.77,2.26,1.7,3.72,1.34,2.31-.56,4.58-1.3,6.6-2.61.96-.62,3.45-.35,4.05.58.27.42.1,1.12.13,1.9-1.2.45-2.51.95-3.83,1.45-1.56.59-3.15,1.13-4.67,1.8-.28.12-.56.92-.42,1.2.37.77.89,1.5,1.5,2.11.74.74,1.7,1.25,2.4,2.01.32.35.21,1.08.29,1.64-.48-.03-1.06.1-1.43-.12-1.15-.69-2.15-1.66-3.35-2.24-1.4-.68-2.92-1.37-4.44-1.51-1.91-.18-3.18-1.22-4.56-2.25-1.68-1.26-3.32-2.58-5.07-3.73-3.86-2.52-7.7-5.08-11.7-7.36-2.22-1.26-2.81-3.21-3.37-5.36-.31-1.18-.09-2.62-1.51-3.37.11-.22.37-.56.3-.65-.86-1.15-.32-2.69-1.13-3.85-.31-.45-.52-.75-1.08-.35-1.2.86-2.42,1.67-3.62,2.53-.93.67-1.03,1.67-.23,2.49,2.62,2.68,4.71,5.72,6.49,9.03,2.08,3.87,4.23,7.71,6.56,11.44,1.03,1.64,2.68,2.75,4.81,2.76,1.26,0,2.54-.13,3.78.06.62.09,1.32.64,1.7,1.18,1.06,1.52,1.97,3.14,2.92,4.72.2.33.4.68.46,1.05.06.39.09,1-.13,1.17-.26.21-.81.05-1.35.05-.04.3-.03.78-.2,1.19-.16.39-.45.88-.79,1.01-.31.12-.91-.07-1.17-.34-.56-.55-.73-.17-1.07.21-.3.32-.82.8-1.08.72-.51-.17-1.04-.61-1.32-1.08-.31-.53-.31-1.24-.51-1.85-.49-1.52-1.58-2.38-3.15-2.56-1.56-.18-3.14-.22-4.69-.41-.5-.06-1.04-.32-1.43-.64-2.49-2.03-4.91-4.15-7.41-6.16-2.58-2.08-4.76-4.51-6.82-7.1-1.28-1.61-2.93-2.95-4.12-4.62-1.9-2.67-3.9-5.4-4.31-8.75-.18-1.48.35-3.08.74-4.57.46-1.73,1.54-3.12,2.78-4.41.6-.63.98-1.47,1.48-2.2.23-.33.51-.63.77-.94.1.04.2.09.3.13-.04-.29-.09-.57-.13-.85-.12-.01-.22-.05-.25-.02-1.3,1.26-2.59,2.53-3.89,3.78-.41.4-.84.77-1.26,1.15-.07-.08-.14-.16-.21-.24.14-.54.29-1.07.43-1.61-.1-.07-.19-.13-.29-.2-.52.6-1.03,1.19-1.6,1.85-.35-.46-.67-.9-1.06-1.41-.61.79-1.19,1.52-1.76,2.26-.07-.03-.13-.07-.2-.1.04-.34.08-.67.16-1.33-.32.42-.47.6-.6.79-.21.29-.41.59-.61.89-.21-.27-.41-.54-.64-.84-.28.2-.58.41-1.14.8.2-1.52.37-2.77.53-4.02-.09-.02-.18-.05-.28-.07-.37,1.34-.74,2.69-1.16,4.19-.97-.93-1.45-.38-2.11.34v-1.53l-.21-.03c-.3.61-.61,1.22-.91,1.83-.07-.02-.13-.05-.2-.07.1-.4.19-.81.29-1.21-.11-.06-.23-.12-.34-.18-.41.77-1,1.5-1.21,2.33-.57,2.24-.89,4.54-1.46,6.77-.47,1.85-1.08,3.68-1.77,5.46-.83,2.12-1.76,4.2-2.75,6.25-.51,1.06-.36,1.92.33,2.78,2.56,3.21,5.83,5.12,9.96,5.44,1.16.09,1.51,1.02,1.9,1.8.45.92.69,1.96.95,2.96.08.32-.11.7-.18,1.05-.33-.13-.76-.18-.97-.42-.46-.51-.76-1.17-1.22-1.68-.34-.37-.84-.58-1.26-.87-.16.11-.31.22-.47.33.49,1.59,1.03,3.17,1.44,4.78.27,1.06.38,2.17.45,3.27.02.29-.41.61-.63.91-.26-.32-.64-.6-.75-.96-.47-1.55-.84-3.14-1.28-4.7-.09-.31-.33-.57-.74-.78.32,2.15.64,4.3.96,6.48-1.75.08-1.92-.08-2.19-1.59-.22-1.25-.43-2.51-.76-3.74-.17-.62-.59-1.18-.89-1.76-.14.07-.29.15-.43.22Zm-70.93-7.75c.44,1.43,2.49,2.14,3.46,1.1,1.03-1.1,2.02-2.42,2.46-3.83.34-1.06.8-2.54-.4-3.62-.34-.3-.67-.61-1.03-.94-1.41.39-2.25,1.5-2.85,2.75-.27.57-.2,1.38-.07,2.03.05.25.75.32,1.06.58.21.17.38.56.34.81-.19,1.13-1.13,1.49-2.98,1.12Z"/>
  </g>
  <g id="otorongo.psd">
    <g>
      <path class="cls-1" d="m728.52,481.47c.06-.1.12-.21.18-.31,1.08-1.9,1.68-4.04,2.75-5.94,1.15-2.04,2.77-3.92,4.19-5.78.62-.81,1.41-1.61,1.92-2.49.43-.75.44-1.65.45-2.5.01-.66.02-1.33-.11-1.98-.26-1.29-1.05-2.41-1.65-3.58-1.1-2.17-1.48-4.53-1.98-6.88-.26-1.21-.57-2.41-.81-3.63-.06-.31.02-.65.03-.98,0-.11.01-.23-.04-.32-.41-.71-.67-.92-1.45-1.11.13,0,.22,0,.31.01.02-.04.04-.09.06-.13-.66-.28-1.32-.55-2.05-.86.12.16.22.3.36.48-.56.33-1.02-.3-1.65-.1.06.55.13,1.12.2,1.69-.02,0-.04.01-.07.02-.16-.51-.35-1.02-.48-1.54-.07-.29-.25-.45-.5-.51-.48-.12-.97-.21-1.43-.3,0,.28-.02.5-.01.72,0,.07.07.17.14.19.26.09.76.91.66,1.15-.04.09-.14.15-.27.28-.43-.62-.88-1.21-1.28-1.84-.39-.61-.86-1.02-1.59-.95.26.54.54,1.11.82,1.69-.06.03-.11.06-.17.09-.24-.39-.46-.8-.74-1.17-.26-.35-.35-.97-1.03-.73.19.59,1.07.88.84,1.77-.67-.68-1.28-1.3-1.89-1.92-.04.03-.09.05-.13.08-.02.14-.04.28-.05.43l-.46-.1s-.09.06-.13.09c.11.2.2.42.33.61.15.22.34.38.26.72-.06.22.05.5.15.73.2.51.44,1,.65,1.5.02.04-.04.12-.07.21-.58-1.25-1.15-2.46-1.72-3.69-.28.07-.52.13-.8.2,0,.12.01.25.02.38-.08.06-.16.12-.25.18-.18-.07-.37-.14-.59-.23,0,.15-.02.3-.02.46-.22.06-.08-.69-.43-.18-.66-.06-.94.21-.87.83.02.2,0,.39-.09.6-.02-.13,0-.27-.06-.38-.09-.19-.22-.37-.33-.55-.28.18-.74,0-.87.48-.09.33-.24.65-.36.97-.05-.02-.1-.04-.15-.05.11-.37.22-.74.35-1.16-.2.01-.35.02-.46.02-.16.35-.3.66-.44.96-.04-.02-.07-.03-.11-.05.09-.27.18-.54.27-.8-.57-.22-1.11-.44-1.66-.65-.96-.38-1.94-.72-2.87-1.16-.37-.18-.65-.58-.95-.9-.13-.14-.21-.34-.34-.56-.3.5-.55.93-.8,1.35-.04-.02-.08-.04-.12-.07.24-.42.48-.84.7-1.27.05-.1.05-.22.08-.33-.12.02-.26,0-.36.05-.22.14-.41.33-.64.51.08-.55.81-.62.75-1.24-.06-.5-.28-.85-.76-1.12-1.11.83-2.23,1.68-3.25,2.44.08-.47.63-1.14,1.74-2.11-.56.28-1.13.53-1.66.85-.55.33-1.05.73-1.6,1.13.38-.78,2.15-2.15,2.53-1.99.06-.16.12-.31.22-.59-1.23.46-2.38.9-3.51,1.32.48-.6,2.92-1.54,5.1-1.93-.44-.4-.87-.14-1.26-.02-.83.26-1.64.58-2.48.84.29-.17.57-.35.99-.6-.3-.06-.5-.15-.69-.13-.39.04-.76.16-1.15.22-.1.02-.21-.06-.31-.1.08-.05.16-.12.25-.15.57-.22,1.14-.44,1.71-.65.59-.21,1.19-.41,1.78-.61.17-.06.35-.1.52-.15v-.14c-.4.01-.78.03-1.17.03-.23,0-.46-.07-.68-.05-.94.1-1.89.22-2.83.33.03-.18.05-.37.09-.62.13.14.22.24.35.38-.02-.15-.04-.25-.07-.46.17.17.26.27.35.36,0-.04,0-.08,0-.13l1.93-.11s0-.07,0-.1c-1.3-.21-2.61-.42-3.91-.64l.04-.23c1.96.3,3.92.6,5.88.9.01-.14.03-.34.06-.64-1.5-.45-3-.9-4.51-1.35,1.61.04,3.07.66,4.54,1.12.34-1.12.51-2.35,1.34-3.21.74-.76,1.9-1.12,2.32-2.18.31-.79-.12-1.25-.29-1.97-.21-.89-.16-1.85.21-2.69.09-.21.21-.42.24-.65.02-.16,0-.33,0-.49-.09-1.37.36-2.76,1.22-3.82.15-.19.32-.37.5-.54.02-.02.04-.04.06-.06.02-.03.03-.07.04-.1.03-.1.07-.19.12-.28.25-.5.61-1.01,1.05-1.35.47-.37,1.01-.64,1.5-.97,1.41-.94,1.39-.83.82-2.37-.6-1.65-1.1-3.93-.05-5.52.53-.8,1.43-1.27,2.29-1.71.81-.41,1.68-.83,2.57-.72.39.05.79.21,1.05.51.16.19.27.42.39.63.52.9,1.5,1.87,2.47,2.28,1.07.45,1.64-.05,2.69-.46,1.09-.42,2.18-.3,3.37-.29.7,0,1.4.01,2.09.02,1.54.01,3.09.02,4.62-.09,2.28-.17,4.56-.63,6.85-.49,3.96.24,7.89,1.66,11.84,2.24,3.39.49,6.91.07,10.24.65,3.24.57,6.3,1.87,9,3.73,2.77,1.91,4.89,4.72,7.61,6.76,2.12,1.59,4.42,2.95,6.82,4.09,2.58,1.23,5.33,2.2,8.17,2.6s5.67-.07,8.51-.24c8.11-.49,16.17-1.59,24.28-2.01,6.6-.34,13.34-.22,19.61,1.86,5,1.66,9.57,4.58,13.22,8.37,4,4.15,6.01,8.56,6.35,14.33.45,7.64.32,15.31-.36,22.93-.46,5.08-1.18,10.38.24,15.37,1.33,4.66,4.19,8.83,7.8,12.02,2.23,1.98,4.73,3.64,7.35,5.05,2.69,1.45,6.67,2.07,8.63,4.58.54.7.89,1.61.69,2.47-.25,1.08-1.27,1.81-2.31,2.21-1.81.69-3.84.67-5.74.28-3.65-.76-7.45-2.4-10.73-4.17-3.26-1.76-6.29-3.98-8.75-6.76-2.24-2.53-3.93-5.46-5.68-8.33-1.77-2.89-3.02-5.63-3.56-9.03-.74-4.69-.09-9.43.76-14.06.43-2.34.92-4.68,1.33-7.03.17-.99.16-1.74.02-2.72-.1-.66-.79-2.67-.52-3.23-.38.8-.76,1.43-.99,2.11-1.79,5.23-2.87,10.83-3.96,16.24-.36,1.79-.7,3.58-.79,5.4-.15,2.96.34,5.91,1.25,8.72.46,1.42,1.02,2.8,1.66,4.14.56,1.17,1.59,2.36,1.97,3.56.16.51.29,1.12.15,1.61-.34,1.21-.8,2.4-1.59,3.42-.7.89-1.39,1.79-2.09,2.68-1.21,1.52-2.39,3.06-3.63,4.55-1.25,1.51-2.54,3-3.63,4.64-.28.41-.54.83-.89,1.18-.39.39-.87.69-1.33.98-.42.26-.83.54-1.31.67-.63.18-1.09-.04-1.65-.27-1.21-.49-2.5-.9-3.79-.77-.41.04-.81.14-1.22.16-.63.02-1.05-.32-1.63-.47-.52-.13-1.06-.09-1.59-.15-.88-.11-1.7-.52-2.43-1.03-.36-.25-.7-.53-.95-.88-.39-.55-.44-1.25-.34-1.91.16-1.11,1.31-1.99,2.22-2.51.69-.4,1.49-.69,2.28-.6.57.07,1.1.34,1.67.46,1.16.24,2.65-.18,3.61-.85.73-.51,1.31-1.2,1.88-1.88.84-1,1.71-1.99,2.35-3.13,1.08-1.92,1.34-4.22.03-6.1-.27-.39-.49-.84-.83-1.18-.75-.75-1.75-1.16-2.68-1.63-1.49-.76-2.87-1.73-4.21-2.73-.84-.63-1.67-1.28-2.39-2.05-.79-.84-1.21-1.75-1.75-2.74-.16-.29-.34-.57-.49-.86-.1-.18-.18-.37-.27-.55.01-.2-.29-.63-.38-.82-.11-.24-.21-.48-.3-.72-.25-.66-.39-1.34-.56-2.02,0,0-1.07.6-1.16.68-.44.38-.65.9-.82,1.44-.2.62-.58,1.13-.89,1.7-.63,1.16-.79,2.53-1.31,3.74-.3.7-.71,1.35-1.02,2.05-.15.34-.31.73-.35,1.1s.03.75-.02,1.13c-.09.74-.38,1.49-.8,2.11-.84,1.25-2.17,2.06-3.35,2.95-2.18,1.64-4.11,3.59-6.16,5.38-.1.09-.2.18-.26.29-.04.08-.06.16-.1.24-.1.19-.31.29-.46.44-.13.13-.22.29-.34.42-.18.2-.42.33-.66.47-1.67.98-3.02,2.37-4.36,3.75-.64.66-1.34,1.35-2.25,1.51-.84.14-1.68-.22-2.53-.3-.56-.05-1.13.02-1.69-.05s-1.05-.35-1.58-.52c-1.56-.49-3.29-.19-4.77-.95-.73-.38-1.25-.68-2.09-.54-.21.03-.43.08-.64.03-.28-.07-.47-.31-.68-.51-.27-.26-.6-.46-.95-.59-.29-.11-.61-.18-.8-.42-.41-.52-.04-1.55.21-2.07.32-.69.83-1.29,1.42-1.77.23-.18.47-.35.75-.45.1-.04.19-.06.29-.09.55-.15,1.12-.36,1.69-.46.51-.09,1.02.08,1.51.19,1.3.31,2.66.28,4,.26.54-.01,1.1-.02,1.6-.23.41-.17.76-.46,1.09-.76.99-.9,1.86-1.94,2.75-2.94.41-.46.83-.92,1.25-1.38.18-.19.51-.43.65-.64,1.28-1.92,3.05-3.81,3.35-6.15.31-2.38-.37-4.76-.46-7.14-.08-2.2-.56-4.12-.98-6.26-.14-.71-.38-1.52-.37-2.25.01-.62.29-1.22.29-1.84,0-.17-.69-2.53-.34-2.53q-.51,0-.62.99c-.02-.25-.05-.49-.07-.74-.4.03-.81,0-1.18.1-.66.16-1.29.44-1.96.56-1.24.23-2.49.45-3.75.57-9.93.94-19.93-1.12-29.31-4.28-.61-.21-1.22-.42-1.82-.63-1.14-.4-2.28-.81-3.42-1.23-.82-.3-1.94-1-2.67-.21-2.65,2.87-5.2,5.84-8.01,8.56-2.46,2.38-6.05,4.46-6.48,8.22-.02.22-.07.48-.27.56-.19,1.04-.56,2.04-.65,3.1-.21,2.34,1.52,2.94,2.54,4.69.34.59.47,1.29.35,1.96-.13.75-.55,1.41-.96,2.05-1.14,1.79-2.34,3.28-4.61,3.36-1.32.04-2.61-.5-3.69-1.27-1.19-.86-2.45-2.06-3.37-3.2-1.24-1.55-1.54-3.65-1.47-5.64.04-1.12.17-2.24.26-3.36.08-1.06-.09-2.1-.05-3.12.01-.36.18-.72.28-1.06-1.75,1.15-3.03,2.78-4.47,4.25-.44.44-.91.85-1.35,1.29-1,1-2.29,1.63-3.35,2.56-.87.77-1.66,1.62-2.53,2.4-.3.27-.68.46-1.05.62-1.55.67-2.59.92-4.28.58-1.95-.38-3.93-.57-5.89-.87s-3.72-.94-5.61-1.48c-.53-.15-.8-.57-.87-1.05-.23-1.63-.12-3.1,1.14-4.29,1.82-1.71,4.87-2.47,7.29-2.09,1.16.19,2.31.48,3.49.51.31,0,.64,0,.93-.13.77-.34,1.44-1.44,1.96-2.09.77-.96,1.48-1.96,2.21-2.95.52-.71,1.05-1.43,1.51-2.18Zm104.27,34.39c-.05-.03-.1-.06-.15-.09-.53.59-.99,1.22-1.13,2.13.47-.74.88-1.39,1.29-2.04Zm-126.57-76.31v.13c.61-.08,1.22-.17,1.84-.25,0-.07-.02-.13-.02-.2-.63-.09-1.21.22-1.81.32Z"/>
      <path class="cls-1" d="m718.97,445.4c.17.25.4.48.5.75.07.2-.02.46-.05.76,0,0,.2.15.2.16-.38.51.27.97.08,1.46-.05.12-.11.23-.19.39-.18-.96-.35-1.84-.5-2.72-.04-.26-.02-.54-.03-.81,0,0-.01.01-.01.01Z"/>
      <path class="cls-1" d="m703.16,438.82c-.33.04-.66.07-.99.12-.34.05-.66-.11-.7-.45.53.55.67-.06.97-.33,0,.2.02.34.02.53.21-.16.37-.29.53-.42.07.21.12.38.17.55,0,0,0,0,0,0Z"/>
      <path class="cls-1" d="m720.03,445.34c.08-.06.16-.12.25-.18.17.37.34.74.51,1.11-.35-.05-.81-.6-.76-.93Z"/>
      <path class="cls-1" d="m723.19,446.94c-.35-.38-.69-.76-1.04-1.14.04-.04.08-.07.12-.11.34.39.68.78,1.02,1.17-.03.03-.06.05-.1.08Z"/>
    </g>
  </g>
  <g id="sajino.psd">
    <path class="cls-1" d="m227.53,320.04c2.54.35,5.08.72,7.63,1.06.72.1,1.49.46,2.12-.27.06-.06.28,0,.42.04,1.91.44,3.8.95,5.72,1.31.93.17,1.92.01,2.87.07.72.04,1.47.09,2.16.29,1.03.29,1.91.69,3.14.52,1.18-.17,2.51.59,3.75,1.01.81.28,1.57.68,2.36,1.03.04-.08.08-.17.13-.25-.46-.44-.92-.88-1.43-1.37,1.43-.42,2.57.44,3.74.46,2.49.04,4.18,1.89,6.41,2.41.06.01.14-.04.26-.08-.47-.37-.91-.71-1.35-1.06.05-.09.11-.18.16-.28.44.18.87.37,1.09.46.38-.15.7-.38.86-.3.46.22.88.54,1.26.88.66.58.81.14.95-.4-.56-.39-1.1-.77-1.65-1.15.06-.11.11-.22.17-.33.64.25,1.28.5,2.06.8.08-.42.15-.82.25-1.39,1.29.67,2.54,1.31,3.92,2.03-.04-.31-.05-.47-.07-.63-.02-.13-.05-.26-.11-.64.99.52,1.8.95,2.61,1.38.03-.04.05-.07.08-.11-.63-.52-1.27-1.04-1.9-1.57.09-.12.19-.25.28-.37.55.31,1.13.59,1.65.94,1.34.9,2.84.96,4.28.58,1.2-.32,2.07.12,3.02.61.22.11.44.22.81.4-.1-.47-.17-.78-.26-1.23.62.14,1.1.25,1.68.39.03-.31.06-.55.09-.86.23.11.4.18.55.28.65.45,1.14.94,2.13,1.03,1.02.09,1.96,1.11,3.02,1.77.3-.19.74-.46,1.31-.81.21.14.56.38,1.03.7-.02-.23-.04-.35-.06-.61.7.39,1.3.92,1.97,1.03.49.08.91.22,1.35.34,1.52.41,1.88,1.94,3.06,2.74,0-.43,0-.79,0-1.16.13-.04.25-.08.38-.12.78,1.85,1.65,3.67,2.3,5.57.51,1.49.85,3.05,1.08,4.61.24,1.66.1,3.38.46,5.01.22,1.01,1.03,1.91,1.61,2.83,2.42,3.88,4.37,7.91,5.18,12.5.32,1.79,1.27,3.53,2.2,5.13.84,1.44,2.07,2.65,3.08,4,.26.34.89.72.24,1.31-.06.05.15.52.33.69,1.83,1.68,1.63,2.58-.75,3.5-1.54.6-3.06,1.26-4.58,1.88-.66-.89-1.59-.64-2.45-.67-.56-.02-1.18.14-1.67-.04-3.13-1.15-6.36-1.89-9.68-2-1.71-.06-3.43.47-5.16.64-1.08.11-2.17.07-3.26.08-2.13,0-4.28.15-6.38-.06-1.28-.13-2.48-.7-3.84-.19-.48.18-1.15-.14-1.73-.23-.08.15-.16.3-.25.45,1.45,1.21,2.83,2.5,4.35,3.6,1.5,1.08,3.14,1.98,4.73,2.94,1.27.77,1.53,1.49,1.39,3.04-.17,1.98-.24,3.98-.27,5.97-.02,1.11-.37,1.91-1.23,2.67-1.37,1.21-2.53,2.66-3.87,3.92-1.23,1.16-2.56,2.22-3.89,3.26-.29.23-.79.18-1.5.32.1-2.16.05-4.12.36-6.02.11-.65,1.02-1.38,1.73-1.68.93-.4,1.22-.78.76-1.69-.11-.22-.11-.49-.17-.82.79-.37,1.58-.75,2.39-1.1.87-.37,1.39-1.27.83-2-.54-.7-1.41-1.37-2.25-1.57-2.05-.49-4.17-.73-6.27-1.03-.92-.13-1.86-.16-2.91-.25-.23,3.22-.52,6.36-.66,9.51-.08,1.79.47,3.45,1.36,5.06.69,1.23.98,2.68,1.45,4.03.99,2.81,2.83,5.08,4.63,7.37.36.46,1.05.8.55,1.59-.52.82-1.1.21-1.66.13-.11-.01-.21-.05-.22.22-.49.22-.99.63-1.47.61-2.45-.06-4.32-1.15-5.18-3.66-.56-1.64-1.12-3.28-1.78-4.87-.4-.96-.78-2.12-2.3-1.71-.31.08-.71-.12-.92-.17-.11-.91-.18-1.8-.34-2.66-.5-2.64-1.12-5.26-2.59-7.56-.46-.73-1.14-1.32-1.63-2.03-.34-.5-.51-1.11-.77-1.66-.73-1.53-1.45-3.07-2.21-4.59-.12-.24-.42-.52-.68-.56-3.07-.51-3.95-2.49-2.22-5.04.06-.09.09-.2.19-.45-.64-.38-1.27-.8-1.94-1.15-.82-.43-1.65-1.02-2.53-1.16-.97-.15-2.15-.13-2.98.31-2.27,1.21-4.4,2.68-6.59,4.02-.31.19-.69.28-1.03.41.11-.35.22-.69.33-1.04.03-.1.03-.21.05-.36-.63.08-1.23.15-1.93.23,0-.27.01-.52.02-.98-1.67,1.2-3.24,2.34-4.81,3.47-.1-.12-.19-.25-.29-.37.4-.43.8-.85,1.3-1.38-1.58.04-1.69,1.81-3,2.16.03-.35.05-.61.06-.71-1.5-.42-2.96-.4-4.39.53-.04-.3-.06-.49-.09-.74-.44.17-.86.33-1.28.49-.05-.07-.11-.14-.16-.21.33-.32.67-.65,1-.97-.05-.09-.1-.17-.16-.26-.46.31-1,.54-1.38.93-1.61,1.66-2.5,3.72-3.17,5.9-.47,1.52-.88,3.01-.78,4.66.12,2.08,1.16,3.71,2.2,5.36.92,1.45,2.11,2.61,3.47,3.67.9.7,1.5,1.78,2.19,2.72.11.16-.01.49-.03.82,1.37,1.41,2.88,2.96,4.51,4.63-2.05.78-3.9,1.21-5.83.61-.34-.1-.69-.55-.8-.91-.51-1.58-1.06-3.11-2.33-4.29-.39.27-.79.54-1.27.86-.76-3.49-3.34-5.58-5.41-7.97-1.28-1.48-2.92-2.65-4.44-3.92-.86-.72-.69-1.68-.58-2.53.31-2.45.76-4.88,1.13-7.32.05-.33-.03-.69-.04-.89-2.43.23-4.1,1.67-5.88,2.94-.16.11-.5-.06-.75-.03-.28.04-.59.1-.83.25-1.02.64-2.02,1.33-3.22,2.13.04-.5.05-.72.07-.97-.06.01-.17,0-.24.06-.35.27-.66.61-1.04.82-.57.31-1.22.47-1.79.78-1.45.79-1.48,2.28-1.38,3.58.25,3.03.49,6.09,1.15,9.05.74,3.33,1.59,6.68,3.6,9.57.48.7.9,1.44,1.31,2.18.47.87.07,1.5-.94,1.45-.96-.05-1.94-.04-2.86-.26-1.77-.43-3.18-1.35-3.62-3.31-.31-1.39-.7-2.76-1.09-4.26-.1,0-.35-.06-.58-.02-1.06.2-1.65-.22-1.72-1.29-.14-2.29-.14-4.59-.42-6.86-.29-2.36-.83-4.69-1.27-7.03-.3-1.59-.61-3.17-.98-4.75-.15-.67-.37-1.35-.7-1.94-.49-.87-.32-1.56.43-2.18,2.28-1.86,4.98-3.35,5.96-6.43.07-.23.31-.4.44-.62.11-.18.17-.39.3-.71-.45.06-.77.1-1.12.15.17-1.2-.1-1.47-1.07-1.12-.4-.63-.79-1.26-1.19-1.88-.39.2-.71.37-1.37.71.16-.81.26-1.36.36-1.85-.79.07-1.16-.62-.8-2.02-.42.06-.79.11-1.25.18.08-.28.15-.5.23-.79-.27,0-.53,0-.9,0,.18-.38.31-.65.49-1.05-.86.02-1.75.08-1.04-1.2-.55.23-.99.41-1.57.65.29-1.05-.4-2.12.66-2.84-.48.2-.95.4-1.49.62-.19-.58-.36-1.11-.53-1.65-.61.05-1.42-.92-1.47-1.88-.38.14-.75.28-1.24.46-.12-.72-.24-1.37-.33-1.92-.24-.29-.68-.6-.65-.85.15-1.38-.48-2.85.48-4.13-.73-.95.72-1.62.29-2.73-.23-.59.64-1.63,1.04-2.45.12-.25.33-.45.59-.79-.41-.09-.69-.16-1.24-.28,1.2-1.73,2.32-3.37,3.62-5.25-.59.5-.97.82-1.6,1.36.13-.5.14-.71.24-.85.51-.69,1.16-1.24,1.27-2.22.14-1.3,1.25-1.99,2.08-2.87.71-.76,1.26-1.68,2.06-2.78-.63.07-.9.1-1.17.13-.05-.07-.1-.13-.15-.2.25-.21.49-.45.76-.63,3.47-2.29,6.14-5.67,10.11-7.27.34-.14.44-.81.79-1,1.17-.66,2.37-1.3,3.62-1.78,1.12-.42,2.33-.62,3.49-1.14-.52-.08-1.04-.15-1.81-.27,4.79-1.42,9.48-1.78,14.25-2.03-.22-.37-.35-.6-.48-.82,1.56-.09,3.11-.17,4.67-.26Z"/>
  </g>
  <g id="taricaya.psd">
    <path class="cls-9" d="m716.64,192.74c0-.54,0-1.04-.02-1.77-.72,1.14-1.32,2.1-1.93,3.07-.19-.05-.38-.11-.56-.16-.17-1.08-.34-2.16-.52-3.33-.89-.2-1.47.14-1.56,1.27-.04.46-.19.95-.4,1.36-.12.23-.5.48-.72.44-.24-.04-.53-.36-.61-.62-.27-.8-.45-1.62-.69-2.5-1.37-.23-2.66-.44-4.04-.67-.61,1.09-1.35,2.29-3.33,1.77.87-1.87-.38-2.58-1.69-3.48-1.6-1.1-2.34-2.74-2.96-4.69-1.39-4.34-.35-8.6-.38-12.89-.01-2.15-.08-4.3-.13-6.52-.54.08-.78.06-.96.14-4.47,1.93-8.83,1.04-13.3-.21-3.19-.89-6.52-1.23-9.78-1.87-1.41-.28-2.83-.62-4.19-1.08-3.2-1.08-6.49-.43-9.73-.69-4.74-.39-9.53-.55-14.07-2.34-2.33-.92-4.79-1.53-7.22-2.2-3.62-1-7.11-2.26-10.42-4.11-2.17-1.21-4.56-2.05-6.88-3-4.51-1.85-9.2-3.35-13.52-5.56-3.81-1.94-7.24-4.65-10.83-7.02-.3-.2-.58-.45-1.01-.79.3,2.87-1.03,5.05-2.52,7.04-.65.87-2.08,1.15-3.16,1.7-.34.18-.66.38-.99.57-1.15.66-2.24,1.45-3.46,1.92-.56.22-1.36-.17-2.34-.33.87-1.32,1.52-2.31,2.48-3.76-.87.25-1.49.27-1.91.57-1.16.86-2.17,1.91-3.36,2.72-.43.29-1.19.08-1.8.1.12-.5.23-1,.36-1.5.23-.95,2-1.73.36-2.89-1.68.97-3.32,1.91-4.96,2.86-.15-.13-.31-.27-.46-.4,1.01-1.83,2.01-3.66,3.18-5.79-.56-.2-1.35-.28-1.85-.71-.68-.59-1.23-1.38-1.66-2.19-.27-.52-.21-1.21-.31-1.85-2.94-.85-3.76-2.88-2.05-5.18-1.65-1.37-1.67-1.47-.93-3.33-.13-.69-.58-1.52-.34-2.05.73-1.65,1.18-3.48,3.25-4.29,1.58-.62,2.88-1.91,4.44-2.63.95-.44,2.13-.38,3.21-.51.46-.05.93,0,1.25,0-1.06-2.56-2.1-5.07-3.19-7.68-3.1.16-5.47,1.87-7.43,4.24-1.42-.79-2.07-3.04-1.26-4.55,1.76-3.27,4.42-5.44,7.81-6.17.51-3.08.51-6.15,1.59-8.78,1.07-2.6,2.53-5.25,5.16-6.91,5.04-3.19,10.67-4.39,16.44-5.37,5.28-.9,10.46-2.36,15.75-3.16,6.75-1.03,13.57-1.54,20.33-2.49,6.04-.85,12.05-.97,17.99.34,4.29.95,8.47,2.37,12.71,3.57,1.39.39,2.81.67,4.19,1.09,5,1.5,10.05,2.85,14.96,4.61,7.09,2.54,12.55,7.53,17.89,12.62.69.65,1.44,1.25,2.22,1.78,6.35,4.26,11.79,9.54,17.03,15.07,1.85,1.95,3.51,4.12,6.39,4.87,1.16.3,2.16,1.33,3.11,2.17.21.19.09,1.15-.2,1.44-.9.91-1.94,1.67-2.94,2.47-1.02.82-1.05,1.57.07,2.22.82.48,1.73.92,2.65,1.11,1.89.38,3.63,1.08,5.75.77,3.3-.48,6.51.48,9.55,2.06,2.25,1.17,4.78,1.79,7.05,2.92,1.48.73,2.85,1.81,4.06,2.95,1.4,1.32,2.5,2.96,3.86,4.32,1.88,1.88,1.96,2.6.14,4.44-1.91,1.93-3.79,3.89-5.73,5.8-.4.39-.96.75-1.5.85-2.08.39-4.19.62-6.27,1-1.12.21-2.2.65-3.31.92-.54.13-1.35.36-1.63.1-1.09-1.01-2.2-.65-3.43-.51-1.21.13-2.47-.08-3.7-.22-4.1-.47-8.15-1.69-12.32-.15-3.86,1.43-7.62.93-11.01-1.5-.11,1.45-.22,2.75-.29,4.05-.02.41-.03.87.12,1.25,1.9,4.71,1.55,9.22-.92,13.67-1.18,2.14-2.08,4.45-3.02,6.72-.64,1.56.74,2.99,2.97,3.18,2.5.22,3.17.88,3.77,3.46.12.5.66.93,1.06,1.33,2.3,2.31,1.53,6.64-1.45,7.48Z"/>
  </g>
  <path class="cls-8" d="m397.73,265.35c-.63.3-1.34-.2-1.26-.88.19-1.73.39-3.53,0-5.15-.62-2.52-1.22-4.97-1.44-7.57-.23-2.68-.19-5.38.09-8.05.57-5.35,2.13-10.59,4.55-15.38,2.02-3.99,4.68-7.57,7.7-10.85,4.6-5,9.14-10.34,14.52-14.52,1.45-1.13,2.93-2.27,4.63-2.97,2.74-1.13,5.76-1.02,8.66-.99,3.23.03,6.48-.19,9.71-.35,1.53-.08,2.58-.78,3.84-1.52.15-.09.33-.09.48,0l.7.42c.27.17.3.55.06.76-1.21,1.01-1.66,2.19-1.31,3.58.47,2.45.79,4.9,1.13,7.36.33,2.38.62,4.81.12,7.19-.49,2.32-1.67,4.46-2.55,6.64-.95,2.36-1.76,4.77-2.81,7.09-3.92,8.69-9.58,16.69-17.09,22.65-4.24,3.36-9.14,6.73-14.39,8.22-5.07,1.44-10.54,2.04-15.33,4.33Z"/>
  <path class="cls-1" d="m864.2,416.24c.36.72,1.36.77,1.78.09,1.06-1.71,2.15-3.51,3.66-4.7,2.36-1.86,4.64-3.67,6.69-5.89,2.11-2.28,3.99-4.78,5.62-7.42,3.28-5.29,5.57-11.18,6.76-17.28.99-5.08,1.1-10.24.67-15.37-.65-7.83-1.01-15.93-2.95-23.56-.52-2.06-1.07-4.15-2.12-6-1.7-2.98-4.53-5.02-7.21-7.05-2.97-2.26-5.79-4.77-8.62-7.21-1.34-1.16-1.81-2.54-2.43-4.12-.07-.18-.24-.32-.44-.34l-.94-.11c-.37-.04-.67.29-.59.65.39,1.77-.04,3.18-1.35,4.2-2.16,1.91-4.2,3.92-6.26,5.92s-3.98,3.95-5.21,6.48c-1.2,2.46-1.64,5.26-2.38,7.87-.8,2.83-1.77,5.6-2.46,8.47-2.58,10.72-3.09,22.05-.47,32.81,1.48,6.08,3.57,12.64,7.31,17.72,3.61,4.91,8.18,9.34,10.93,14.83Z"/>
  <path class="cls-8" d="m737.81,563.92c-.38.27-.91.02-.93-.44-.07-1.16-.13-2.38-.58-3.41-.69-1.6-1.36-3.15-1.8-4.84-.45-1.74-.73-3.53-.84-5.33-.22-3.6.22-7.23,1.29-10.68.89-2.86,2.25-5.53,3.88-8.03,2.48-3.82,4.89-7.85,7.97-11.22.83-.91,1.68-1.83,2.73-2.48,1.68-1.05,3.69-1.32,5.62-1.62,2.14-.34,4.26-.85,6.38-1.31,1-.22,1.62-.8,2.37-1.43.09-.07.21-.09.32-.05l.51.2c.2.08.26.33.12.49-.68.8-.85,1.64-.46,2.51.58,1.57,1.07,3.15,1.57,4.74s.95,3.11.88,4.74c-.06,1.58-.61,3.13-.95,4.67-.37,1.67-.63,3.35-1.07,5-1.62,6.18-4.47,12.1-8.76,16.88-2.42,2.7-5.29,5.47-8.6,7.04-3.19,1.52-6.74,2.52-9.65,4.57Z"/>
  <path class="cls-11" d="m670.16,449.37c-.31.32-.85.18-.95-.26-.27-1.08-.54-2.21-1.13-3.09-.93-1.38-1.82-2.72-2.52-4.23-.72-1.56-1.29-3.19-1.7-4.86-.83-3.34-1.04-6.83-.63-10.24.34-2.84,1.16-5.57,2.25-8.2,1.67-4.01,3.23-8.21,5.55-11.9.63-1,1.26-2.01,2.13-2.8,1.4-1.28,3.24-1.87,4.99-2.49,1.95-.69,3.85-1.53,5.76-2.33.9-.38,1.38-1.03,1.98-1.75.07-.08.18-.12.29-.1l.51.1c.2.04.3.27.2.44-.5.87-.52,1.68,0,2.44.82,1.37,1.55,2.77,2.29,4.18.72,1.36,1.43,2.75,1.65,4.29.21,1.5-.03,3.05-.08,4.55-.06,1.63-.02,3.25-.14,4.88-.46,6.08-2.11,12.13-5.31,17.35-1.81,2.95-4.02,6.04-6.85,8.09-2.73,1.97-5.89,3.53-8.27,5.95Z"/>
  <path class="cls-8" d="m517.24,507.67c-.3-.14-.34-.56-.06-.74.7-.46,1.43-.94,1.91-1.59.74-1.01,1.46-1.99,2.36-2.87.92-.91,1.94-1.73,3.01-2.45,2.16-1.44,4.58-2.48,7.11-3.06,2.1-.48,4.25-.6,6.4-.5,3.27.16,6.66.2,9.86.9.87.19,1.75.39,2.53.8,1.27.67,2.16,1.82,3.04,2.91.99,1.21,2.07,2.34,3.12,3.49.5.54,1.08.72,1.75.95.08.03.13.1.15.18l.06.39c.02.15-.11.28-.26.25-.74-.14-1.33.06-1.73.62-.76.93-1.58,1.81-2.38,2.69s-1.59,1.72-2.63,2.26c-1.01.53-2.17.76-3.25,1.1-1.17.37-2.31.82-3.5,1.15-4.43,1.23-9.15,1.6-13.67.66-2.55-.53-5.32-1.31-7.49-2.8-2.1-1.44-4.01-3.28-6.34-4.35Z"/>
  <path class="cls-11" d="m613.3,481.1c-.38.1-.72-.25-.6-.63.29-.94.6-1.91.56-2.85-.07-1.46-.13-2.88.03-4.34.17-1.51.48-3,.93-4.44.9-2.9,2.33-5.62,4.2-8.01,1.55-1.99,3.42-3.68,5.44-5.16,3.09-2.27,6.19-4.72,9.62-6.45.93-.47,1.87-.94,2.89-1.14,1.64-.33,3.3.06,4.9.4,1.78.37,3.6.6,5.41.87.85.12,1.51-.15,2.29-.42.09-.03.19-.01.27.05l.34.31c.13.12.11.34-.05.42-.78.42-1.16,1.03-1.11,1.84,0,1.41-.1,2.8-.18,4.2s-.18,2.73-.72,3.99c-.52,1.23-1.41,2.28-2.14,3.39-.79,1.2-1.5,2.44-2.33,3.62-3.12,4.38-7.12,8.19-11.93,10.67-2.71,1.4-5.79,2.73-8.86,2.98-2.96.24-6.05-.02-8.95.72Z"/>
  <path class="cls-9" d="m562.24,613.78c-.53.02-.88-.55-.62-1.01.67-1.16,1.37-2.37,1.59-3.64.34-1.98.67-3.89,1.32-5.79.66-1.96,1.53-3.86,2.55-5.65,2.05-3.6,4.77-6.82,7.96-9.46,2.66-2.19,5.64-3.9,8.78-5.29,4.79-2.11,9.65-4.48,14.73-5.78,1.37-.35,2.77-.7,4.19-.67,2.28.05,4.38,1.06,6.42,1.97,2.27,1.02,4.63,1.87,6.96,2.75,1.1.42,2.06.25,3.18.11.13-.02.26.04.34.15l.36.52c.14.2.04.48-.19.55-1.16.34-1.85,1.04-2.03,2.13-.43,1.87-.96,3.71-1.47,5.55-.5,1.78-1.05,3.59-2.13,5.12-1.06,1.48-2.56,2.63-3.85,3.9-1.4,1.37-2.72,2.82-4.17,4.14-5.45,4.92-11.92,8.83-19.06,10.72-4.03,1.07-8.53,1.93-12.7,1.36-4.02-.55-8.07-1.81-12.16-1.68Z"/>
  <path class="cls-1" d="m753.8,663.81c-.55.17-1.07-.32-.92-.88.36-1.39.75-2.83.62-4.2-.2-2.13-.39-4.2-.26-6.35.14-2.21.5-4.41,1.06-6.55,1.11-4.29,3.02-8.37,5.59-11.99,2.13-3.01,4.74-5.6,7.6-7.91,4.36-3.52,8.71-7.32,13.6-10.07,1.32-.75,2.67-1.49,4.14-1.86,2.37-.59,4.82-.13,7.18.25,2.63.42,5.3.64,7.96.9,1.26.12,2.2-.32,3.32-.77.13-.05.28-.03.39.06l.52.43c.2.17.18.49-.05.62-1.11.67-1.62,1.59-1.5,2.76.08,2.05.04,4.09.02,6.14-.02,1.98-.08,4-.78,5.88-.68,1.83-1.91,3.43-2.89,5.1-1.07,1.81-2.02,3.67-3.16,5.44-4.26,6.61-9.85,12.44-16.69,16.39-3.86,2.23-8.28,4.37-12.74,4.95-4.31.55-8.84.38-13.03,1.66Z"/>
  <path class="cls-2" d="m398.51,335.22c-.26.36-.81.3-.98-.11-.43-1.03-.86-2.1-1.58-2.89-1.12-1.23-2.21-2.41-3.13-3.81-.95-1.43-1.75-2.96-2.41-4.55-1.32-3.17-2.05-6.59-2.16-10.03-.09-2.86.31-5.69.99-8.45,1.05-4.22,1.96-8.6,3.7-12.6.47-1.08.95-2.17,1.69-3.09,1.19-1.47,2.92-2.34,4.56-3.21,1.82-.97,3.58-2.09,5.34-3.17.83-.51,1.21-1.23,1.69-2.03.06-.09.16-.15.27-.15l.52.02c.2,0,.34.22.26.41-.37.93-.26,1.74.36,2.41,1.01,1.23,1.94,2.51,2.89,3.79s1.82,2.51,2.27,4c.44,1.45.43,3.01.6,4.51.19,1.62.47,3.22.6,4.84.46,6.08-.26,12.31-2.65,17.95-1.35,3.19-3.07,6.58-5.56,9.02-2.41,2.36-5.29,4.37-7.28,7.13Z"/>
  <path class="cls-7" d="m307.42,503.67c-.16.42-.7.5-.97.15-.68-.88-1.39-1.8-2.29-2.37-1.41-.89-2.77-1.75-4.02-2.84-1.29-1.13-2.47-2.39-3.53-3.75-2.11-2.71-3.72-5.82-4.73-9.1-.84-2.73-1.2-5.56-1.27-8.41-.1-4.34-.38-8.82.24-13.13.17-1.17.34-2.35.81-3.43.76-1.74,2.2-3.02,3.55-4.3,1.5-1.42,2.9-2.96,4.31-4.47.67-.71.84-1.5,1.09-2.4.03-.11.12-.19.22-.21l.51-.12c.2-.04.38.12.36.32-.11,1,.21,1.75.99,2.23,1.3.92,2.54,1.91,3.79,2.89,1.21.95,2.42,1.94,3.25,3.26.8,1.28,1.21,2.79,1.77,4.19.61,1.51,1.3,2.98,1.85,4.51,2.05,5.74,3,11.94,2.18,18.01-.46,3.43-1.22,7.16-2.98,10.17-1.7,2.91-3.95,5.61-5.14,8.79Z"/>
  <path class="cls-1" d="m415.34,382.73c-.27.35-.82.28-.98-.13-.4-1.04-.81-2.13-1.51-2.93-1.09-1.25-2.15-2.47-3.03-3.88-.91-1.46-1.68-3-2.3-4.61-1.24-3.21-1.88-6.64-1.9-10.08-.01-2.86.45-5.68,1.21-8.42,1.16-4.19,2.18-8.55,4.02-12.5.5-1.07,1.01-2.15,1.77-3.04,1.23-1.44,2.98-2.26,4.64-3.09,1.85-.92,3.63-2,5.42-3.03.85-.49,1.24-1.2,1.74-1.99.06-.09.16-.15.27-.14l.52.04c.2.01.33.23.25.41-.39.92-.3,1.73.3,2.42.98,1.26,1.88,2.56,2.79,3.86.88,1.26,1.76,2.55,2.17,4.06.4,1.46.35,3.02.48,4.52.15,1.62.39,3.23.47,4.86.3,6.09-.58,12.29-3.11,17.88-1.43,3.15-3.24,6.5-5.79,8.88-2.47,2.3-5.4,4.23-7.46,6.94Z"/>
  <path class="cls-1" d="m384.8,410.03c-.18.33-.65.33-.84,0-.46-.83-.92-1.69-1.61-2.28-1.06-.93-2.09-1.82-2.99-2.91-.93-1.12-1.76-2.32-2.46-3.6-1.41-2.55-2.35-5.35-2.76-8.24-.34-2.4-.28-4.81.04-7.2.48-3.65.84-7.43,1.92-10.95.29-.95.59-1.92,1.13-2.76.86-1.35,2.24-2.24,3.53-3.13,1.44-.99,2.81-2.1,4.19-3.17.65-.51.9-1.15,1.23-1.87.04-.08.12-.14.21-.15l.44-.03c.17-.01.31.15.26.32-.22.82-.05,1.49.54,1.99.97.94,1.87,1.93,2.79,2.91s1.77,1.94,2.29,3.15c.5,1.18.65,2.5.93,3.74.31,1.34.7,2.66.96,4.02.96,5.07.94,10.38-.53,15.36-.83,2.81-1.96,5.83-3.82,8.12-1.8,2.21-4.04,4.18-5.45,6.69Z"/>
  <path class="cls-1" d="m764.22,360.22c-.18.29-.62.27-.78-.03-.4-.76-.82-1.55-1.44-2.11-.97-.87-1.9-1.71-2.72-2.72-.84-1.04-1.58-2.15-2.2-3.32-1.25-2.34-2.05-4.89-2.36-7.5-.26-2.16-.13-4.33.23-6.47.55-3.26.99-6.64,2.09-9.77.3-.85.61-1.7,1.13-2.44.84-1.19,2.15-1.94,3.39-2.69,1.38-.84,2.69-1.78,4.01-2.7.63-.43.88-1,1.2-1.64.04-.07.12-.12.2-.13h.41c.16-.01.28.14.23.28-.23.73-.09,1.34.45,1.81.88.88,1.7,1.8,2.53,2.72.8.89,1.6,1.8,2.05,2.91.44,1.08.53,2.27.77,3.39.25,1.22.58,2.42.79,3.64.76,4.59.6,9.36-.92,13.77-.85,2.49-1.99,5.16-3.8,7.16-1.74,1.93-3.89,3.61-5.28,5.81Z"/>
  <path class="cls-1" d="m679.04,483.81c-.23.15-.53-.01-.54-.29-.01-.69-.02-1.4-.25-2.02-.37-.96-.72-1.89-.93-2.9-.22-1.04-.34-2.1-.36-3.16-.04-2.12.32-4.25,1.04-6.25.6-1.66,1.47-3.2,2.49-4.63,1.56-2.19,3.08-4.5,4.98-6.4.51-.51,1.04-1.03,1.67-1.39,1.02-.58,2.21-.68,3.35-.81,1.27-.14,2.53-.39,3.79-.61.6-.1.97-.43,1.43-.78.05-.04.13-.05.19-.02l.3.13c.12.05.15.2.06.29-.42.45-.54.94-.34,1.47.3.94.55,1.88.8,2.83s.48,1.85.4,2.81c-.08.93-.44,1.83-.68,2.73-.26.97-.46,1.95-.76,2.92-1.11,3.6-2.94,7.01-5.59,9.71-1.5,1.53-3.26,3.08-5.24,3.92-1.92.81-4.03,1.31-5.8,2.44Z"/>
  <path class="cls-8" d="m477.26,683.4c.39.62-.04,1.42-.77,1.43-1.83.02-3.75.03-5.39.65-2.57.97-5.05,1.9-7.74,2.45-2.77.57-5.61.87-8.44.9-5.67.07-11.35-.91-16.67-2.85-4.43-1.62-8.51-3.96-12.32-6.71-5.81-4.19-11.96-8.28-17.01-13.39-1.37-1.38-2.74-2.79-3.69-4.48-1.53-2.73-1.79-5.9-2.12-8.95-.37-3.39-1-6.76-1.57-10.12-.27-1.59-1.13-2.61-2.07-3.83-.11-.14-.13-.34-.06-.5l.36-.79c.14-.31.54-.38.78-.15,1.2,1.14,2.5,1.46,3.91.92,2.5-.79,5.04-1.43,7.57-2.1s4.96-1.25,7.51-1.02c2.49.22,4.88,1.19,7.27,1.85,2.59.71,5.21,1.25,7.77,2.06,9.58,3.02,18.67,7.95,25.85,15.07,4.05,4.02,8.19,8.73,10.4,14.04,2.14,5.13,3.45,10.78,6.44,15.51Z"/>
  <path class="cls-2" d="m225.26,302.78c-.54.41-1.33.08-1.39-.6-.16-1.7-.32-3.48-1.02-4.96-1.1-2.31-2.15-4.54-2.88-7-.75-2.53-1.24-5.14-1.49-7.77-.51-5.26-.04-10.61,1.36-15.71,1.16-4.24,3.02-8.21,5.27-11.96,3.44-5.72,6.77-11.75,11.12-16.84,1.18-1.38,2.38-2.76,3.88-3.78,2.42-1.63,5.34-2.12,8.15-2.66,3.12-.61,6.2-1.45,9.28-2.25,1.46-.38,2.33-1.26,3.4-2.22.13-.11.3-.15.46-.09l.76.27c.3.11.4.47.2.72-.96,1.21-1.16,2.44-.55,3.7.93,2.26,1.72,4.57,2.54,6.87s1.55,4.51,1.53,6.9c-.01,2.33-.73,4.62-1.15,6.89-.45,2.46-.76,4.94-1.31,7.38-2.07,9.14-5.94,17.96-11.99,25.17-3.42,4.07-7.48,8.28-12.24,10.75-4.6,2.38-9.74,4.04-13.91,7.18Z"/>
  <path class="cls-2" d="m792.23,208.31c.08.48-.39.87-.84.69-1.14-.46-2.32-.95-3.5-.99-1.83-.06-3.61-.13-5.42-.49-1.86-.36-3.69-.91-5.44-1.62-3.52-1.42-6.77-3.49-9.56-6.07-2.31-2.14-4.23-4.64-5.87-7.32-2.5-4.09-5.25-8.21-7.04-12.66-.49-1.2-.97-2.43-1.12-3.72-.24-2.08.42-4.1,1-6.07.65-2.19,1.13-4.43,1.64-6.65.24-1.05-.03-1.9-.29-2.9-.03-.12,0-.24.09-.33l.42-.39c.17-.15.43-.1.52.11.45,1.01,1.17,1.55,2.18,1.58,1.75.16,3.48.42,5.21.66,1.68.24,3.38.51,4.9,1.31,1.48.78,2.7,2,4.01,3.02,1.42,1.1,2.89,2.12,4.27,3.28,5.14,4.34,9.47,9.73,12.06,15.98,1.46,3.53,2.8,7.51,2.79,11.36,0,3.72-.66,7.54-.03,11.24Z"/>
  <path class="cls-9" d="m636.86,260.89c0,.32-.35.52-.62.35-.68-.42-1.39-.87-2.14-1.02-1.17-.24-2.3-.48-3.42-.91-1.16-.44-2.27-.99-3.32-1.64-2.1-1.3-3.97-2.99-5.47-4.95-1.25-1.63-2.21-3.45-2.97-5.35-1.16-2.9-2.47-5.85-3.13-8.91-.18-.83-.36-1.67-.31-2.51.08-1.36.72-2.59,1.31-3.79.66-1.33,1.21-2.72,1.79-4.09.27-.65.19-1.22.13-1.89,0-.08.03-.16.1-.2l.32-.21c.12-.08.29-.02.32.13.18.7.58,1.12,1.22,1.25,1.11.29,2.19.65,3.28,1s2.12.7,3.01,1.38c.86.66,1.52,1.58,2.24,2.38.79.86,1.63,1.68,2.38,2.58,2.82,3.35,5.02,7.29,5.99,11.59.55,2.43.97,5.13.55,7.6-.41,2.39-1.25,4.77-1.25,7.22Z"/>
  <path class="cls-2" d="m816.02,385.57c.15.45.74.57,1.04.21.77-.92,1.57-1.88,2.56-2.46,1.55-.89,3.05-1.76,4.45-2.89,1.44-1.16,2.76-2.47,3.95-3.89,2.38-2.83,4.24-6.11,5.47-9.6,1.02-2.91,1.53-5.94,1.72-9,.29-4.67.77-9.48.29-14.14-.13-1.26-.27-2.54-.73-3.72-.75-1.9-2.24-3.35-3.64-4.78-1.56-1.59-3-3.31-4.46-4.99-.69-.8-.85-1.65-1.08-2.63-.03-.12-.12-.21-.23-.24l-.54-.14c-.21-.06-.42.11-.4.33.08,1.08-.3,1.87-1.16,2.36-1.44.94-2.81,1.95-4.2,2.95-1.34.97-2.69,1.99-3.63,3.37-.92,1.35-1.42,2.96-2.08,4.44-.72,1.6-1.53,3.15-2.18,4.78-2.44,6.09-3.72,12.73-3.1,19.3.35,3.71,1.02,7.75,2.79,11.07,1.71,3.21,4.02,6.21,5.17,9.68Z"/>
  <path class="cls-9" d="m433.13,93.28c4.7,3.3,8.95,7.25,13.82,10.3,4.63,2.9,10.08,4.21,15.41,4.97,4.26.6,8.55.9,12.84.7,2.21-.1,4.42-.32,6.62-.63,3.98-.56,7.94-1.32,11.83-2.32,1.7-.44,3.15-1,4.7-1.81,2.22-1.17,4.65-.99,6.96-1.82,4.49-1.61,8.32-5.64,11.18-9.4,1.64-2.16,3.37-3.49,5.18-3.9.04,0,.07-.04.07-.09l.05-1.51s-.02-.08-.06-.09c-.26-.09-1.26-.46-1.37-.71s-.1-.51-.11-.77c-.04-2.16-.7-4.31-1.9-6.11-2.95-4.43-6.97-8.22-11.61-10.74-4.71-2.55-10.13-3.44-15.41-3.35-6.14.11-11.95,1.68-17.94,2.76-5.71,1.03-11.12,2.46-16.52,4.65-2.47,1-4.85,2.18-7.29,3.23-6.45,2.79-10.09,7.65-12.92,13.12-1.2,1.6-2.38,2.73-3.54,3.5Z"/>
  <path class="cls-1" d="m566.63,138.19c-4.52,4.76-8.39,10.15-13.15,14.67s-10.34,7.01-16.14,9.06c-4.63,1.64-9.37,2.95-14.23,3.7-2.51.39-5.03.65-7.56.8-4.59.27-9.19.32-13.79.08-2-.1-3.76-.4-5.68-.96-2.75-.8-5.44-.05-8.21-.46-5.4-.79-10.61-4.43-14.66-8-2.33-2.05-4.56-3.14-6.68-3.2-.05,0-.09-.03-.1-.08l-.4-1.68s0-.09.05-.12c.27-.17,1.31-.81,1.38-1.11s0-.59-.06-.89c-.45-2.43-.19-4.99.74-7.28,2.3-5.63,5.94-10.79,10.57-14.67,4.7-3.93,10.58-6.16,16.51-7.25,6.9-1.27,13.78-.83,20.73-.97,6.63-.13,13.02.24,19.57,1.47,2.99.56,5.93,1.34,8.9,1.97,7.86,1.66,13.05,6.29,17.45,11.78,1.71,1.52,3.28,2.52,4.76,3.12Z"/>
  <path class="cls-7" d="m305.4,322.48c-1.47-2.67-3.31-5.14-4.63-7.88s-1.64-5.55-1.74-8.41c-.07-2.28.02-4.56.37-6.81.18-1.16.42-2.31.71-3.45.53-2.07,1.15-4.11,1.9-6.1.33-.87.71-1.61,1.23-2.38.74-1.1.79-2.4,1.36-3.56,1.11-2.28,3.45-4.06,5.6-5.35,1.23-.74,2.03-1.57,2.35-2.5,0-.02.03-.03.05-.03l.8.06s.04.02.04.04c.03.14.17.69.3.76s.26.08.4.1c1.14.14,2.23.62,3.11,1.35,2.17,1.81,3.93,4.14,4.99,6.73,1.08,2.63,1.23,5.54.88,8.31-.41,3.23-1.57,6.2-2.49,9.3s-1.94,5.72-3.4,8.44c-.67,1.24-1.43,2.43-2.12,3.66-1.84,3.24-4.61,4.88-7.66,6.06-.91.54-1.57,1.1-2.05,1.67Z"/>
  <path class="cls-8" d="m346.35,378.85c3.09-2.28,6.5-4.14,9.47-6.57,2.82-2.32,4.82-5.5,6.43-8.71,1.29-2.57,2.39-5.23,3.18-7.99.41-1.43.74-2.87,1.01-4.33.49-2.64.85-5.31,1.05-8,.08-1.17.04-2.21-.15-3.37-.27-1.66.36-3.16.33-4.8-.07-3.19-1.81-6.48-3.58-9.09-1.02-1.5-1.49-2.88-1.37-4.11,0-.03-.01-.05-.04-.06l-.95-.36s-.05,0-.07.02c-.12.15-.56.7-.74.72s-.34-.04-.51-.1c-1.38-.44-2.89-.47-4.28-.1-3.44.93-6.7,2.67-9.28,5.08-2.62,2.44-4.34,5.69-5.4,9.06-1.24,3.91-1.48,7.94-2.06,11.96s-.81,7.58-.57,11.47c.11,1.78.35,3.54.5,5.31.4,4.69,2.71,8.03,5.57,10.98.76,1.1,1.22,2.09,1.47,2.99Z"/>
  <path class="cls-9" d="m469.58,618.36c-1.05-3.69-1.6-7.54-2.84-11.17-1.18-3.46-3.46-6.44-5.91-9.07-1.96-2.11-4.06-4.07-6.38-5.77-1.19-.88-2.43-1.7-3.7-2.46-2.31-1.38-4.68-2.66-7.13-3.78-1.06-.49-2.06-.81-3.21-1.04-1.64-.33-2.84-1.45-4.38-1.99-3.01-1.05-6.7-.58-9.77.18-1.77.43-3.22.39-4.33-.15-.02-.01-.05,0-.07.01l-.67.76s-.02.05,0,.07c.1.16.46.77.41.95s-.16.31-.27.44c-.89,1.14-1.45,2.54-1.59,3.97-.33,3.54.16,7.21,1.51,10.47s3.82,6.06,6.6,8.23c3.23,2.53,6.92,4.16,10.49,6.12,3.4,1.87,6.82,3.41,10.55,4.54,1.7.52,3.44.91,5.15,1.39,4.53,1.27,8.47.27,12.24-1.38,1.3-.33,2.39-.42,3.32-.33Z"/>
  <path class="cls-2" d="m478.84,568.17c-.87-3.05-1.32-6.22-2.35-9.22s-2.86-5.31-4.88-7.49c-1.62-1.74-3.35-3.36-5.26-4.76-.99-.73-2.01-1.4-3.06-2.03-1.9-1.14-3.86-2.19-5.88-3.12-.88-.4-1.7-.67-2.65-.86-1.36-.27-2.34-1.19-3.62-1.64-2.49-.87-5.53-.47-8.06.14-1.46.36-2.66.32-3.58-.13-.02,0-.04,0-.06.01l-.55.63s-.02.04,0,.06c.08.13.38.64.34.78s-.13.25-.22.37c-.74.94-1.2,2.09-1.31,3.28-.28,2.92.13,5.95,1.24,8.64,1.13,2.73,3.15,5,5.44,6.79,2.67,2.09,5.71,3.44,8.65,5.05s5.63,2.81,8.7,3.75c1.41.43,2.84.75,4.25,1.15,3.74,1.05,6.99.23,10.1-1.14,1.07-.27,1.97-.34,2.74-.27Z"/>
  <path class="cls-2" d="m833.86,542.75c-4.24.94-8.61,1.3-12.8,2.47-3.98,1.1-7.49,3.48-10.63,6.07-2.51,2.07-4.86,4.31-6.94,6.81-1.07,1.29-2.08,2.63-3.02,4.01-1.71,2.51-3.31,5.1-4.74,7.79-.62,1.17-1.05,2.27-1.39,3.55-.48,1.83-1.82,3.1-2.53,4.81-1.39,3.33-1.09,7.52-.45,11.03.37,2.02.23,3.66-.46,4.88-.02.03-.01.06.01.08l.82.8s.06.03.08.01c.19-.1.9-.47,1.1-.4s.34.2.48.33c1.23,1.08,2.77,1.81,4.38,2.06,3.98.61,8.14.3,11.91-1,3.83-1.33,7.09-3.9,9.73-6.89,3.07-3.48,5.16-7.53,7.6-11.42,2.33-3.72,4.3-7.47,5.83-11.6.7-1.89,1.26-3.82,1.91-5.72,1.73-5.02.87-9.54-.74-13.9-.28-1.49-.31-2.72-.15-3.76Z"/>
  <path class="cls-1" d="m216.07,421.43c7.98,4.71,16.62,8.34,24.35,13.47,7.35,4.87,12.91,12.02,17.57,19.35,3.72,5.86,7.02,11.97,9.58,18.42,1.32,3.33,2.48,6.72,3.49,10.15,1.82,6.23,3.34,12.55,4.47,18.95.49,2.78.63,5.3.47,8.13-.24,4.04,1.65,7.5,1.96,11.45.62,7.68-2.75,16-6.38,22.7-2.09,3.86-2.89,7.27-2.29,10.21.01.06-.02.13-.08.16l-2.19,1.09c-.06.03-.13.02-.18-.03-.31-.33-1.53-1.55-1.96-1.54s-.82.19-1.2.36c-3.2,1.39-6.81,1.84-10.25,1.28-8.48-1.38-16.73-4.77-23.53-9.92-6.89-5.22-11.82-12.61-15.19-20.43-3.92-9.1-5.49-18.7-7.88-28.23s-3.79-18-4.17-27.41c-.17-4.29-.02-8.58-.1-12.87-.19-11.35,4.54-19.94,10.7-27.74,1.55-2.83,2.43-5.32,2.79-7.54Z"/>
  <path class="cls-9" d="m782.33,404.5c-1.57-2.21-3.45-4.21-4.9-6.51s-2.02-4.75-2.39-7.27c-.3-2.01-.45-4.04-.36-6.07.04-1.05.14-2.09.28-3.13.26-1.88.6-3.76,1.07-5.6.2-.8.46-1.49.84-2.23.55-1.05.46-2.2.84-3.29.75-2.13,2.65-3.95,4.41-5.31,1.02-.78,1.64-1.6,1.83-2.46,0-.02.02-.03.04-.03l.71-.03s.04.01.04.03c.05.12.22.6.34.65s.24.05.36.05c1.02.01,2.04.32,2.89.88,2.1,1.38,3.9,3.27,5.11,5.46s1.65,4.78,1.62,7.28c-.04,2.9-.76,5.66-1.26,8.49-.47,2.7-1.13,5.27-2.16,7.82-.47,1.17-1.02,2.3-1.51,3.45-1.3,3.06-3.59,4.79-6.17,6.14-.75.57-1.28,1.13-1.65,1.68Z"/>
  <path class="cls-8" d="m707.01,256.78c-6.12-.68-12.35-.53-18.44-1.54-5.78-.95-11.1-3.77-15.93-6.95-3.85-2.54-7.52-5.35-10.82-8.56-1.71-1.66-3.33-3.4-4.88-5.21-2.8-3.28-5.45-6.7-7.87-10.28-1.05-1.56-1.83-3.04-2.5-4.8-.96-2.52-3.04-4.1-4.31-6.41-2.47-4.49-2.69-10.45-2.31-15.51.22-2.91-.23-5.2-1.39-6.82-.03-.04-.02-.08,0-.12l1.03-1.26s.07-.05.11-.03c.28.11,1.35.52,1.61.4s.44-.34.63-.55c1.57-1.71,3.63-2.97,5.87-3.57,5.52-1.47,11.45-1.66,16.97-.39,5.6,1.29,10.6,4.43,14.78,8.26,4.86,4.45,8.42,9.85,12.47,14.97,3.86,4.89,7.2,9.89,9.99,15.49,1.27,2.56,2.35,5.2,3.56,7.78,3.21,6.83,2.68,13.33,1.07,19.74-.17,2.14-.02,3.89.36,5.33Z"/>
  <path class="cls-10" d="m621.51,382.99c0,12.99-2.73,25.33-7.65,36.5-1.13-9.32-5.7-18.96-8.57-23.66-3.52-5.79-8.07-8.59-12.07-11.06-.81-.5-1.6-.99-2.4-1.52-1.14-.75-2.29-1.35-3.3-1.89-.46-.25-1.05-.56-1.54-.86,1.69-2.27,6.95-10.68,6.95-27.21,0-12.3-6.79-25.54-21.69-25.54s-23.09,9.19-23.09,23.97c0,22.15,3.23,27.08,4.54,28.71-.64.34-1.37.7-1.95.97l-.55.27c-.72.36-1.65.72-2.64,1.12-.44.18-.9.36-1.39.56-2.67-2.35-6.43-4.14-11.72-4.78-5.37-7.8-12.1-9.05-16.61-9.9-1.24-.23-2.4-.45-3.33-.75-.46-.15-1.92-.62-2.22-.71,3.21-4.61,4.84-15.49,4.84-32.39s-9.9-26.82-25.82-26.82-24.19,14.85-24.19,28.65c0,18.07,5.47,27.58,7.59,30.6-.77.43-1.88.93-3.34,1.35-8.19,2.4-14.01,6.81-18.3,13.87-4.11,6.76-7.58,18.45-8.56,28.14-2.79-8.71-4.3-17.99-4.3-27.63,0-50.07,40.59-90.65,90.65-90.65s90.65,40.58,90.65,90.65Z"/>
  <path class="cls-5" d="m505.41,402.55c0,7.52,1.61,13.68,4.91,18.72-4.07,2.07-7.3,5.1-9.78,9.19-3.57,5.88-6.61,17.27-6.61,24.86,0,1.24,0,3.21.29,5.48-9.85-5.02-19.91-13.13-25.62-19.45-6.76-7.5-15.66-22.58-15.66-25.64,0-9.58,3.99-22.81,7.56-28.69,3.13-5.16,7.23-8.25,13.29-10.03,2.7-.79,9.12-3.14,10.33-7.9.4-1.6.38-4.02-2.09-6.55-.54-.7-6.23-8.55-6.23-25.88,0-7.4,3.27-19.93,15.48-19.93,14.13,0,17.09,9.85,17.09,18.11,0,23.11-3.24,27.37-3.27,27.41-1.63,1.99-3.69,4.98-2.78,8.01.96,3.25,4.44,4.37,8.12,5.55l1.32.42c1.47.49,2.98.76,4.44,1.04.7.13,1.38.25,2.06.4-8.55,3.66-12.88,11.99-12.88,24.88Z"/>
  <path class="cls-9" d="m605.39,423.56c-.25,2.8-9.85,15.6-16.05,21.39-4.12,3.84-11.65,10.32-19.84,14.71.04-2.16-.14-4.02-.28-5.28-.04-.53-.15-1.54-.15-1.93,0-5.69-3.14-17.1-7.37-23.84-2.91-4.66-6.47-6.9-9.78-8.11,2.46-4.58,3.55-10.33,3.55-18.37,0-2.57,0-7.48-1.82-12.43.13-.06.92-.45.92-.45,3.37-1.64,6.83-3.32,7.58-6.77.5-2.25-.33-4.66-2.54-7.36-.03-.03-2.73-3.64-2.73-23.39,0-6.95,2.49-15.26,14.37-15.26,10.23,0,12.96,10.57,12.96,16.83,0,15.45-5.27,22.08-5.33,22.14l-.14.17-.13.21c-1.63,2.74-2.11,5.1-1.52,7.23.88,3.11,3.78,4.66,6.34,6.02.88.47,1.79.95,2.59,1.47.86.57,1.75,1.11,2.63,1.65,3.48,2.14,6.77,4.17,9.19,8.18,3.03,4.99,7.55,15.28,7.55,23.18Z"/>
  <path class="cls-4" d="m556.39,464.53c-.5.4-1.15.71-1.93.92l-2.71.71c-2.34.63-4.27,1.14-6.05,1.56-3.42.81-6.2,1.28-10.29,1.28-1.14,0-2.36-.03-3.74-.11-3.6-.18-7.4-.4-10.9-.75-5.58-.56-9.57-1.36-11.82-2.42l-.25-.11c-1.64-.86-3.24-2.88-3.24-10.28,0-5.97,2.68-15.21,4.91-18.88,1.91-3.13,4.3-4.92,8-6.01,2.36-.7,6.45-2.38,7.33-5.8.26-1.06.4-3.14-1.68-5.23-.25-.25-.54-.51-.86-.82-2.48-2.34-6.23-5.87-6.23-16.03,0-8.16,1-15.51,13.06-15.51h.18c.22,0,.44,0,.65.03,2.36.06,4.35.36,6.04.92l.5.18c.53.19,1.02.42,1.46.67,1.47.81,2.57,1.85,3.38,3.24,1.65,2.84,1.79,6.52,1.79,10.05,0,4.48-.38,7.9-1.15,10.47l-.1.32c-.95,2.92-2.27,4.23-3.94,5.88l-.17.15c-.58.6-1.08,1.17-1.5,1.75l-.53.72v.13c-1.04,1.91-.81,3.43-.35,4.45v.25l.64.78c1.18,1.45,3.11,2.17,5.33,2.89.58.18,1.2.35,1.88.49.35.07.72.14,1.1.21,2.67.5,4.78.89,6.79,4.09,3.2,5.12,5.6,14.28,5.6,17.73,0,.93.11,1.97.22,3.07.32,3.24.72,7.29-1.4,9.01Z"/>
  <g id="paiche.psd">
    <path class="cls-9" d="m634.29,306.99c7,3.41,14.07,6.69,20.99,10.26,4.87,2.51,9.56,5.36,14.3,8.12,1.56.9,2.98,1.87,2.56,4.18-.25,1.37-.19,2.99.31,4.27.54,1.38,1.51,2.93,2.73,3.64,1.43.83,2.92-.11,3.87-1.54.24-.36.63-.62,1.66-1.62.93,3.68,2.09,6.78,2.44,9.97,1.03,9.61,4,18.66,8.84,26.87,3.62,6.16,9.16,10.77,16.33,12.86,2.5.73,4.22-.4,4.69-2.99q2.74.79,2.56,6.54c4.58,2.77,9.25,2.34,13.9.15,1.48-.7,3-1.51,4.18-2.61,4.97-4.66,5.41-10.58,4.29-16.85-.38-2.13-1.56-1.87-3.16-1.08-3.13,1.56-4.35.66-4.27-3.16l1.89,1.62c.42-.38.8-.62,1.04-.96,6.38-9.16,5.91-19.01,2.66-29.06-1.24-3.83-2.48-7.74-4.37-11.27-2.68-5.01-6.46-8.95-11.66-11.87-4.71-2.65-8.57-6.77-12.96-10.06-7.01-5.25-14.02-10.51-21.25-15.45-10.37-7.09-21.84-12.08-33.91-15.23-6.53-1.7-13.52-1.79-20.32-2.21-6.55-.4-13.02-.88-19.26-3.17-3.61-1.33-7.45-2.04-11.01-3.45-5.49-2.17-10.81-4.77-16.26-7.05-.47-.2-.99-.29-1.52-.33-1.25-.11-2.36.83-2.44,2.09-.03.55,0,1.07.17,1.54,3.3,8.5,7.72,16.15,14.31,22.82,6.51,6.58,14.42,10.78,21.91,15.74,1.79,1.19,3.74,2.16,5.53,3.35.62.42,1.12,1.15,1.47,1.84,1.88,3.68,3.59,7.45,5.62,11.04.59,1.05,2.29,2.44,3.04,2.22,1.59-.47,2.26-2.14,1.75-3.99-.43-1.56-.78-3.14-1.18-4.7l.55-.45Z"/>
  </g>
  <g id="rana2.psd">
    <path class="cls-8" d="m789.15,286.1c-3.19-1.88-6.24-3.71-9.34-5.47-.95-.54-2-.91-3.03-1.3-1.37-.52-2.85-.83-4.13-1.51-1.83-.97-3.54-2.2-5.29-3.32-.19-.12-.32-.35-.51-.44-.45-.21-.84-.22-.8.47.06.86.03,1.75.21,2.58.27,1.26-.31,1.88-1.52,2.44-.86.39-1.96.28-2.38-.51-.22-.42-.18-1.16.05-1.6.86-1.72,1.18-3.45.68-5.35-.21-.82-.66-1.29-1.37-1.57-.19-.07-.53,0-.69.13-2.47,2.17-5.54,2.78-8.63,3.07-3.9.36-7.82.49-11.74.59-1.1.03-2.25-.26-3.32-.6-1.19-.38-1.55-1.41-1.36-3.09.06-.5.06-1.02,0-1.52-.16-1.27.29-1.75,1.43-1.28,1.44.6,2.83.45,4.33.37,1.54-.08,3.04-.08,4.54-.55,1.93-.6,3.92-1.01,5.87-1.56.57-.16,1.09-.51,1.58-.74-1.97-1.23-3.92-2.39-5.8-3.66-1.05-.71-1.61-1.82-1.9-3.07-.09-.38-.29-.8-.57-1.06-4.49-4.12-9.04-8.18-13.5-12.34-1.78-1.66-3.28-3.58-4.23-5.87-1.15-2.77-.68-5.35,1.01-7.71.79-1.11,1.75-2.12,2.71-3.09.33-.34.9-.61,1.37-.61,2.78-.05,5.4-.7,7.99-1.71,2.06-.81,4.22-1.38,6.35-2,.82-.24,1.11-.71,1.24-1.52.38-2.43,1.04-4.76,2.85-6.58,1.27-1.27,2.83-2.07,4.55-2.47,1.47-.34,2.97-.61,4.47-.77,2.81-.3,5.08,1,7.14,2.68,2.22,1.81,3.67,4.2,4.63,6.86.45,1.23,1.87,1.86,3.07,1.86.47,0,.95.25,1.42.4.45.14.9.27,1.33.46.94.41,1.93.76,2.79,1.31,1.13.72,2.17,1.59,3.24,2.42.72.56,1.55.74,2.42.97,1.33.34,2.68.61,3.8,1.76.94.96,1.99,2,3.81,1.85.99-.09,2.24,0,3.28.25.98.24,1.82,1.02,2.75,1.51.35.18.77.28,1.17.3.73.04,1.49-.12,2.2.01,1.32.24,2.67.5,3.91.99,1.89.74,3.79.61,5.73.48,3.12-.21,6.22-.12,9.33.3,2.11.29,3.58,1.45,5.01,2.81,1.91,1.82,3.82,3.64,5.74,5.44,2.05,1.92,4.05,3.9,6.2,5.71.99.83,2.21,1.48,3.44,1.9,1.62.55,3.34.8,5.02,1.18.16.04.32.08.48.13,2.39.72,4.76,1.47,7.16,2.16,2.08.6,4.19,1.09,6.26,1.73.78.24,1.55.67,2.21,1.16,1.47,1.11,1.68,3.32.69,5.13-.83,1.51-2.13,2.38-3.74,2.61-1.6.24-3.24.18-4.86.26-.51.02-1.01.08-1.72.14.68.73,1.21,1.32,1.76,1.89.7.72.82,1.54.6,2.5-.39,1.72-1.29,3.16-2.28,4.57-.12.17-.21.36-.36.61,2.97-.36,5.81-.71,8.66-1.05.93-.11,1.86-.27,2.78-.23.63.03,1.38.23,1.85.62,1.54,1.27,2.06,3.15,2.71,4.96.88,2.42-.06,4.29-1.79,5.84-4.17,3.74-8.33,7.51-12.63,11.1-3.66,3.06-7.51,5.9-11.29,8.83-1.3,1.01-2.63,1.97-3.97,2.93-.27.19-.61.38-.93.4-7.21.47-14.42.98-21.64,1.35-6.19.32-12.39.42-18.58.75-1.2.06-2.36.77-3.56,1.1-1.38.38-2.78.71-3.99-.5-.82-.81-.84-1.05-.13-1.79-.44-.34-.86-.72-1.33-1.04-.31-.21-.68-.4-1.05-.46-3.22-.51-6.38-1.22-9.46-2.34-2.12-.77-4.28-.9-6.45.19-.93.47-2.11.45-3.18.6-.21.03-.48-.15-.68-.29-1.05-.74-1.42-1.9-1.76-3.04-.18-.6,1.22-1.47,2.01-1.26.92.25,1.83.55,2.75.82.14.04.32,0,.47-.02,1.3-.19,2.6-.39,3.87-.57-.63-.45-1.43-1.04-2.23-1.62-1.09-.79-2.2-1.54-3.25-2.38-.75-.6-1.5-1.23-2.1-1.98-1.14-1.4-2.54-1.97-4.33-1.83-1.18.09-2.28-.36-3.21-1.08-.32-.24-.46-.71-.73-1.16-.62-.04-1.49.03-2.3-.16-1.48-.36-1.93-1.47-1.26-2.82,1.13-2.32,2.92-2.64,4.83-.93.29.26.77.46,1.16.46,1.68-.03,2.88,1,4.23,1.74,2.31,1.27,4.61,2.55,6.98,3.7.88.43,1.99.39,2.92.74,1.69.64,3.37,1.34,4.98,2.16,1.81.93,2.68.36,3.08-1.62.47-2.32,1.29-4.58,2.05-6.84.53-1.56,1.21-3.07,1.75-4.41Zm-35.76-16.64c-3.46-.25-6.69.54-9.86,1.74,1.67,1.57,9.15.25,9.86-1.74Z"/>
  </g>
</svg>