<?xml version="1.0" encoding="UTF-8"?>
<svg id="Capa_1" data-name="Capa 1" xmlns="http://www.w3.org/2000/svg" viewBox="0 0 1080 1080">
  <defs>
    <style>
      .cls-1 {
        stroke-width: 0px;
      }
    </style>
  </defs>
  <path class="cls-1" d="m1081.76,285.88H1.76v-8.82c11.32-2.41,22.76-.69,34.15-1.02,10.66-.31,21.34-.07,33.71-.07-13.47-13.44-25.18-25.7-37.58-37.23-5.53-5.14-6.3-8.19-.26-13.63,12.72-11.46,24.7-23.75,36.98-35.7l-1.28-2.35H1.76v-8.82h1080v8.82h-65.47l-.66,2.37c12.95,12.77,25.77,25.67,38.94,38.21,3.6,3.43,3.68,5.36.02,8.75-7.76,7.18-15.19,14.74-22.51,22.38-5.1,5.33-11.27,9.78-15.66,17.21,22.5-.44,43.92.86,65.34-.68v10.59Zm-741.37-10.62h133.91c-14.33-14.15-27.15-26.99-40.23-39.57-3.03-2.91-3.11-4.46-.04-7.43,12.45-12.06,24.7-24.35,36.82-36.75,2.73-2.79,4.15-3.62,7.39-.32,13.39,13.63,27.16,26.88,41.8,41.27-14.76,14.53-28.92,28.46-43.39,42.71h132.72c-10.21-9.88-19.03-18.1-27.46-26.69-5.3-5.41-14.72-9.89-14.72-16.57,0-6.67,9.35-11.23,14.6-16.69,8.59-8.94,17.44-17.62,26.97-27.2h-268.65c13.4,13.45,25.6,26.1,38.3,38.21,4.43,4.22,4.78,6.69.23,11.03-12.72,12.15-24.99,24.77-38.25,38Zm674.5-87.21h-135.79c13.35,13.1,24.93,25.18,37.35,36.34,6.35,5.7,6.39,9.02.06,14.76-12.48,11.31-24.13,23.53-36.77,36.01h134.02c-13.14-13.1-24.89-25.48-37.43-37.01-5.59-5.14-5.01-7.76.22-12.59,12.64-11.65,24.63-24.01,38.33-37.51Zm-404.4,87.11h133.05c-13.34-13.36-25.62-26.04-38.37-38.23-4.2-4.02-3.85-6.2.16-10.02,11.5-10.95,22.58-22.33,33.73-33.62,1.45-1.46,4.36-2.4,3.13-5.23h-132.5c13.93,13.83,26.48,26.6,39.43,38.94,4.02,3.83,3.75,5.94-.11,9.67-12.87,12.42-25.34,25.25-38.54,38.49ZM71.85,187.92c-.47,3.26,2.81,4.47,4.59,6.29,10.47,10.72,20.91,21.51,31.86,31.73,4.84,4.52,4.84,7.18,0,11.72-12.74,11.95-24.96,24.46-38.45,37.8h133.36c-14.88-14.52-29.11-28.39-45.2-44.08,15.58-15.04,30.01-28.97,45.01-43.46H71.85Zm267.1.28h-135.36c16.23,15.9,30.57,29.93,46.64,45.67-14.54,14.27-28.67,28.12-42.29,41.48h131.54c-13.65-13.43-25.77-25.8-38.44-37.59-4.8-4.47-5.14-7.17-.24-11.81,12.72-12.03,24.93-24.6,38.14-37.76Zm405.95,87.14h133.2c-2.53-2.72-3.99-4.39-5.55-5.95-11.01-11.01-21.89-22.18-33.17-32.91-3.65-3.47-3.88-5.42-.17-8.97,11.04-10.57,21.76-21.48,32.47-32.38,2.07-2.11,5.25-3.65,5.55-7.29h-130.54c-.21,3.3,2.35,4.28,3.87,5.82,11.14,11.31,22.23,22.68,33.69,33.66,3.84,3.67,4.04,5.66.02,9.45-12.96,12.21-25.47,24.9-39.35,38.59ZM69.89,203.9c-.88.58-1.71.94-2.3,1.54-7.84,7.87-15.6,15.83-23.5,23.65-2.89,2.87-.81,4.52,1.08,6.44,6.99,7.08,14.03,14.11,20.88,21.32,2.5,2.63,4.24,3.25,7.06.21,6.75-7.3,13.75-14.37,20.87-21.32,2.87-2.81,3.39-4.72.16-7.78-6.99-6.63-13.58-13.69-20.36-20.55-1.22-1.24-2.58-2.34-3.89-3.52Zm297.09,28.07c-.67-.99-1.18-2.03-1.95-2.82-7.55-7.75-15.22-15.38-22.68-23.22-2.79-2.93-4.38-1.16-6.32.82-6.96,7.1-13.93,14.19-21.01,21.18-2.39,2.36-3.58,4.24-.57,7.18,7.52,7.37,14.84,14.95,22.15,22.53,2.18,2.26,3.85,1.87,5.85-.2,7.33-7.57,14.74-15.05,22.11-22.58.81-.83,1.49-1.78,2.42-2.91Zm270.04.05c-.65-.97-1.03-1.77-1.62-2.38-7.77-7.95-15.62-15.81-23.33-23.82-2.39-2.48-3.96-1.21-5.75.61-7.18,7.3-14.32,14.63-21.64,21.79-2.72,2.66-2.64,4.68.02,7.29,7.08,6.98,14.12,14.01,20.93,21.25,2.95,3.14,4.9,2.9,7.74-.16,6.76-7.29,13.85-14.26,20.8-21.38.99-1.01,1.9-2.11,2.87-3.21Zm242.41,27.76c1.17-.98,2.14-1.65,2.95-2.47,7.41-7.5,14.68-15.14,22.23-22.49,2.71-2.64,1.75-4.18-.39-6.34-7.02-7.06-14-14.16-20.77-21.45-2.83-3.05-4.85-3.22-7.79-.11-6.84,7.22-13.91,14.24-21.05,21.17-2.63,2.56-3.01,4.57-.27,7.27,7.29,7.19,14.43,14.54,21.67,21.78.99.99,2.23,1.73,3.42,2.64Zm-434.03-28.08c9.19,8.95,17.51,16.8,25.49,24.98,3.04,3.12,4.92,2.81,7.73-.17,6.84-7.25,13.92-14.28,21.04-21.25,2.19-2.15,3.1-3.56.36-6.18-7.63-7.29-15.05-14.81-22.35-22.43-2.57-2.68-4.15-1.91-6.42.32-8.35,8.18-16.87,16.17-25.86,24.73Zm596.64.35c-.61-.89-1.12-1.93-1.89-2.71-7.62-7.69-15.39-15.25-22.9-23.05-2.88-2.99-4.52-1.01-6.4.89-7.21,7.28-14.28,14.71-21.66,21.81-2.65,2.55-2.03,3.9.27,6.12,7.35,7.13,14.49,14.49,21.71,21.77,1.63,1.65,3.08,3.85,5.69,1.21,7.81-7.92,15.68-15.78,23.5-23.69.6-.61,1.03-1.41,1.7-2.35Zm-866.54-.3c9,8.77,17.33,16.61,25.3,24.79,2.93,3,4.68,3.16,7.71.12,8.06-8.1,16.49-15.84,25.42-24.35-9.09-8.85-17.41-16.7-25.4-24.86-2.96-3.02-4.82-2.98-7.78-.02-8.07,8.1-16.45,15.89-25.25,24.32Zm568.99,28.07c1.14-.87,2.11-1.47,2.9-2.25,7.69-7.65,15.27-15.41,23.05-22.97,3.1-3.01.52-4.52-1.21-6.26-6.81-6.87-13.84-13.53-20.48-20.55-3.06-3.24-5.11-3.73-8.38-.18-6.55,7.12-13.4,13.97-20.41,20.63-2.95,2.8-3.27,4.46-.09,7.43,7.29,6.79,14.15,14.04,21.2,21.09,1,1,2.11,1.89,3.42,3.06Z"/>
  <path class="cls-1" d="m1081.76,741.18c-3.22-.16-6.44-.46-9.65-.46-353.57-.02-707.14-.02-1060.71,0-3.21,0-6.42.3-9.63.46,0-3.53,0-7.06,0-10.59h88.13c-3.11-4.89-5.55-8.72-8.75-13.75h25.95c-.33-5.87-5.71-8.31-6.01-13.82h25.06c-.1-1.21.03-1.84-.21-2.25-1.85-3.22-6.1-7.65-5.19-9.33,2.08-3.87,7.31-1.2,11.2-1.61,4.01-.42,8.09-.09,12.62-.09-.22-5.43-5.1-8.2-5.87-13.45h24.6c-.23-5.69-4.75-8.5-6.62-14.43h26.97s-.24-.15-.24-.15c2.81,4.33,5.61,8.66,9.31,14.37h-27.13c2.97,5.06,5.23,8.91,8.11,13.83h-25.38c-.84,3.1,1.64,4.14,2.22,6.05.65,2.15,3.9,3.57,2.75,6.04-1.25,2.68-4.26,1.06-6.43,1.15-5.9.25-11.81.08-17.92.08.92,5.59,5.61,8.02,6.06,13.6h-26.07c3.97,5.3,5.46,12.86,9.95,13.11,10.92.61,22.08,3.22,32.66-4.9,37.84-29.06,76.39-57.2,114.52-85.88,4.55-3.42,7.45-4.27,12.65-.34,37.83,28.59,76.23,56.42,113.9,85.21,7.52,5.75,15.12,5.64,23.41,6.92,11.95,1.84,14.61-7.04,19.54-13.78.17-.24.3-.51.45-.76,0,0-.25.15-.25.15h26.46c-.58,5.66-5.44,8.32-6.31,13.52h173.19c-2.88-4.55-5.29-8.36-8.28-13.08h24.07c2.33-1.71,1.26-2.64.94-3.66-1.1-3.49-6.54-6-4.14-9.63,1.13-1.7,6.5-.67,9.95-.73,4.35-.08,8.7-.02,13.3-.02-.3-5.39-4.24-8.22-6.26-13.05h25.82c-.81-5.58-5.29-8.39-6.81-13.91h26.5s-.2-.16-.2-.16c3,4.41,7.07,8.2,8.57,14.33h-25.08c.32,5.18,5.81,7.64,5.67,13.13-4.09,0-7.83-.01-11.57,0q-13.58.06-6.94,11.61c.16.28-.36.96-.81,2.08h-25.35c4.12,5.18,5.17,12.92,10.51,13.1,9.53.32,19.71,3.78,28.84-3.07,38.91-29.18,78-58.1,116.92-87.27,4.91-3.68,8.28-5.04,14.21-.5,32.06,24.6,64.39,48.87,97.14,72.55,12.11,8.76,22.31,21.82,40.58,19.12,10.56-1.56,13.56-2.61,16.77-14.66h-24.59c.75-5.26,6.06-7.71,6.01-13.32h-24.83c1.01-5.13,5.63-7.96,6.02-13.35h-26.16c3.72-5.29,6.68-9.52,9.65-13.74l-.21.17h26.01c-.46,5.24-4.77,8.11-6.56,13.26h26.79c-2.97,4.75-5.23,8.36-7.88,12.62,6.05,1.98,11.83.51,17.41,1.12,2.47.27,5.91-1.72,7.2,1.27,1.1,2.56-1.93,4.57-3.19,6.8-.83,1.46-1.71,2.88-3.07,5.18h25.71c-.09,5.76-5.7,8.4-6.36,14.36h86.38v10.59Zm-797.65-33.67c1.89-3.31,5.29-5.84,5.64-10.05h-35.24c2.5,3.8,4.51,6.86,6.52,9.92-6.86.31-13.73.62-20.56.93-.43,4.74,4.9,6.8,4.18,11.92h-20.05c6.7,11.62,10.22,12.74,27.24,9.17-.05-3.61-4.55-5.38-3.78-10.13h20.37c-3.01-4.76-5.33-8.42-7.64-12.06,7.86,1.05,15.71,1,23.58.09-1.95,4.04-5.66,7.21-6.6,12.58h19.58c.38,4.27-4.01,6.08-3.93,9.76,19.54,3.26,21.65,2.5,26.89-10.24h-20.08c.4-4.56,5.49-6.71,4.11-11.88-6.81,0-13.52,0-20.24.01Zm553.87,12.93c-1.92,3.06-3.84,6.13-5.92,9.46,21.96,2.34,23.31,1.84,27.28-10.35-7.37.99-14.58-1.06-21.69,1.17,2.62-3.99,6.09-7.53,7.42-13.28h-20.8c2.13-3.69,3.8-6.57,5.82-10.06h-34.85c-.6,4.14,4.19,5.81,3.7,10.71h-20.09c2.46,4.47,4.2,7.63,6.39,11.6h-21.06c6.38,12.1,10.66,13.44,27.13,9.64q-4.92-9.66,6.15-9.71c3.03-.01,6.06,0,8.97,0,.24-5.11-4.58-7.02-4.31-11.68,6.83.22,13.56-1.01,20.21.82-.82,4.31-5.22,6.33-4.58,10.53,6.84,1.28,13.65-.87,20.24,1.16Zm70.18,9.47c-2.13-1.61-3.04-2.3-3.95-2.98-29.6-22.03-59.3-43.93-88.67-66.26-4.08-3.1-5.82-.52-8.09,1.15-16.27,11.97-32.45,24.07-48.64,36.17-13.91,10.4-27.79,20.85-42.15,31.62,9.39,3.13,15.39-1.06,21.61-5.76,22.42-16.95,45.3-33.31,67.44-50.63,5.53-4.32,8.7-3.14,13.22.26,22.94,17.24,46.16,34.11,68.85,51.67,5.89,4.56,11.57,6.36,20.39,4.76Zm-539.63-.13c-31.4-23.39-61.97-45.99-92.29-68.93-4.66-3.52-6.86-.06-9.5,1.87-18.41,13.52-36.7,27.2-55,40.87-11.47,8.57-22.88,17.22-34.87,26.26,9.13,2.34,15.07-.91,21.25-5.64,23-17.62,46.43-34.69,69.58-52.12,3.55-2.67,6.14-2.92,9.85-.11,23.14,17.5,46.61,34.58,69.63,52.25,6.18,4.74,12.13,7.94,21.36,5.55Z"/>
  <path class="cls-1" d="m667.17,456.97h-27.51c3.06-5.06,5.38-8.88,8.21-13.55h-24.23c-2.22-1.63-1.09-2.51-.75-3.52,1.16-3.47,6.41-6.06,4.18-9.62-1.06-1.69-6.48-.82-9.92-.83-52.33-.08-104.67-.12-157-.15-1.41,0-2.81.17-4.41.28.4,5.17,5.52,7.71,6.22,13.27h-24.57c.21,5.84,4.86,8.63,6.41,14.05h-26.31c3.12,5.15,5.44,8.96,8.45,13.93h-26.28q6.43,13.67-8.96,13.62c-2.92,0-5.84,0-9.35,0,.47,5.2,4.86,8.12,6.21,13.29-4.41,0-8.4,0-12.39,0s-8.22,0-12.76,0c-.02,5.44,5.68,8.06,6.12,13.93h-26.27l.23.17c-2.68-4.55-6.95-8.25-8.23-14.63h25.03c-1.14-5.14-5.76-7.95-6.12-13.55h25.68c-2.67-4.42-4.84-8.03-7.73-12.82h25.62c-.29-5.68-5.5-8.23-5.95-14.04h25.66c-2.95-5.03-5.24-8.93-7.78-13.26,8.95-1.62,17.4.73,26.41-1.78-4.22-4.23-5.14-11.5-9.9-11.76-10.72-.58-21.55-2.86-31.86,5.02-38.59,29.5-77.88,58.09-116.7,87.29-3.83,2.88-5.75,2.94-9.51.03-15.96-12.35-32.29-24.24-48.47-36.32-23.46-17.51-46.87-35.09-70.38-52.52-13.59-10.07-32.53-5.28-37.48,9.84h25.42c-2.83,4.73-5.13,8.57-8.25,13.79h26.18c-.9,5.66-6.38,8.05-6.01,13.99h25.09c-2.75,4.8-4.94,8.63-7.74,13.53h27.27c-3.6,5.04-6.46,9.05-9.32,13.06,0,0,.21-.14.21-.14h-25.96c.13-5.11,4.94-7.72,6.09-12.89h-26.51c2.95-4.75,5.16-8.31,7.81-12.56-8.52-2.56-16.97.15-25.11-1.68.29-5.22,5.39-7.8,6.11-13.11h-24.76c-.03-5.82,5.88-8.37,6.08-14.04h-24.82c.36-5.48,5.58-8.01,6.12-14.47H1.76v-8.82h1080v8.82c-26.09.21-52.19.42-78.28.63-2.53.02-5.05,0-7.8,0,.22,5.57,5.19,8.28,5.72,13.43h-25c.78,5.32,5.04,8.25,6.87,14.08h-26.96s.27.18.27.18c-2.79-4.33-5.57-8.65-9.36-14.52h28.22c-4.97-5.12-5.83-12.22-10.77-12.5-10.14-.58-20.62-3.47-30.37,3.92-39.17,29.69-78.75,58.84-118.04,88.38-3.71,2.79-5.8,2.72-9.55-.09-38.13-28.62-76.6-56.78-114.61-85.55-7.5-5.68-15.02-7.21-24.11-7.7-10.83-.58-14.87,4.95-18.38,14.12h25.49c-1.7,5.8-5.59,9.5-8.19,13.96l.24-.17Zm171.27-15.47h21.1c-5.94-13.01-12.53-15.26-28.07-10.61,2.47,3.67,4.89,7.27,7.29,10.85-7.3-1.07-14.55-.64-22.47-.25,2.23,3.87,3.91,6.78,5.59,9.69-6.77.82-13.51,1.14-20.7-.19,1.88-3.49,3.35-6.21,5.41-10.03h-21.67c2.01-3.27,3.39-5.43,4.67-7.64.9-1.56,1.69-3.01-.9-4.04-9.76-3.92-21.39,1.37-24.84,11.99h19.53c-.34,4.26-4.42,6.26-3.99,10.82h19.61c-.49,4.37-4.73,6.25-4.1,10.22h34.62c-3.01-4.31-5.45-7.81-7.88-11.29,7.48,1.4,14.89.83,23.12.24-2.6-4.02-4.45-6.89-6.31-9.76Zm-592.71-.61c-2.18,3.43-5.56,6.2-6.31,10.71h21.85c-2.42,3.46-5.48,6.55-6.55,10.53h33.8c.15-4.28-4.58-5.98-3.6-10.47h18.99c.5-4.25-4.17-6.02-3.5-10.53h19.12c-5.36-13.2-3.36-12.6-26.75-10.85-.64,4.28,5.3,6.11,4,11.22h-18.81c-.67,4.32,4.61,5.93,3.2,10.29-6.66,0-13.39,0-20.11,0,1.78-3.16,3.57-6.31,6.04-10.7h-21.61c2.06-3.62,4.11-7.24,6.35-11.18-21.59-1.9-23.81-.98-27.14,10.96,7.05,0,14.05,0,21.02.02Zm122.84-11.13c-8.19-.98-13.53-.38-18.71,3.54-23.56,17.83-47.6,35.03-70.91,53.16-5.76,4.48-9.08,3.86-14.24-.07-23.49-17.9-47.29-35.4-70.84-53.23-5.27-3.99-10.63-4.62-18.26-2.98,31.77,23.56,62.36,46.1,92.72,68.95,4.14,3.11,6.41.75,9.07-1.19,8.97-6.56,17.8-13.31,26.69-19.97,20.98-15.7,41.98-31.38,64.49-48.21Zm346.59.4c30.44,22.66,59.89,44.28,88.92,66.46,5.41,4.14,8.84,4.51,14.2.4,18.58-14.27,37.53-28.07,56.29-42.1,10.64-7.96,21.19-16.03,33.12-25.06-8.59-1.12-14.07.15-19.69,4.47-22.99,17.69-46.45,34.76-69.61,52.23-4.69,3.54-8.06,4.61-13.56.35-22.68-17.59-45.96-34.4-68.86-51.72-5.86-4.43-11.74-7.46-20.81-5.02Z"/>
  <path class="cls-1" d="m1081.76,829.41c-6.19-1.56-9.85-6.01-12.87-11.22-3.37-5.82-6.44-11.86-10.27-17.36-9.54-13.68-26.33-13.93-36.03-.44-4.41,6.14-7.64,13.13-11.79,19.48-8.06,12.31-16.09,12.24-24.17-.21-3.97-6.12-7.05-12.84-11.25-18.79-9.99-14.15-26.57-13.99-36.4.3-4.8,6.97-8.55,14.67-13.44,21.57-6.13,8.66-13.76,8.53-19.82-.25-4.97-7.21-8.88-15.15-13.96-22.28-9.36-13.14-26.12-13.02-35.42.22-4.69,6.68-8.14,14.23-12.77,20.96-7.21,10.49-15,10.27-21.92-.37-4.13-6.36-7.56-13.18-11.87-19.41-10.44-15.08-27.14-14.95-37.5.25-3.62,5.31-6.47,11.13-9.84,16.61-8.64,14.03-16.77,14.12-25.42.31-4.03-6.44-7.42-13.35-12.01-19.35-9.03-11.81-23.27-11.97-33.22-.91-5.36,5.96-8.22,13.48-12.45,20.15-8.78,13.87-16.92,13.92-25.44.02-3.51-5.73-6.46-11.85-10.42-17.24-11.3-15.41-27.48-14.76-37.94,1.36-3.49,5.38-6.31,11.2-9.74,16.63-8.09,12.8-16.54,12.74-24.45-.11-3.37-5.47-6.1-11.37-9.79-16.6-11.98-17-28.23-16.52-39.5,1.04-3.48,5.42-6.38,11.2-9.9,16.59-7.7,11.81-15.9,11.64-23.46-.42-3.25-5.2-5.97-10.73-9.25-15.91-11.45-18.08-29.02-18.16-40.66-.18-3.33,5.15-6.08,10.68-9.34,15.87-7.83,12.48-16.07,12.5-23.86.05-3.1-4.95-5.73-10.19-8.84-15.14-11.93-18.99-29.92-18.96-41.63.07-3.21,5.22-5.91,10.76-9.23,15.91-7.32,11.34-15.5,11.16-23.07-.19-5.01-7.51-8.1-16.24-14.66-22.79-9.72-9.71-21.31-9.64-30.82.23-6,6.23-9.25,14.18-13.69,21.38-8,12.97-16.26,13.16-24.42.36-4.23-6.64-7.54-14.01-12.52-20.01-10.56-12.73-23.55-12.23-34.23.36-4.79,5.64-7.63,12.42-11.38,18.67-8.34,13.91-16.88,13.92-25.51.15-4.33-6.92-7.24-14.72-13.08-20.71-10.17-10.43-22.3-10.21-32.07.58-5.58,6.17-8.65,13.89-13.05,20.79-8.1,12.71-16.41,12.79-24.47-.08-3.56-5.69-6.51-11.78-10.27-17.33-10.39-15.33-26.57-15.59-37.48-.48-4.26,5.9-7.75,12.38-11.3,18.75-2.75,4.92-6.55,8.12-12.13,9.11v-7.06c4.29-1.92,6.36-5.87,8.61-9.61,2.41-4.02,4.49-8.24,7.05-12.16,15.27-23.37,38.33-23.05,53.2.73,3.41,5.46,6.6,11.06,9.8,16.65,2.95,5.16,6.26,4.89,9.23.33,4.46-6.86,8.18-14.21,12.84-20.91,11.36-16.33,29.82-18.59,43.88-5.58,4.12,3.81,6.94,8.65,9.69,13.5,2.31,4.08,4.8,8.05,7.08,12.15,3.48,6.27,6.99,5.12,10.24-.02,3.9-6.17,7.31-12.65,11.32-18.74,13.34-20.26,35.85-20.58,49.67-.63,4.31,6.23,7.91,12.95,11.81,19.46,3.5,5.85,7.02,5.23,10.32-.09,4.01-6.46,7.56-13.22,11.83-19.5,13.32-19.58,35.8-19.48,49.24.14,3.14,4.58,5.78,9.5,8.6,14.29,7.42,12.63,9.29,12.58,16.8-.33,2.93-5.04,5.7-10.2,9.03-14.97,12.83-18.4,35.65-18.2,48.26.46,4.25,6.29,7.77,13.07,11.81,19.51,3.41,5.45,6.99,6.75,10.79.11,3.92-6.85,7.75-13.81,12.28-20.25,12.7-18.08,35.07-18.06,47.82.07,4.53,6.44,8.06,13.58,12.23,20.28,3.63,5.84,7.29,6,10.89-.23,3.81-6.58,7.47-13.29,11.82-19.5,13.53-19.31,36.16-18.8,49.2,1.04,3.68,5.61,6.59,11.72,10.16,17.41,4.93,7.83,7.36,7.82,12.24.11,3.91-6.18,7.21-12.78,11.49-18.66,14.03-19.27,36.05-18.69,49.32,1.23,4.05,6.08,7.3,12.68,11.19,18.86,3.29,5.23,6.79,6.01,10.35-.08,4.12-7.07,8.04-14.33,12.92-20.86,13.41-17.98,34.77-17.54,47.68.88,4.02,5.73,7.04,12.14,10.73,18.12,5.18,8.4,7.55,8.42,12.73.15,3.72-5.95,6.78-12.37,10.88-18.03,14.08-19.41,35.71-19.12,49.35.64,3.97,5.75,6.87,12.24,10.67,18.12,4.78,7.42,7.05,7.34,11.72-.1,3.42-5.46,6.31-11.26,9.83-16.64,14.37-21.92,37.75-21.78,51.85.29,3.31,5.18,6.12,10.67,9.35,15.9,4.94,7.98,7.3,8.04,12.2.26,3.27-5.19,6.08-10.67,9.39-15.84,14.53-22.65,37.71-22.72,52.16-.13,3.62,5.66,6.71,11.65,10.24,17.38,3.39,5.51,7.16,5.55,10.55.02,3.51-5.72,6.55-11.75,10.17-17.4,14.43-22.52,37.48-22.38,52.31-.01,4.95,7.46,7.26,16.75,15.17,22.19v7.06Z"/>
  <path class="cls-1" d="m1.76,840c12.57-2.1,19.61-10.6,24.89-21.27,1.81-3.66,3.78-7.31,6.2-10.58,7.62-10.31,15.14-10.07,22.1.69,3.33,5.15,6.13,10.64,9.35,15.87,11.81,19.15,29.3,19.21,41.67.4,4.18-6.36,6.58-13.77,11.92-19.42,6.29-6.66,13.04-6.74,18.47.69,3.95,5.4,6.89,11.54,10.32,17.32,12.03,20.34,29.94,20.77,42.51.93,3.28-5.18,5.86-10.83,9.3-15.9,7.3-10.76,15.67-10.66,22.71.19,3.34,5.15,6.02,10.72,9.28,15.92,12.01,19.18,29.59,19.2,41.56.06,3.1-4.95,5.71-10.21,8.85-15.14,7.77-12.19,16.45-12.01,24.19.43,3.08,4.96,5.78,10.16,8.9,15.09,11.84,18.72,29.02,18.66,40.93-.16,3.27-5.17,5.98-10.71,9.28-15.86,7.16-11.16,16.03-11.25,23.38-.14,3.54,5.35,6.28,11.23,9.7,16.67,10.98,17.48,28.83,17.67,40.22.38,3.53-5.35,6.28-11.21,9.72-16.63,7.48-11.8,16.08-11.78,23.73.08,3.32,5.15,5.97,10.72,9.29,15.88,11.72,18.24,28.74,18.35,40.66.22,3.69-5.61,6.49-11.81,10.2-17.41,6.68-10.1,14.65-10.29,21.65-.36,4.2,5.95,7.31,12.66,11.32,18.76,10.65,16.17,26.23,16.85,37.99,1.4,4.58-6.02,7.85-13.01,11.95-19.41,6.65-10.38,14.24-10.88,21.48-1.02,4.3,5.86,7.41,12.59,11.39,18.71,10.93,16.77,27.69,17.12,39.18.66,4.17-5.97,7.21-12.71,11.21-18.82,6.4-9.78,14.02-10.18,20.98-.77,4.67,6.31,8.1,13.52,12.46,20.08,10.03,15.08,26.35,15.68,36.97,1.13,4.8-6.58,8.4-14.04,12.9-20.86,6.05-9.15,13.97-9.53,20.5-.67,4.49,6.09,7.83,13.02,12.03,19.33,11.39,17.1,28.3,17,39.6-.25,3.84-5.87,6.89-12.26,10.75-18.12,6.28-9.53,14.36-9.8,20.97-.5,4.9,6.89,8.71,14.56,13.56,21.48,9.26,13.22,25.94,13.34,35.46.22,4.1-5.65,7.25-11.98,10.86-17.99,8.51-14.17,17.5-14.12,26.15.16,3.48,5.75,6.52,11.8,10.36,17.29,9.68,13.86,26.11,14,35.93.22,4.91-6.9,8.69-14.6,13.51-21.57,6.24-9.04,14.42-8.97,20.46.05,4.72,7.06,8.75,14.56,13.42,21.65,4.1,6.22,9.65,10.23,17.67,9.14v7.06c-11.96,1.31-19.1-5.98-25.1-14.62-3.99-5.75-6.92-12.24-10.75-18.12-3.94-6.05-7.34-6.01-11.26.11-3.47,5.41-6.17,11.31-9.63,16.72-14.42,22.52-38.2,22.44-52.46-.15-3.28-5.19-5.92-10.79-9.22-15.97-4.52-7.09-7.54-7.02-12.11.24-3.28,5.2-5.99,10.75-9.29,15.93-14.15,22.21-37.41,22.45-52.03.52-3.4-5.1-6.11-10.66-9.32-15.9-5.03-8.18-7.55-8.03-12.83.22-4.87,7.61-8.22,16.16-14.88,22.68-12.72,12.46-29.77,12-41.74-1.35-5.94-6.63-9.21-14.92-14-22.27-4.49-6.89-7.52-6.95-12.04.11-5.04,7.87-8.43,16.77-15.24,23.53-12.87,12.76-30.5,11.88-42.32-2.01-5.58-6.56-8.76-14.52-13.4-21.61-4.53-6.93-7.52-7.02-12.09.06-3.65,5.65-6.62,11.74-10.33,17.35-13.44,20.33-35.71,20.68-49.81.69-4.2-5.95-7.66-12.45-11.26-18.8-3.8-6.72-7.63-5.44-11.1-.02-3.94,6.16-7.12,12.82-11.22,18.86-13.05,19.27-35.16,19.58-48.81.65-4.25-5.9-7.54-12.5-11.39-18.69-4.48-7.2-7.31-7.31-12.02-.13-4,6.11-7.25,12.71-11.35,18.74-12.52,18.43-34.48,18.95-47.7,1.01-4.31-5.85-7.51-12.5-11.33-18.72-5.14-8.37-8.35-8.33-13.62.22-3.68,5.97-6.79,12.32-10.78,18.06-12.49,18-35.12,17.94-47.7-.11-3.99-5.73-7.12-12.06-10.83-18-5.34-8.56-8.41-8.59-13.61-.17-3.84,6.22-7.05,12.86-11.24,18.82-11.93,16.96-34.83,17.16-46.85.36-4.75-6.64-8.59-13.93-12.8-20.94-3.8-6.32-7.42-5.81-10.99.18-3.73,6.28-7.1,12.81-11.27,18.77-13.94,19.89-36.52,19.51-49.82-.75-3.68-5.61-6.72-11.64-10.3-17.31-4.62-7.32-7.46-7.37-12.06-.17-4.09,6.41-7.49,13.28-11.86,19.47-12.69,17.97-35.13,17.78-47.78-.4-4.33-6.23-7.62-13.18-11.81-19.52-4.38-6.64-7.14-6.48-11.48.31-4.25,6.66-7.83,13.8-12.51,20.13-12.67,17.13-34.19,17.11-46.74-.09-4.64-6.36-8-13.64-12.29-20.28-4.34-6.71-7.08-6.55-11.53.13-4.69,7.05-7.77,15.06-13.35,21.6-6.03,7.07-12.98,11.78-22.76,10.62v-5.29Z"/>
  <path class="cls-1" d="m1.76,485.29c12.87,5.87,22.94,15.77,34.16,23.99,31.64,23.18,62.99,46.74,95.26,70.76-15.14,11.27-29.86,22.28-44.64,33.21-28.24,20.9-56.52,41.75-84.78,62.63,0-8.24,0-16.47,0-24.71,2.06.54,3.24-1,4.6-2.01,18.72-13.98,37.42-27.99,56.14-41.96,12.07-9.01,24.19-17.95,36.58-27.14-5.03-3.75-9.23-6.91-13.45-10.03-27.95-20.61-55.91-41.2-83.87-61.8,0-7.65,0-15.29,0-22.94Z"/>
  <path class="cls-1" d="m1081.76,675.88c-42.94-31.87-85.87-63.74-128.99-95.74,41.62-31.01,82.66-61.57,123.68-92.15,1.63-1.21,2.98-2.88,5.3-2.69v22.94c-30.52,22.59-61.03,45.18-91.56,67.75-3.52,2.6-5.38,4.29-.22,7.9,13.15,9.22,25.55,19.5,38.64,28.82,17.82,12.68,34.5,26.93,53.14,38.47v24.71Z"/>
  <path class="cls-1" d="m1.76,967.06c15.09,1.47,30.99-4.05,46.41,4.02,1.97-4.12,6.92-4.33,12.42-4.27,21.17.23,42.34.12,63.51.08,5.03,0,10.32-.89,12.49,7.25,3.54-7.19,8.51-7.38,14-7.32,21.46.22,42.93.27,64.39-.03,5.16-.07,9.15.82,11.96,6.29,3.08-5.24,7.24-6.41,12.67-6.33,21.75.33,43.51.3,65.27.01,5.16-.07,9.1,1.05,12.14,6.28,2.94-5.44,7.3-6.31,12.64-6.24,21.46.28,42.93.24,64.39.03,5.29-.05,9.92.33,12.86,6.34,3.14-6.15,8.13-6.39,13.65-6.33,21.46.2,42.93.24,64.39-.03,5.12-.06,9.14.85,11.93,6.28,3.16-5.96,8.09-6.3,13.61-6.25,21.46.21,42.93.25,64.39-.04,5.17-.07,9.14,1.02,12.1,6.21,3.02-5.11,7.16-6.32,12.62-6.23,21.75.35,43.51.3,65.27.02,5.19-.07,9.13,1.09,11.99,6.07,2.95-3.76,5.81-6.21,10.99-6.12,22.93.4,45.86.29,68.8.12,4.72-.04,7.98,1,9.2,7.28H1.76v-7.06Z"/>
  <path class="cls-1" d="m1.76,547.06c0-9.41,0-18.82,0-28.24,1.06.46,2.27.72,3.17,1.4,26.48,19.72,52.92,39.48,80.54,60.1-1.91,1.36-3.56,2.49-5.17,3.68-16.93,12.48-33.73,25.14-50.83,37.39-9.13,6.54-17.01,14.92-27.72,19.2v-26.47h16.94c.87-5.52-4.64-7.58-3.81-12.77h20.43c-2.81-4.12-4.92-7.22-7.03-10.31l-.28.35h22.14c.6-.55,1.21-1.11,1.81-1.66-11.53-6.33-5.64-13.38-1.2-21.17h-20.11c-.5-4.66,4.23-6.37,3.68-11.11H15.3c-.59-4.52,4.62-6.08,3.21-10.38H1.76Z"/>
  <path class="cls-1" d="m1081.76,614.12v26.47c-8.36-3.72-14.91-10.07-22.16-15.38-20.26-14.84-40.35-29.9-60.98-45.23,28.13-20.69,55.63-40.92,83.14-61.15v28.24h-16.35c-1.09,4.49,4.23,6.03,3.21,10.82h-20.39c2.84,4.26,4.91,7.36,6.98,10.47l.18-.29c-5.75,1.56-11.62.6-17.43.7-2.22.04-5.39.59-3.07,2.86,7.11,6.94,2.73,12.84-1.79,19.69h22.29l-.2-.27c-1.97,3.33-3.93,6.66-6.4,10.84h22.48l-.17-.27c-2.34,3.74-4.68,7.47-7.83,12.51h18.48Z"/>
  <path class="cls-1" d="m1081.76,974.12h-313.5c.74-5.1,3.06-7.24,8.02-7.22,23.82.12,47.65.22,71.47-.14,4.74-.07,6.28,3.48,9.61,5.79,2.58-5.49,7.27-5.78,12.53-5.73,21.47.2,42.94.22,64.41,0,5.04-.05,9.34.4,12.22,6.2,3.63-5.57,8.49-6.34,14.24-6.25,21.17.33,42.36.42,63.52-.06,5.57-.12,9.22,2.02,12.85,5.37,2.98-4.08,6.79-5.55,12.01-5.31,10.86.49,21.75.23,32.64.28v7.06Z"/>
  <path class="cls-1" d="m1.76,704.12c3.7-2.42,8.05-.28,12.43-1.83-.12-4.54-4.61-7.01-5.83-12.18h24.86c-.25-6-5.47-8.49-6.08-14.15h26c-3.05-5.05-5.37-8.9-8.64-14.33h27.95c2.63,4.43,5.27,8.86,8.43,14.18h-25.79c.45,5.57,5.26,8.19,6.65,13.54h-25.18c.18,5.58,4.97,7.97,5.8,12.99-5.63,1.6-11.39.17-16.96.8-2.46.28-5.76-1.6-7.19,1.35-1.16,2.38,1.67,4.04,2.86,5.96,1.02,1.67,1.91,3.42,3.35,6.03H1.76v-12.35Z"/>
  <path class="cls-1" d="m1.76,22.94h80.4c-6.93,10.79-13,20.25-19.89,31-5.59-8.55-11.01-16.22-15.75-24.3-3.09-5.27-4.91-6.59-8.49-.32-4.6,8.07-10.01,15.69-15.41,24.02C13.99,44.53,10.8,32.43,1.76,24.71v-1.76Z"/>
  <path class="cls-1" d="m1030.5,675.74h27.41c-3.06,5.15-5.33,8.98-8.18,13.8h26.97c-2.82,4.73-4.97,8.34-7.48,12.56,4.68,1.25,8.6,1.04,12.55.26v14.12h-20.87c-.1-1.02-.33-1.63-.18-2.13,1.13-3.82,7-6.78,5.08-10.11-1.93-3.34-7.55-.8-11.54-1.09-4.05-.29-8.14-.06-12.6-.06.24-5.05,5.34-7.58,5.74-12.77h-24.76c.76-6.41,5.63-9.81,7.86-14.57Z"/>
  <path class="cls-1" d="m1.76,557.65h11.35c-2.27,4-3.9,6.9-6.04,10.66h23.3c-10.59,8.42-7.36,15.78-2.35,23.07,0,0,.28-.35.28-.35-6.85,0-13.71,0-20.44,0-.4,5.01,4.7,6.53,3.51,10.73H1.76v-44.12Z"/>
  <path class="cls-1" d="m1081.76,557.65v44.12c-3.55-.05-7.1-.1-10.65-.15,0,0,.17.27.17.27,1.76-3.18,3.53-6.36,5.18-9.35-.64-.68-.82-1.05-1.01-1.05-6.75-.17-13.51-.3-20.26-.44l.2.27c5.86-7.05,8.32-14.19.63-21.65-.37-.36-.43-1.06-.63-1.6l-.18.29h20.52c.9-4.49-4.62-6.21-3.53-10.7h9.55Z"/>
  <path class="cls-1" d="m1.76,232.94c13.08,8.7,22.73,20.99,34.27,31.31-.24.74-.49,1.48-.73,2.22H1.76v-33.53Z"/>
  <path class="cls-1" d="m1.76,197.65h36.16c-12.58,12.56-23.62,23.81-36.16,33.53v-33.53Z"/>
  <path class="cls-1" d="m1081.76,24.71c-6.46,9.29-12.92,18.59-20.11,28.94-6.43-10.01-12.59-19.6-19.72-30.7h39.83v1.76Z"/>
  <path class="cls-1" d="m1081.76,266.47h-35.75c12.39-13.09,23.85-23.54,35.75-33.53v33.53Z"/>
  <path class="cls-1" d="m1081.76,231.18c-11.5-10.59-23.01-21.18-36.43-33.53h36.43v33.53Z"/>
  <path class="cls-1" d="m1.76,338.82c16.11,10.81,30.36,23.92,47.23,36.87-9.35,1.04-15.74,1.16-21.91-4.59-7.83-7.3-16.83-13.34-25.32-19.92,0-4.12,0-8.24,0-12.35Z"/>
  <path class="cls-1" d="m1081.76,351.18c-7.93,6.4-16.12,12.52-23.71,19.3-6.42,5.73-13.47,6.57-23.2,5.2,16.49-12.96,31.7-24.91,46.91-36.85v12.35Z"/>
  <path class="cls-1" d="m1.76,952.94c9.22-2.38,18.58-.71,27.88-.91,4.13-.09,5.58,3.31,7.89,7.97H1.76v-7.06Z"/>
  <path class="cls-1" d="m1081.76,960h-33.78c.32-6.58,3.75-8.25,9.19-8.26,8.2-.01,16.43.91,24.59-.56v8.82Z"/>
  <path class="cls-1" d="m15.96,457.2l-14.2-.14v-14.12h22.27c-1.15,5.96-5.52,9.63-8.08,14.26Z"/>
  <path class="cls-1" d="m1081.76,457.06c-4.75.04-9.5.09-14.24.13-2.55-4.37-5.09-8.75-8.3-14.25h22.54v14.12Z"/>
  <path class="cls-1" d="m1.76,937.06c5.54,0,11.08.14,16.62-.03,4.58-.14,6.94,1.97,7.81,7.09H1.76v-7.06Z"/>
  <path class="cls-1" d="m1081.76,944.12h-24.73c6.1-12.19,16.79-4.88,24.73-7.06v7.06Z"/>
  <path class="cls-1" d="m1.76,922.94c5.55.54,12.7-2.95,15.26,7.06H1.76v-7.06Z"/>
  <path class="cls-1" d="m1081.76,930h-13.99q2.19-7.27,13.99-7.06v7.06Z"/>
  <path class="cls-1" d="m446.94,890.01c-13.4,20.24-26.25,39.64-39.85,60.19-13.48-20.33-26.41-39.81-39.92-60.19h79.77Z"/>
  <path class="cls-1" d="m267.24,889.66c-13.74,20.71-26.73,40.3-40.18,60.57-13.54-20.52-26.5-40.15-39.98-60.57h80.16Z"/>
  <path class="cls-1" d="m536.89,890.01c-13.49,20.37-26.46,39.95-39.87,60.2-13.52-20.44-26.4-39.9-39.83-60.2h79.71Z"/>
  <path class="cls-1" d="m357.17,889.67c-13.74,20.77-26.7,40.36-40.09,60.61-13.6-20.58-26.56-40.18-40.06-60.61h80.15Z"/>
  <path class="cls-1" d="m587.01,950.25c-13.55-20.5-26.52-40.13-40.03-60.57h80.02c-13.5,20.44-26.53,40.19-40,60.57Z"/>
  <path class="cls-1" d="m726.97,889.79h80.01c-13.6,20.52-26.56,40.08-40.04,60.43-13.53-20.45-26.49-40.04-39.97-60.43Z"/>
  <path class="cls-1" d="m7.06,889.63h80.18c-13.56,20.52-26.5,40.1-40.06,60.61-13.56-20.48-26.5-40.04-40.12-60.61Z"/>
  <path class="cls-1" d="m177.27,889.64c-13.77,20.78-26.76,40.37-40.16,60.6-13.6-20.59-26.56-40.22-40.02-60.6h80.18Z"/>
  <path class="cls-1" d="m636.76,889.47h80.33c-13.49,20.47-26.38,40.04-40.04,60.78-13.54-20.43-26.49-39.96-40.29-60.78Z"/>
  <path class="cls-1" d="m896.79,890c-13.38,20.23-26.22,39.64-39.81,60.2-13.48-20.32-26.42-39.82-39.94-60.2h79.75Z"/>
  <path class="cls-1" d="m906.71,889.58h80.28c-13.42,20.32-26.32,39.87-40.01,60.59-13.51-20.32-26.45-39.79-40.27-60.59Z"/>
  <path class="cls-1" d="m996.66,889.46h80.34c-13.58,20.6-26.54,40.28-40.08,60.82-13.55-20.47-26.51-40.04-40.26-60.82Z"/>
  <path class="cls-1" d="m285.59,1061.61c5.77-7.58,9.39-13.22,13.9-18,4-4.23,2.66-7.24-.34-10.9-3.98-4.87-7.7-9.94-12.62-16.35,8.51,0,15.15.22,21.78-.07,4.7-.2,5.55,3.7,7.58,6.28,12.66,16.16,12.05,15.76.43,31.73-8.39,11.52-19,3.67-30.73,7.31Z"/>
  <path class="cls-1" d="m16.91,1060.01c4.87-6.5,8.68-12.33,13.27-17.46,3.08-3.44,2.27-5.77-.13-8.76-4.18-5.19-8.18-10.51-13.49-17.37,8.69,0,15.78-.25,22.84.08,5.28.25,6.24,5.72,8.86,8.91,10.2,12.46,10.03,12.6.57,25.34q-8.22,11.06-31.91,9.24Z"/>
  <path class="cls-1" d="m58.4,1060.57c5.15-6.83,8.99-12.67,13.62-17.81,3.1-3.45,2.59-5.63-.08-8.81-4.32-5.13-8.21-10.63-12.3-16,16.67-5.61,34.18,3.03,39.47,19.17.59,1.79-.08,2.67-.93,3.8-4.43,5.83-8.93,11.6-13.25,17.51-1.95,2.68-4.64,2.09-7.2,2.12-5.87.07-11.74.02-19.33.02Z"/>
  <path class="cls-1" d="m1067.58,1060.56c-8.09,0-14.76.05-21.43-.02-5.38-.06-7.01-4.8-9.54-8.15-10.73-14.15-9.92-13.72-.29-28.43,8.1-12.38,19.46-5.52,31.66-8.59-5.64,7.6-9.56,13.54-14.16,18.88-2.99,3.47-2.58,5.51.33,8.76,4.49,5,8.24,10.67,13.43,17.54Z"/>
  <path class="cls-1" d="m868.14,1016.35c8.05,0,14.7.02,21.35,0,5.84-.02,7.48,5.16,10.16,8.64,10.27,13.34,9.03,12.76.17,26.98-8.12,13.04-19.56,6.91-31.81,9.2,5.09-6.93,8.76-12.65,13.2-17.69,3.06-3.48,3.85-5.81.45-9.6-4.49-5-8.28-10.63-13.53-17.52Z"/>
  <path class="cls-1" d="m826.46,1016.34c4.5,0,7.2.41,9.73-.07,11.22-2.14,17.57,3.36,24.42,11.83,6.73,8.31,5.07,12.47,0,20.88-8.49,14.06-20.28,11.84-33.8,11.21,4.73-6.43,8.8-12.56,13.52-18.13,2.37-2.79,2.48-4.33.17-7.12-4.59-5.54-8.71-11.47-14.03-18.59Z"/>
  <path class="cls-1" d="m797.37,1016.33c-2.85,4.01-4.75,6.86-6.83,9.57q-9.72,12.66.3,25.46c1.98,2.53,3.79,5.19,5.66,7.77-17.28,5.13-33.1-2.52-39.49-19.15-.21-.53-.65-1.05-.65-1.58.02-4.74,17.75-22.04,22.61-22.07,5.73-.04,11.45,0,18.39,0Z"/>
  <path class="cls-1" d="m556.13,1061.12c6.03-9.42,15.99-15.47,15.54-23.07-.41-7.01-9-13.54-15.02-21.68,8.41,0,15.3.01,22.19,0,4.92-.01,5.67,4.66,7.91,7.38,11.74,14.25,10.86,13.83.85,28.95-8.29,12.52-19.55,6.05-31.47,8.43Z"/>
  <path class="cls-1" d="m328.25,1060.56c4.59-6.05,7.56-11.24,11.73-15.15,5.78-5.41,4.06-9.63-.25-14.54-3.62-4.13-6.83-8.61-10.3-13.03,17.86-5.1,32.38,2.02,39.43,19.09.22.54.82,1,.84,1.52.12,2.95-17.68,22.03-20.71,22.08-6.39.1-12.77.03-20.75.03Z"/>
  <path class="cls-1" d="m215.59,1016.3c-4.46,6.07-7.56,11.42-11.77,15.68-4.48,4.53-4.6,7.89-.33,12.51,4.13,4.48,7.52,9.64,12.41,16.04-8.55,0-15.71.45-22.79-.15-5.35-.45-6.61-6.22-9.43-9.7-9.91-12.19-8.53-11.58-.24-25.04,8.36-13.57,19.91-8.11,32.16-9.34Z"/>
  <path class="cls-1" d="m598.22,1060.57c5.25-6.91,9.45-12.77,14.04-18.31,2.32-2.8,2.37-4.72,0-7.57-4.48-5.4-8.52-11.17-12.74-16.79,16.69-5.52,33.27,2.54,39.34,19.11.2.54.71,1.05.7,1.57-.05,4.33-18.28,21.95-22.74,21.98-5.76.04-11.52.01-18.61.01Z"/>
  <path class="cls-1" d="m527.51,1015.98c-5.5,9.22-15.64,15.1-14.82,23.11.74,7.18,9.05,13.58,14.87,21.46-7.81,0-14.44.11-21.07-.03-6.09-.13-7.73-5.65-10.65-9.42-9.71-12.54-8.48-11.91-.38-25.54,8.26-13.89,20.12-7.61,32.05-9.59Z"/>
  <path class="cls-1" d="m1025.64,1060.56c-8.3,0-14.92.08-21.54-.03-5.76-.09-7.17-5.41-9.92-8.88-10.28-12.99-10.19-13.06-.37-26.09q7.38-9.79,30.72-9.01c-3.27,6.72-7.95,12.09-12.52,17.37-3.01,3.47-2.69,5.77.02,9.01,4.41,5.28,8.44,10.88,13.62,17.63Z"/>
  <path class="cls-1" d="m485.38,1060.14c-2.32.27-2.9.39-3.48.4-22.31.45-24.03-.5-35.71-18.97-1.18-1.87-2.19-3.54-.63-5.54,4.68-5.97,9.29-12,14.15-17.82,2.91-3.49,7.13-1.58,10.76-1.8,4.56-.28,9.15-.07,15.1-.07-4.75,6.33-8.35,11.92-12.76,16.77-3.5,3.85-3.52,6.58-.17,10.43,4.33,4.96,8.06,10.44,12.75,16.6Z"/>
  <path class="cls-1" d="m256.86,1016.78c-4.42,8.51-15,14.05-14.13,22.04.79,7.25,8.95,13.7,14.75,21.73-7.71,0-14.58.4-21.39-.11-6.88-.51-8.43-7.5-12.09-11.71-8.73-10.05-7.05-9.42-.4-20.84,8.27-14.2,20.2-11.93,33.26-11.11Z"/>
  <path class="cls-1" d="m755.52,1016.34c-4.88,6.51-8.47,12.14-12.92,16.99-3.66,3.99-3.1,6.66.19,10.37,4.24,4.78,7.86,10.11,11.83,15.31-17.73,5.27-34.64-3.06-39.51-19.2-.17-.55-.34-1.13-.31-1.7.23-5.45,17.72-21.76,23.34-21.77,5.26-.01,10.52,0,17.39,0Z"/>
  <path class="cls-1" d="m414.6,1046.42c.03,1.75.09,3.5.09,5.26,0,8.53-4.02,11.25-12.43,8.9-3.91-1.1-2.99-4.02-2.79-6.32.5-5.69-.9-9.18-7.46-8.03-6.55,1.15-7.46-2.17-7.5-7.87-.04-5.86,1.14-8.75,7.61-7.84,3.78.53,8.24.75,7.26-5.32-1.23-7.64,2.23-9.05,9.24-9.1,8.26-.07,5.69,5.25,6.05,9.34.15,1.74-.05,3.5-.09,5.25l.23-.22c-3.47.07-6.93.17-10.4.19-2.15.01-3.75.3-4.54,2.88-2.45,7.96.55,12.29,8.92,12.53,2.01.06,4.01.35,6.02.53l-.22-.19Z"/>
  <path class="cls-1" d="m144.6,1046.42c.03,1.76.09,3.52.09,5.28,0,8.39-4.45,11.41-12.52,8.85-3.84-1.22-2.78-4.21-2.54-6.48.63-6.02-1.42-8.94-7.71-7.84-6.87,1.2-7.16-2.68-7.41-8.11-.28-6.34,1.89-8.47,7.91-7.54,4.84.75,8.33-.43,7.18-6.36-1.37-6.99,1.9-7.93,8.12-8.15,7.21-.25,7.48,3.28,6.99,8.46-.19,2.04-.1,4.1-.13,6.15,0,0,.24-.22.24-.22-3.52.06-7.05.11-10.57.19-1.42.03-3.63-.37-3.83,1.2-.5,4.03-.99,8.26-.27,12.19.65,3.61,4.42,1.6,6.79,1.96,2.59.4,5.25.41,7.88.59l-.22-.19Z"/>
  <path class="cls-1" d="m684.6,1046.41c.03,1.75.09,3.51.09,5.26,0,8.12-5.92,11.93-13.28,8.69-3.46-1.53-2.27-4.55-2.06-6.82.54-5.7-1.48-8.34-7.29-7.33-6.54,1.14-7.52-2.08-7.55-7.83-.03-5.85,1.15-8.86,7.6-7.84,4.86.77,8.16-.53,7.1-6.44-1.29-7.14,2.54-7.74,8.51-8.02,7.16-.33,7.51,3.22,7.01,8.44-.19,2.03-.08,4.09-.11,6.13l.19-.19c-2.88.06-5.8.42-8.64.1-5.51-.62-6.6,1.93-6.91,6.97-.42,6.87,1.79,9.58,8.7,8.58,2.22-.32,4.57.28,6.86.47l-.22-.19Z"/>
  <path class="cls-1" d="m687.93,959.14c.98-5.36,3.64-7.41,8.6-7.36,16.69.17,33.38.2,50.06-.02,5.16-.07,8.16,1.98,10.17,7.38h-68.83Z"/>
  <path class="cls-1" d="m417.97,959.16c1.1-5.96,4.2-7.52,9.45-7.42,16.11.31,32.24.24,48.35.02,5.3-.07,9.08,1.27,10.74,7.4h-68.54Z"/>
  <path class="cls-1" d="m216.85,959.75c-21.27,0-41.73.08-62.19-.13-2-.02-6.12,2.24-6-2.16.09-3.23,2.53-5.71,6.55-5.65,7.89.12,15.79.05,23.68.05,9.06,0,18.13-.04,27.19.02,6.65.05,6.65.11,10.76,7.86Z"/>
  <path class="cls-1" d="m666.38,959.39h-68.18c.66-5.36,2.9-7.77,8.81-7.64,16.37.35,32.75.27,49.13.02,5.47-.09,8.76,1.77,10.24,7.63Z"/>
  <path class="cls-1" d="m957.86,959.17c1.01-6.06,4.42-7.46,9.51-7.4,16.4.2,32.81.27,49.2-.02,5.33-.1,8.11,2.06,9.79,7.43h-68.49Z"/>
  <path class="cls-1" d="m867.88,959.48c.84-5.55,3.52-7.76,8.42-7.73,16.97.1,33.95.17,50.92.03,5.29-.04,8.02,2.23,8.91,7.69h-68.25Z"/>
  <path class="cls-1" d="m846.5,959.41h-68.36c.56-4.88,2.31-7.58,8.03-7.51,16.98.22,33.97.07,50.96-.14,5.25-.06,7.95,2.35,9.38,7.65Z"/>
  <path class="cls-1" d="m58.03,959.23c1.13-6.03,4.51-7.48,9.61-7.42,16.41.19,32.83.2,49.25-.09,5.32-.09,7.88,2.48,10.24,7.51H58.03Z"/>
  <path class="cls-1" d="m238.29,959.23c.42-5.37,3.18-7.53,8.57-7.47,16.7.18,33.41.23,50.12,0,5.27-.07,8.08,2.16,9.74,7.47h-68.43Z"/>
  <path class="cls-1" d="m328.06,959.18c1.3-5.77,4.23-7.58,9.54-7.47,16.1.35,32.22.32,48.32.09,5.33-.08,9.02,1.32,10.68,7.38h-68.54Z"/>
  <path class="cls-1" d="m576.82,959.78c-21.72,0-42.56.03-63.41-.05-1.8,0-4.73,1.26-5.04-1.7-.23-2.24,1.2-4.61,3.69-5.42,1.64-.54,3.45-.75,5.19-.76,16.46-.05,32.92.12,49.38-.1,5.22-.07,8.21,2.03,10.18,8.03Z"/>
  <path class="cls-1" d="m518.02,943.78c.75-4.57,2.93-7.35,8.16-6.73,13.28,1.57,27.55-3.38,40.08,3.05-.15,1.23-.3,2.46-.45,3.68h-47.79Z"/>
  <path class="cls-1" d="m385.98,943.91h-47.37c1.91-6.64,1.91-6.76,7.85-6.81,10.29-.1,20.58.12,30.87-.09,4.78-.1,7.93,1.29,8.65,6.9Z"/>
  <path class="cls-1" d="m296.05,943.91h-47.44c1.96-6.65,1.96-6.76,7.84-6.82,10.29-.1,20.58.1,30.87-.11,4.78-.1,7.84,1.4,8.73,6.93Z"/>
  <path class="cls-1" d="m205.73,944.09h-47.89c1.25-3.86,2.19-7.66,7.28-6.99,13.62,1.79,28.35-4.03,41.14,3.54-.18,1.15-.35,2.3-.53,3.45Z"/>
  <path class="cls-1" d="m835.44,944.11h-47.48c.69-5.11,3.09-7.76,8.23-7.03,13.22,1.87,27.67-4.2,39.96,3.74-.23,1.1-.47,2.19-.7,3.29Z"/>
  <path class="cls-1" d="m475.69,944.11h-47.57c.6-6.88,5.21-7.82,10.44-6.99,12.41,1.99,26.42-4.78,37.56,4.23l-.44,2.75Z"/>
  <path class="cls-1" d="m1015.39,944.12h-47.49c.69-5.1,3.08-7.76,8.2-7.06,13.21,1.82,27.61-4,39.91,3.64-.21,1.14-.41,2.28-.62,3.42Z"/>
  <path class="cls-1" d="m697.64,941.08c11.28-8.56,25.02-2.13,37.4-3.94,4.71-.69,9.64-.65,10.85,6.6h-47.7c-.18-.89-.36-1.77-.54-2.66Z"/>
  <path class="cls-1" d="m116.37,943.9h-47.69c2.11-6.64,2.11-6.75,7.79-6.81,10.29-.09,20.58.11,30.87-.1,4.78-.1,7.72,1.59,9.03,6.91Z"/>
  <path class="cls-1" d="m925.74,944.12h-47.7q2.64-7.13,36.06-7.04c5.12.01,11.04-1.22,11.64,7.04Z"/>
  <path class="cls-1" d="m655.72,944.04h-47.79c.96-5.55,4.08-7.17,9.59-7.09,40.14.57,35.46-1.86,38.2,7.09Z"/>
  <path class="cls-1" d="m812.6,1046.63c-6.69.03-9.59-3.38-9.39-8.65.18-4.79,3.36-8.27,8.39-8.16,5.05.11,9.04,2.69,8.87,8.45-.16,5.33-2.83,8.71-7.87,8.35Z"/>
  <path class="cls-1" d="m533.04,1038.76c.79-5.62,3.77-9.19,9.19-8.98,4.74.19,8.33,2.96,8.26,8.36-.07,5.64-3.04,8.47-8.84,8.52-5.68.05-7.34-3.77-8.62-7.9Z"/>
  <path class="cls-1" d="m271.07,1046.68c-4.98.36-7.61-3.7-7.73-8.62-.12-4.83,3.27-8.14,8.45-8.11,4.91.03,8.54,2.38,8.73,7.74.19,5.48-2.43,8.84-9.44,8.99Z"/>
  <path class="cls-1" d="m414.59,1030.69c1.76-.03,3.52.04,5.27-.11,5.72-.48,9.62-.4,9.6,7.81-.02,8.15-3.82,8.32-9.59,7.85-1.74-.14-3.51.11-5.26.18,0,0,.22.19.22.19,0-5.38,0-10.76,0-16.13l-.23.22Z"/>
  <path class="cls-1" d="m144.59,1030.69c1.73-.04,3.46-.1,5.19-.12,5.09-.05,9.93-1.36,9.83,7.36-.09,8.17-3.58,9-9.83,8.34-1.7-.18-3.45.09-5.18.15,0,0,.22.19.22.19,0-5.38,0-10.76,0-16.13,0,0-.24.22-.24.22Z"/>
  <path class="cls-1" d="m954.61,1046.43c.03,1.73-.06,3.47.1,5.18.57,5.76.12,9.35-7.77,9.31-7.78-.04-8.46-3.45-7.89-9.32.17-1.7-.09-3.45-.16-5.17,0,0-.23.2-.23.2,5.38-.8,10.77-.97,16.16-.01l-.21-.18Z"/>
  <path class="cls-1" d="m938.89,1030.67c.08-1.74.2-3.49.22-5.23.09-8.54,4.8-11.71,13.08-9.09,2.25.71,2.48,2.05,2.48,3.84,0,3.49-.04,6.99-.06,10.48l.21-.2c-5.37,0-10.74,0-16.12.01l.19.19Z"/>
  <path class="cls-1" d="m684.62,1030.66c1.75-.03,3.51.03,5.25-.11,5.75-.49,9.52-.24,9.47,7.86-.05,8.02-3.71,8.35-9.5,7.84-1.73-.15-3.5.1-5.25.17,0,0,.22.19.22.19,0-5.37,0-10.75,0-16.12l-.19.19Z"/>
  <path class="cls-1" d="m938.9,1046.42c-2.32-.07-4.66.05-6.94-.27-2.36-.33-6.04,1.65-6.81-1.69-.96-4.12-2.17-9.66.5-12.55,3.06-3.31,8.73-.91,13.25-1.23,0,0-.19-.19-.19-.19.9,5.38.95,10.76-.03,16.13l.23-.2Z"/>
  <path class="cls-1" d="m954.61,1030.67c1.75-.02,3.51.08,5.24-.09,5.82-.57,9.46-.18,9.47,7.84.01,8.05-3.69,8.35-9.48,7.84-1.73-.15-3.49.11-5.24.18,0,0,.21.18.21.18,0-5.38,0-10.75,0-16.13l-.21.2Z"/>
  <path class="cls-1" d="m527.4,929.56c1.9-9.26,9.05-6.71,14.55-6.59,5.43.12,12.79-3.09,14.74,6.59h-29.29Z"/>
  <path class="cls-1" d="m616.88,929.58c4.56-10.95,13.63-5.3,20.42-6.71,5.17-1.07,8.19,1.3,9.48,6.71h-29.9Z"/>
  <path class="cls-1" d="m826.82,929.78h-29.48c.83-6.73,5.4-7.9,10.47-6.83,6.44,1.36,15.8-4.97,19.01,6.83Z"/>
  <path class="cls-1" d="m916.67,929.67h-29.9c4.32-11.16,13.52-5.39,20.36-6.77,5.09-1.03,8.38,1.05,9.54,6.77Z"/>
  <path class="cls-1" d="m1006.97,929.75h-29.63c.87-5.17,3.56-7.91,8.64-6.81,6.98,1.51,16.61-4.94,20.99,6.81Z"/>
  <path class="cls-1" d="m437.59,929.56c.82-8,6.68-7.26,11.66-6.59,6.06.82,14.45-4.12,17.57,6.59h-29.23Z"/>
  <path class="cls-1" d="m286.85,929.75h-29.46c.97-5.56,4.17-7.07,9.24-6.99,19.51.3,17.41-.91,20.22,6.99Z"/>
  <path class="cls-1" d="m106.58,929.64h-29.56c4.83-11.4,14.3-5.35,21.39-6.72,4.91-.95,7.72,1.59,8.17,6.72Z"/>
  <path class="cls-1" d="m197.06,929.77h-29.55c1.04-6.16,4.95-7.92,10-6.85,6.52,1.38,15.67-4.7,19.55,6.85Z"/>
  <path class="cls-1" d="m347.07,929.6c3.95-10.75,12.75-5.69,19.34-6.68,4.77-.71,9.51-.29,10.22,6.68h-29.56Z"/>
  <path class="cls-1" d="m736.99,929.71h-29.68c.87-5.63,4.09-7.85,9.17-6.8,6.82,1.42,16.01-4.61,20.51,6.8Z"/>
  <path class="cls-1" d="m277.81,915.37c-4.22.49-7.55.92-11.05-.24.74-3.45,2.54-6.89,5.58-6.86,3.32.04,3.85,4.12,5.47,7.1Z"/>
  <path class="cls-1" d="m97.88,915.3c-4.17.67-7.52.88-11.04-.08.4-3.63,2.61-6.88,5.44-6.98,3.53-.13,3.8,4.2,5.6,7.06Z"/>
  <path class="cls-1" d="m356.26,915.82c5.61-9.97,5.75-9.98,11.25-1.22-3.33,2.37-6.91.82-11.25,1.22Z"/>
  <path class="cls-1" d="m727.54,915.52h-10.99c.82-3.55,2.32-7.09,5.39-7.15,3.26-.07,4.2,3.82,5.6,7.15Z"/>
  <path class="cls-1" d="m625.97,915.79c2.05-4.13,3.39-7.55,6.37-7.48,3.06.07,3.75,3.66,4.72,6.51-3.42,1.89-6.71.65-11.09.97Z"/>
  <path class="cls-1" d="m547.31,915.5h-10.76c1.03-3.58,2.42-7.04,5.7-7.14,3.05-.09,3.89,3.56,5.06,7.14Z"/>
  <path class="cls-1" d="m457.39,915.53h-10.46c.27-3.82,2.18-6.92,5.29-7.12,3.08-.2,3.78,3.54,5.17,7.12Z"/>
  <path class="cls-1" d="m187.19,915.47h-10.59c1.01-3.68,2.61-7.05,5.83-7.08,2.91-.03,3.95,3.52,4.76,7.08Z"/>
  <path class="cls-1" d="m896.09,915.21c1.87-3.52,2.98-7.06,6.08-6.9,3.04.15,3.49,3.94,5.78,6.64-4.35,1.21-7.61,1.04-11.86.26Z"/>
  <path class="cls-1" d="m805.95,915.17c2.1-3.44,3.17-7.12,6.3-6.84,2.82.26,4.03,3.58,4.88,6.88-3.58.89-6.85.76-11.18-.04Z"/>
  <path class="cls-1" d="m682.15,23.25h239.47c-6.63,10.4-12.79,20.07-19.68,30.89-5.31-8.34-10.33-15.74-14.82-23.44-3.46-5.95-5.84-8.08-10.03-.32-4.27,7.92-9.72,15.2-15.16,23.54-5.38-8.28-10.75-15.61-15.1-23.5-4.1-7.45-6.6-5.91-10.13.28-4.33,7.57-9.23,14.82-14.62,23.37-6.81-10.4-13.11-20.01-20.1-30.69-6.83,10.41-13.14,20.02-20.04,30.54-5.77-8.92-11.28-17.07-16.39-25.46-2.62-4.3-4.33-4.72-7.1-.14-4.99,8.25-10.35,16.28-16.33,25.61-5.56-8.46-11-15.84-15.46-23.78-3.95-7.03-6.25-5.53-9.63.27-4.53,7.76-9.62,15.19-15.03,23.63-6.74-10.45-12.86-19.92-19.86-30.77Z"/>
  <path class="cls-1" d="m622.01,54.01c-5.35-8.27-9.96-15.38-14.55-22.49q-5.57-8.64-11.26.39c-4.49,7.09-9.03,14.16-14.1,22.11-6.92-10.56-13.23-20.2-20.1-30.68-6.83,10.47-13.05,19.99-19.93,30.53-5.84-8.98-11.55-17.29-16.74-25.92-2.62-4.35-4.25-3.83-6.6-.05-5.26,8.42-10.63,16.77-16.56,26.09-5.82-8.87-11.4-16.66-16.18-24.91-3.35-5.78-5.12-4.58-8.02.19-4.96,8.15-10.36,16.04-15.99,24.68-6.75-10.51-12.86-20.03-19.56-30.47h239.16c-6.54,10.25-12.61,19.77-19.55,30.65-5.18-8.17-9.88-15.64-14.64-23.08q-5.18-8.11-10.32-.23c-4.78,7.35-9.54,14.71-15.04,23.19Z"/>
  <path class="cls-1" d="m382.04,54.09c-6.06-9.47-11.46-17.79-16.72-26.19-2.42-3.87-4.15-4.11-6.66.11-5.04,8.46-10.5,16.67-16.51,26.12-6.76-10.52-12.93-20.14-19.68-30.66h119.17c-6.56,10.29-12.61,19.79-19.49,30.59-5.38-8.38-10.51-15.94-15.17-23.78-3.29-5.52-5.57-7.48-9.51-.3-4.33,7.9-9.69,15.24-15.42,24.09Z"/>
  <path class="cls-1" d="m102.19,54.17c-6.84-10.66-12.94-20.18-19.61-30.59h119.07c-6.51,10.22-12.56,19.73-19.36,30.42-5.83-8.9-11.47-16.9-16.44-25.3-3.08-5.2-4.64-4.58-7.46.15-4.93,8.25-10.42,16.16-16.2,25.03-5.62-8.55-11.22-16.04-15.66-24.16-3.84-7.03-5.98-4.79-9.03.25-4.68,7.72-9.63,15.28-15.29,24.21Z"/>
  <path class="cls-1" d="m1041.6,23.4c-6.75,10.53-12.84,20.04-19.62,30.62-5.47-8.44-10.87-15.95-15.36-23.96-3.91-6.98-6.07-5.67-9.5.32-4.48,7.83-9.74,15.2-15.13,23.49-5.79-8.75-11.35-16.61-16.31-24.84-2.83-4.7-4.38-5.39-7.47-.21-4.92,8.24-10.44,16.11-16.36,25.14-6.69-10.42-12.85-20.01-19.61-30.55h119.36Z"/>
  <path class="cls-1" d="m222.13,54.06c-6.85-10.65-12.97-20.17-19.67-30.58h119.15c-6.43,10.13-12.57,19.82-19.4,30.59-5.64-8.68-11.23-16.44-15.86-24.72-3.59-6.43-5.48-4.88-8.54.21-4.8,8.01-10.08,15.73-15.72,24.43-5.26-8.14-9.98-15.47-14.73-22.78q-5.32-8.19-10.8.34c-4.55,7.1-9.11,14.2-14.43,22.51Z"/>
  <path class="cls-1" d="m567.63,134.41c-10.86-.57-17.62-8.51-17.05-20.02.49-9.67,9.71-17.91,19.38-17.32,10.2.63,18.15,9.65,17.67,20.06-.49,10.79-8.69,17.86-20.01,17.27Zm11.55-18.58c-.38-6.35-3.6-9.96-10.38-9.97-6.5,0-9.68,3.78-9.94,9.73-.29,6.58,3.76,10.66,9.96,10.85,6.3.19,10.1-3.74,10.37-10.61Z"/>
  <path class="cls-1" d="m460.59,134.41c-10.66-.09-17.94-7.48-17.98-18.27-.04-10.83,8.03-19.15,18.5-19.05,10.22.09,19.12,9.12,18.86,19.14-.28,10.66-8.4,18.28-19.38,18.19Zm1.43-28.54c-8.13-.06-11.19,4.41-11.42,9.9-.27,6.43,4.46,10.61,10.46,10.68,5.98.07,10.32-3.58,10.15-10.56-.17-6.97-4.39-9.56-9.19-10.03Z"/>
  <path class="cls-1" d="m965.32,116.23c0,10.7-7.34,18.12-17.99,18.22-11.2.11-19.01-7.36-19.08-18.25-.08-10.41,8.39-19.09,18.65-19.12,10.32-.03,18.42,8.39,18.42,19.15Zm-28.42-2.82c-.35,9.07,3.77,12.98,9.81,13.11,6.11.13,10.55-4.14,10.57-10.5.02-5.75-3.16-9.93-9.66-10.15-6.7-.23-10.23,3.19-10.72,7.54Z"/>
  <path class="cls-1" d="m47.67,116.34c-.13,11.01-7.92,18.4-19.07,18.11-11.06-.29-18.31-8.05-18-19.27.28-9.92,8.86-18.24,18.7-18.12,10.29.12,18.49,8.73,18.37,19.28Zm-19.33-10.58c-6.07.64-9.43,4.12-9.26,10.83.17,6.49,4.44,9.88,9.96,9.9,6.02.02,10.4-3.79,10.25-10.52-.15-6.54-3.69-10.14-10.94-10.21Z"/>
  <path class="cls-1" d="m191.17,134.43c-10.58.14-18.21-7.2-18.47-17.78-.26-10.73,7.71-19.38,18.01-19.56,10.14-.18,19.13,8.5,19.31,18.63.18,10.57-7.87,18.57-18.85,18.71Zm10.06-21.05c-.16-3.79-3.48-7.28-10.18-7.53-6.62-.25-9.93,3.84-10.31,9.51-.44,6.42,3.98,10.88,9.99,11.08,5.81.19,10.58-3.12,10.5-13.05Z"/>
  <path class="cls-1" d="m425.46,116.15c-.05,11.08-7.64,18.46-18.81,18.3-10.33-.15-18.29-8.03-18.41-18.21-.11-10.19,8.61-19.09,18.78-19.16,10.4-.08,18.48,8.29,18.43,19.07Zm-19.09-10.34c-5.4.39-9.18,3.42-9.4,10.21-.22,7.1,4.34,10.39,10.26,10.44,5.71.05,10.11-4.02,10.22-9.96.11-6.06-2.99-10.57-11.08-10.69Z"/>
  <path class="cls-1" d="m155.56,115.96c0,10.73-7.32,18.35-17.78,18.47-11.1.13-19.3-7.44-19.53-18.04-.22-10.14,8.4-19.09,18.61-19.31,10.37-.23,18.68,8.17,18.69,18.88Zm-28.58-1.11c.07,8.5,4.8,11.8,10.63,11.58,6.03-.23,10.38-4.79,9.94-11.14-.4-5.64-3.83-9.68-10.39-9.43-6.72.26-9.95,3.85-10.18,8.99Z"/>
  <path class="cls-1" d="m298.53,134.41c-11.05-.26-18.26-7.98-17.97-19.25.25-9.94,8.75-18.16,18.69-18.09,10.33.08,18.54,8.68,18.38,19.26-.17,11.1-7.83,18.36-19.1,18.09Zm10.7-19.36c-.41-5.94-3.99-9.38-10.63-9.18-6.35.19-9.49,4.01-9.63,10.07-.15,6.73,4.21,10.6,10.21,10.58,6.06-.02,10.12-3.97,10.05-11.46Z"/>
  <path class="cls-1" d="m857.64,115.48c.18,10.85-7.59,18.84-18.45,18.98-10.76.13-18.4-7.07-18.66-17.6-.27-10.67,7.57-19.39,17.77-19.76,10.15-.37,19.17,8.21,19.34,18.39Zm-16.96-9.62c-8.39-.12-11.86,3.73-11.94,10.14-.09,6.59,4.38,10.59,10.41,10.48,5.39-.1,9.87-3.34,9.9-9.96.03-6.68-3.35-10.11-8.37-10.65Z"/>
  <path class="cls-1" d="m676.84,134.6c-10.69-.03-18.77-8.27-18.59-18.97.16-9.83,8.66-18.38,18.44-18.55,10.31-.18,18.76,8.31,18.75,18.86-.01,11.13-7.56,18.7-18.6,18.67Zm-9.97-19.09c-.35,7.02,3.87,10.87,9.87,11.01,6.06.14,10.67-4.04,10.64-10.47-.02-5.69-3.09-9.96-9.65-10.16-6.67-.2-10.3,3.02-10.86,9.62Z"/>
  <path class="cls-1" d="m785.05,134.43c-10.69-.03-19.22-8.36-19.1-18.64.12-10.07,9.26-18.92,19.35-18.7,10,.21,18.32,8.62,18.39,18.55.07,10.83-7.86,18.83-18.63,18.8Zm-10.18-20.73c-.52,9.07,4.14,12.59,9.92,12.76,6,.18,10.73-4.11,10.68-10.43-.04-5.54-3.19-9.98-9.74-10.13-6.65-.14-10.15,3.33-10.86,7.8Z"/>
  <path class="cls-1" d="m1054.03,134.38c-10.2-.39-18.23-8.63-18.15-18.62.09-10.04,9.25-18.87,19.37-18.67,10.86.22,18.55,8.9,18.03,20.36-.47,10.32-8.46,17.34-19.25,16.93Zm-9.23-20.92c-.49,9.46,4.24,12.27,10.08,13.16,4.82.74,11.43-5.94,10.69-10.75-.84-5.45-3.38-9.98-10.08-10.01-6.71-.02-10.15,3.39-10.69,7.6Z"/>
  <path class="cls-1" d="m245.45,134.42c-10.37.11-19.41-8.46-19.43-18.43-.03-9.97,9.16-19.01,19.23-18.92,10.02.1,19.07,9.31,18.85,19.2-.23,10.04-8.44,18.04-18.64,18.15Zm-1.8-28.66c-4.7.82-8.9,3.75-8.86,10.5.04,6.28,4.08,10.01,9.79,10.21,6.27.22,10.86-3.98,10.99-10.22.12-6.07-3.5-10.35-11.93-10.49Z"/>
  <path class="cls-1" d="m623.13,134.42c-10.4.05-19.34-8.64-19.15-18.6.2-10.25,9.14-18.93,19.31-18.74,10.04.19,19.11,9.51,18.81,19.33-.29,9.68-9.02,17.97-18.97,18.01Zm10.54-18.57c-1.22-5.53-3.65-10.03-10.72-10.01-6.49.02-9.93,3.88-10.4,9.61-.54,6.61,4.06,10.71,10.06,11,6.07.29,10.2-3.64,11.06-10.59Z"/>
  <path class="cls-1" d="m893.19,134.47c-10.33.09-19.36-8.55-19.36-18.52,0-10,9.08-18.9,19.24-18.87,10.12.03,19.08,9.14,18.87,19.19-.2,9.71-8.86,18.11-18.75,18.2Zm-.62-28.74c-6.14.57-10.12,4-10.06,10.52.06,6.71,4.97,10.34,10.87,10.22,5.51-.11,10.03-3.93,9.98-10.16-.05-6.43-3.79-10.11-10.79-10.59Z"/>
  <path class="cls-1" d="m731.31,134.53c-11.1.04-18.87-7.57-18.87-18.48,0-10.66,8.29-19.05,18.74-18.97,10.06.07,19,9.22,18.78,19.21-.22,9.95-8.66,18.2-18.66,18.24Zm.43-28.78c-7.62.31-11.36,4.37-11.24,10.54.12,6.31,4.81,10.54,10.92,10.22,5.34-.28,9.93-3.47,9.77-10.2-.16-6.77-3.9-9.89-9.45-10.56Z"/>
  <path class="cls-1" d="m352.83,134.51c-10.33-.07-19.07-8.97-18.71-19.06.35-9.89,8.93-18.28,18.78-18.37,10.26-.09,19.25,8.69,19.26,18.84.01,9.91-9.09,18.67-19.34,18.59Zm.58-28.77c-7.38.38-10.81,4.6-10.81,10.71,0,6.11,4.72,9.93,10.25,9.99,5.94.06,10.64-3.55,10.57-10.39-.07-6.69-4.19-9.76-10.01-10.32Z"/>
  <path class="cls-1" d="m83.19,134.43c-10.7.03-19.11-8.26-18.94-18.66.17-10.19,9.16-18.91,19.28-18.69,9.77.21,18.47,8.82,18.73,18.56.27,9.89-8.74,18.76-19.07,18.79Zm10.54-18.39c-.88-5.88-3.6-9.97-10.52-10.2-6.64-.22-10.04,3.92-10.52,9.42-.57,6.39,3.89,10.72,10.01,11.17,6.32.47,10.05-3.65,11.04-10.39Z"/>
  <path class="cls-1" d="m1000.58,134.41c-10.56-.08-18.27-7.7-18.34-18.13-.07-10.61,8.17-19.14,18.56-19.2,10.1-.07,19.21,8.95,19.16,18.95-.06,10.22-8.74,18.46-19.38,18.38Zm10.63-20.34c-1.07-4.36-3.93-8.35-10.84-8.22-6.65.13-9.88,4.45-9.96,9.96-.09,6.19,4.24,10.72,10.57,10.64,6.11-.08,10.29-3.75,10.24-12.39Z"/>
  <path class="cls-1" d="m533.62,115.76c.14,10.8-7.7,18.65-18.66,18.7-10.08.04-18.55-7.95-18.97-17.92-.42-9.95,8.43-19.22,18.57-19.45,10.48-.24,18.92,8.03,19.06,18.68Zm-28.95-.86c0,7.89,4.46,11.5,10.37,11.58,6.11.08,10.66-4.25,10.54-10.62-.11-5.71-3.67-9.71-10.03-9.96-6.9-.28-9.87,3.75-10.87,9.01Z"/>
  <path class="cls-1" d="m550.71,329.12c7.24-.8,13.85-.75,19.91,5.03,6.55,6.25,14.47,11.04,21.19,17.14,3.55,3.23,5.62,2.48,8.68-.09,5.84-4.9,12.37-9.07,17.73-14.42,6.58-6.56,13.81-9.65,24.43-7.26-9.2,7.6-17.94,14.87-26.74,22.05-4.09,3.34-8.86,6.02-12.35,9.88-5.38,5.95-9.61,4.82-15.12.14-11.4-9.67-23.28-18.77-34.91-28.17-1.25-1.01-3.27-1.66-2.83-4.31Z"/>
  <path class="cls-1" d="m657.13,329.75c9.57-2.49,16.46-.36,22.8,5.24,6.58,5.82,13.73,10.99,20.32,16.8,2.87,2.54,4.84,2.25,7.51,0,6.73-5.65,13.89-10.8,20.34-16.74,6.32-5.83,13.21-7.56,22.66-5.31-15.44,12.48-30.11,24.33-44.77,36.2-1.35,1.09-2.51,1.06-3.87-.04-14.7-11.85-29.43-23.67-44.98-36.15Z"/>
  <path class="cls-1" d="m534.88,329.59c-15.23,12.36-29.51,23.95-43.8,35.52-1.67,1.35-3.13,2.02-5.32.26-14.48-11.7-29.09-23.24-45.41-36.23,9.83-.66,16.92-1.32,22.79,5.38,3.03,3.46,7.23,5.91,10.97,8.72,4.78,3.6,9.12,10.63,14.33,10.02,5.24-.62,9.85-6.76,14.69-10.54,2.77-2.16,5.74-4.18,8.09-6.74,6.1-6.64,13.47-8.59,23.66-6.4Z"/>
  <path class="cls-1" d="m224.97,329.33c9.83-1.21,17.24-.58,23.56,6.2,4.14,4.44,10.38,7.01,14.21,11.63,6.81,8.21,12.53,6.3,19.02.11,3.81-3.63,8.18-6.65,12.05-10.23,6.72-6.21,13.94-10.59,24.13-7.46-4.38,6.08-11.16,9.56-16.78,14.26-8.3,6.94-16.83,13.6-25.25,20.39-2.02,1.63-3.65,3.63-6.69,1.12-14.33-11.84-28.82-23.49-44.25-36.02Z"/>
  <path class="cls-1" d="m211.14,329.61c-15.54,12.51-30.28,24.34-44.95,36.25-1.85,1.5-3,.85-4.52-.38-14.51-11.74-29.06-23.43-44.86-36.15,9.01-1,15.95-1.17,22.13,4.7,5.09,4.83,11.4,8.43,16.21,13.49,6.26,6.57,11.42,7.03,17.77.28,3.78-4.01,8.88-6.75,12.9-10.57,6.72-6.38,14.02-10.44,25.32-7.61Z"/>
  <path class="cls-1" d="m333.55,329.92c12.81-4.57,19.91,3.32,27.7,9.4,6.24,4.87,12.73,14.06,18.55,13.64,7.01-.51,13.6-8.95,20.04-14.35,11.72-9.83,11.62-9.95,27.63-9.42-11.97,9.67-22.64,18.52-33.57,27.05-14.48,11.3-14.49,11.1-28.66-.7-10.29-8.56-20.81-16.84-31.69-25.62Z"/>
  <path class="cls-1" d="m967.27,329.43c-16.13,12.84-30.77,24.45-45.33,36.16-1.8,1.45-3.05,1.09-4.57-.15-14.43-11.69-28.88-23.36-44.38-35.9,9.46-1.62,16.31-.94,22.37,5.27,4.46,4.58,10.05,8.06,15.07,12.09q9.83,7.89,19.6-.21c4.97-4.11,9.96-8.2,15.06-12.15,8.14-6.3,8.19-6.25,22.18-5.1Z"/>
  <path class="cls-1" d="m981.42,329.93c12.57-4.62,19.46,3.05,26.96,8.89,6.6,5.15,12.74,14.62,19.93,14.19,6.69-.4,12.91-9.18,19.26-14.36,7.42-6.04,14.43-13.07,26.64-8.67-11.3,9.16-21.99,18.04-32.9,26.64-13.27,10.46-13.45,10.48-26.61.2-11.02-8.61-21.77-17.57-33.28-26.89Z"/>
  <path class="cls-1" d="m103.4,329.33c-15.85,12.84-30.51,24.7-45.15,36.61-1.88,1.53-3.07.51-4.53-.67-14.54-11.67-29.11-23.29-44.68-35.72,9.32-1.79,16.27-.78,22.62,5.09,6.22,5.75,13.41,10.44,19.66,16.15,3.45,3.15,5.63,3.74,9.33.42,6.09-5.47,13.2-9.86,19-15.59,6.47-6.4,13.67-7.64,23.75-6.28Z"/>
  <path class="cls-1" d="m765.14,329.76c11-2.87,17.92.84,24.64,7.03,6.85,6.31,14.75,15.89,22.19,15.9,7.36,0,14.97-9.88,22.01-15.97,6.91-5.97,14.04-10.05,24.64-6.95-10.38,8.42-20.2,16.49-30.15,24.4-5.46,4.34-11.18,11.74-16.69,11.66-5.58-.08-11.09-7.65-16.57-12.01-9.75-7.76-19.46-15.57-30.07-24.07Z"/>
  <path class="cls-1" d="m804.34,375.58c-9.17,1.58-16.7,1.55-22.5-5.47-.37-.44-.89-.77-1.37-1.1-7.9-5.42-14.49-16.72-22.84-16.17-7.76.52-15.49,9.77-22.16,16.28-6.6,6.45-13.75,8.33-23.84,6.51,11.82-9.61,22.86-18.74,34.07-27.66,12.42-9.9,12.49-9.83,24.72.08,11.06,8.96,22.09,17.94,33.91,27.55Z"/>
  <path class="cls-1" d="m912.32,375.38c-9.92,2.32-17.08.5-23.58-5.99-5.76-5.75-12.72-10.29-18.94-15.61-2.74-2.35-4.61-2.28-7.39.04-7.19,6-15.3,11.02-21.87,17.6-5.98,5.99-12.29,4.79-21.33,4.39,12.41-10.01,23.08-18.91,34.06-27.41,13.28-10.28,13.29-10,26.55,1.02,10.33,8.58,20.97,16.77,32.51,25.96Z"/>
  <path class="cls-1" d="m603.76,375.31c14.21-11.38,27.94-22.24,41.48-33.33,2.75-2.25,4.72-3.92,8.17-1.1,13.76,11.25,27.69,22.31,42.86,34.49-8.44,1.25-14.84,2.32-20.51-3.67-3.18-3.36-7.22-5.92-10.93-8.76-15.61-11.96-15.51-11.82-30.53.57-8.58,7.07-16.36,16.62-30.55,11.8Z"/>
  <path class="cls-1" d="m927.36,375.47c15.1-11.98,29.74-23.45,44.18-35.16,3.3-2.68,4.6-.08,6.54,1.46,13.75,10.93,27.5,21.85,42.25,33.58-7.79,1.36-14.06,2.16-20.02-3.09-7.04-6.19-14.7-11.67-21.84-17.75-3.09-2.63-5.07-3.74-8.65-.28-5.25,5.07-11.53,9.05-17.01,13.91-7.04,6.25-14.51,10.44-25.45,7.35Z"/>
  <path class="cls-1" d="m156.49,375.48c-10.17,1.95-17.17.28-23.39-6.09-5.08-5.2-11.47-9.1-16.97-13.93-4.11-3.61-7.4-4.25-11.78-.16-5.34,4.98-12,8.62-16.96,13.9-6.43,6.85-13.72,8.22-23.44,6.34,14.74-11.99,28.92-23.49,43.04-35.06,2.25-1.84,4.15-1.57,6.25.12,14.06,11.36,28.13,22.69,43.25,34.88Z"/>
  <path class="cls-1" d="m172.27,375.09c14.58-11.75,28.47-22.9,42.3-34.12,2.71-2.2,4.77-2.13,7.61.22,13.7,11.35,27.62,22.43,42.5,34.45-8.82,1.2-16.16,1.73-22.16-5.11-1.7-1.94-4.14-3.23-6.24-4.82-6.22-4.68-11.81-13.86-18.61-13.05-6.69.79-12.6,8.78-18.68,13.82-7.47,6.19-14.59,13.03-26.71,8.6Z"/>
  <path class="cls-1" d="m372.56,375.34c-9.44,2.43-16.46.6-22.81-5.2-4.95-4.52-11.32-7.69-15.56-12.73-6.5-7.72-11.33-4.65-17.02.44-5.01,4.48-10.79,8.13-15.53,12.86-5.89,5.88-12.64,6.39-21.93,4.92,11.26-9.15,21.4-17.65,31.82-25.78,14.58-11.38,14.63-11.22,29.15.39,10.25,8.19,20.61,16.24,31.88,25.11Z"/>
  <path class="cls-1" d="m387.32,375.66c15.23-12.14,28.99-23.07,42.69-34.06,2.36-1.9,3.98-3.52,7.33-.74,13.9,11.51,28.15,22.6,43.26,34.64-9.03,1.81-15.82.94-22-4.62-5.88-5.29-12.78-9.48-18.39-15.01-4.49-4.43-7.43-4.89-12.09-.35-5.44,5.3-12.11,9.33-17.59,14.6-6.31,6.08-13.45,6.93-23.21,5.54Z"/>
  <path class="cls-1" d="m588.8,375.61c-9.21.97-15.73,1.49-21.83-4.55-6.39-6.33-14.39-11.02-21.14-17.03-3.29-2.93-5.14-2.32-7.98.11-5.78,4.93-12.12,9.25-17.64,14.44-6.84,6.42-14.3,9.56-24.64,6.89,14.86-11.89,29.34-23.4,43.7-35.05,2.03-1.65,3.33-1.54,5.27,0,14.25,11.42,28.58,22.74,44.27,35.19Z"/>
  <path class="cls-1" d="m1067.71,456.92c2.92,4.25,5.83,8.49,9.64,14.03h-26.64q6.64,13.63-8.43,13.63c-1.17,0-2.36-.16-3.52-.03-1.98.21-4.84-.1-5.71,1.04-1.83,2.4,1.42,3.93,2.37,5.9.86,1.78,1.97,3.43,3.56,6.13h-26.85c2.99,5.06,5.26,8.92,8.05,13.66h-25.3c-.23,5.96,5.64,8.54,5.71,14.34h-24.65c1.03,5.39,4.52,8.3,7.15,13.02h-27.48c3.14,5.02,5.39,8.6,8.41,13.41h-25.71c.59,6.02,5.11,8.83,6.67,14.24h-27.73c10.07,9.38,11.09,17.74.16,26.7h27.01c.31,5.81-4.88,8.34-6.08,13.86h26.17c-3.1,5.27-5.37,9.13-8.31,14.13h26.96c-3.52,5.68-6.24,10.07-8.96,14.46-8.68,0-17.37,0-26.37,0,.57-5.95,5.44-8.62,6.28-13.93h-24.65c-.16-5.72,5.18-8.23,5.88-14.11h-26.08c3.25-5.1,5.53-8.69,8.49-13.32h-28.58c10.3-9.52,10.76-18.1.56-27.24h26.8c0-5.87-5.69-8.49-6.3-14.24h24.69c-.47-5.63-4.99-8.5-6.52-13.75h26.75c-2.87-4.64-5.07-8.18-7.9-12.75h25.24c.31-5.98-4.82-8.53-6.1-13.96h25.24c-.71-5.87-5.32-8.6-6.72-13.99h25.13c-.24-5.76-5.66-8.26-5.61-13.85,5.94,0,11.73.13,17.5-.07,2.19-.07,5.16,1.37,6.46-1.1,1.33-2.53-1.79-3.95-2.82-5.93-.9-1.75-1.92-3.44-3.41-6.08h26.81c-2.95-4.98-5.23-8.84-8.4-14.2h27.16Z"/>
  <path class="cls-1" d="m555.79,457.16h25.98c-.15,5.41-5.26,8.24-6.74,13.7h25.94q-6.62,13.42,8.57,13.46c3.15,0,6.3,0,9.66,0-.23,5.32-4.74,7.85-5.95,12.96h25.26c-.64,5.84-5.31,8.54-6.68,13.96h25.18c-.51,5.86-5.5,8.44-6.36,13.93h24.46c.04,5.78-4.63,8.51-6.11,13.45h26.53c-2.79,4.81-5.03,8.66-7.83,13.49h25.36c-.11,5.86-5.02,8.48-6.43,13.89h27.61c-9.85,9.64-10.7,18.23-.52,27.28h-26.68c.02,5.61,4.75,8.3,6.6,13.72h-27.32s.26.13.26.13c-2.26-4.52-6.99-7.75-7.6-14.22h27.65c-12.4-9.15-9.5-17.5-.55-26.8h-27.6c1.7-5.31,6.31-8.04,6.7-13.78h-25.52c2.81-4.83,5.03-8.64,7.87-13.53h-27.06c2.79-4.53,5-8.11,8.14-13.22h-26.05c1.05-5.8,5.99-8.41,6.38-14.27h-25.19c1.36-5.37,6.11-8.05,6.53-13.96h-25.19c1.45-5.05,5.77-7.66,6.2-13.25h-25.4c2.75-4.74,4.87-8.4,7.66-13.23h-27.43c3.89-5.47,6.88-9.68,9.86-13.89l-.22.16Z"/>
  <path class="cls-1" d="m956.31,456.97c2.9,4.25,5.79,8.5,9.43,13.84h-25.93c-.15,5.63,5.22,8.12,5.82,13.75h-26.01c2.92,4.75,5.14,8.36,7.94,12.92h-25.75c.55,5.65,5,8.54,6.43,13.96h-26.09c3.11,5.26,5.41,9.14,8.29,14h-25.47c.14,5.73,4.83,8.46,6.47,13.56h-26.72c2.78,4.65,4.95,8.29,7.72,12.93h-24.96c-.55,6.19,5.15,8.45,5.58,13.76h-43.33c2.29-3.92,4.56-7.83,7.39-12.68h-25.11c-.12-5.9,4.91-8.44,6.09-13.87h-26.94c3.81-5.36,6.64-9.35,9.47-13.34l-.09.09h26.46c-1.45,5.24-5.72,7.88-6.23,13.23h25.32c-1.34,5.22-6.21,7.83-6.33,12.81h24.65c-2.64-4.61-4.86-8.49-7.67-13.41h27.03c-2.79-4.44-5.02-8.01-8.18-13.04h26.15c-1.09-5.76-5.93-8.43-6.4-13.35,8.39-1.27,16.82.85,25.01-1.22-1.13-5.21-6.19-7.76-6.4-13.24h24.91c-.89-5.29-5.85-8-5.85-13.29,3.49,0,6.69-.02,9.89,0q15.09.11,8.31-13.55h26.33c-3.03-4.89-5.38-8.68-8.49-13.7h27.49l-.27-.18Z"/>
  <path class="cls-1" d="m240.1,621.31c-2.92-4.28-5.85-8.55-9.46-13.83h25.61c0-1.38.27-2.26-.04-2.83q-6.09-11.25,6.53-11.25c10.26,0,20.52,0,31.18,0-.08,5.29-5.02,7.94-6.1,13.25h24.45c.29,6.13-5.56,8.77-5.9,14.44h25.75c-2.88,4.83-5.19,8.69-8.19,13.72h26.16q-6.05,13.3,8.19,13.39c1.18,0,2.37-.13,3.52.03,2.19.31,5.33-1.27,6.33,1.37.81,2.13-1.58,4.13-2.86,6.04-1.09,1.64-2.09,3.34-3.83,6.15h26.2c-1.19,6.03-5.61,9.67-8.35,14.24l.22-.23h-26.34c.69-5.81,6.37-8.41,6.35-14.13h-25.5c1.28-2.35,2.18-4.09,3.16-5.79,1.13-1.96,4.03-3.66,2.95-5.95-1.36-2.88-4.72-1.37-7.2-1.46-5.62-.19-11.24-.06-18.13-.06,3.09-5.02,5.3-8.62,8.25-13.42h-27.16c3.03-4.93,5.37-8.73,8.55-13.91h-26.23c1.04-5.66,6.44-8.35,6.34-13.39h-25.65c2.89,4.6,5.27,8.39,8.42,13.4h-27.42l.2.21Z"/>
  <path class="cls-1" d="m72.27,661.9c-2.77-4.07-5.54-8.13-9.04-13.27h27.24c-2.73-4.79-4.82-8.47-7.38-12.97h24.75c.57-6.22-5.01-8.82-6.12-14.46h26.3c-3.08-5.2-5.35-9.05-8.12-13.74h24.85c.33-1.14.76-1.8.58-2.15q-6.16-11.92,7.2-11.91c1.47,0,2.94.09,4.4-.02,2.26-.18,5.21,1.04,6.59-1,1.65-2.45-1.22-4.36-2.58-5.88-8.28-9.23,3.23-13.48,4.84-20.17h28.97c-10.19,9.2-10.47,17.77-.47,27.21-8.28,0-14.05-.16-19.81.08-2.14.09-5.15-1.45-6.32,1.13-1.05,2.32,1.5,4.16,2.64,6.12,1,1.72,2.1,3.38,3.8,6.11h-27.1c3.02,5.07,5.31,8.93,8.25,13.86h-26.93c3.06,5.15,5.37,9.03,8.26,13.88h-25.26c.05,5.86,4.75,8.57,6.24,13.54h-26.71c2.86,4.75,5.14,8.55,8.2,13.64h-27.28Z"/>
  <path class="cls-1" d="m285.82,552.24c2.78,4.33,5.57,8.65,8.87,13.78h-44.77c2.81-4.65,5.12-8.48,7.95-13.15h-24.25c-1.43-1.2-1.67-1.77-1.13-2.73q6.28-11.19-7.18-11.13c-.59,0-1.18.06-1.76,0-3.15-.33-7.58,1.62-9.18-.95-2.17-3.48,3.05-5.62,4.04-8.85.24-.78.73-1.48,1.61-3.22h-26.64c3.01-5.11,5.29-8.97,8.25-14h-26.88c3.47-5.65,6.16-10.04,8.86-14.43,0,0-.21.14-.21.14h26.77c-.61,5.95-6.34,8.5-6,14.52h24.57c-.94,5.25-5.94,7.87-6.01,13.52h24.21c.95,2.83-1.4,3.6-1.82,5.21-.63,2.43-4.58,3.89-2.78,6.73,1.32,2.09,4.33,1.01,6.59,1.05,5.7.11,11.4.04,17.21.04-.39,5.77-5.89,8.21-5.71,13.64h25.59l-.17-.19Z"/>
  <path class="cls-1" d="m592.87,675.78c2.85,4.28,5.69,8.57,9.21,13.86h-25.8c-.04,5.37,4.35,7.92,6.19,13.45-6.29,0-12.21-.12-18.11.06-2.24.07-5.28-1.31-6.59.84-1.71,2.81,1.99,4.38,2.89,6.72.6,1.56,1.7,2.92,3.07,5.19h-43.31c-.04-.17-.39-.79-.22-1.21,1.49-3.73,7.14-7.11,5.24-10.27-2.14-3.55-8.03-.94-12.27-1.28-3.74-.3-7.52-.06-11.6-.06,0-5.17,5.02-7.82,5.82-12.89h-25.09c1.22-6.25,5.48-9.97,8.38-14.43l-.19.21h26.76c-1.57,5.62-6.57,8.51-6.7,13.96h25.82c-2.07,3.2-3.69,5.88-5.47,8.43-1.74,2.49-2.15,4.46,1.74,4.53,7.07.12,14.15.04,22.33.04-3.06-5.08-5.24-8.7-8.05-13.37h26.96c-2.89-4.75-5.21-8.56-8.27-13.59h27.45l-.18-.18Z"/>
  <path class="cls-1" d="m433.99,525.77c-2.6-4.2-5.19-8.41-8.5-13.77h25.68c-.37-5.96-5.46-8.51-6.32-14.14h25.47c-1.19-5.49-6.01-8.19-6.43-13.78h24.74c-.48-5.29-4.9-7.82-6.11-13.01h26.3c-3.08-5.11-5.38-8.92-8.4-13.93h27.33l-.22-.17c2.91,4.24,6.54,8.04,8.67,14.13h-25.91c1.74,5.26,5.85,8.3,6.42,13.44-4.71,0-8.79-.25-12.82.07-3.9.32-9.31-2.46-11.3,1.3-1.54,2.91,3.44,6.13,5.09,9.45.22.44.03,1.08.03,2.66h-25.67c3.04,5.1,5.33,8.95,8.35,14.02h-26.2c1.21,5.45,5.89,8.18,6.53,13.96h-26.38l-.34-.24Z"/>
  <path class="cls-1" d="m686.33,607.01c2.87,4.29,5.73,8.58,9.28,13.88h-25.85c-.01,5.66,4.89,8.32,6.14,13.46-8.13,2.12-16.58-.22-25.51,1.52,2.43,4.05,4.6,7.67,7.35,12.23h-26.74c2.89,5.01,5.08,8.81,7.91,13.72h-27.04c3.14,5.02,5.54,8.86,8.73,13.96-9.91,0-18.82,0-27.72,0,0,0,.18.18.18.18-2.78-4.33-5.56-8.66-9.28-14.44h26.32c-1.07-5.46-6.01-8.11-5.88-13.66h25.14c-1.24-4.83-5.92-7.46-6.09-12.93h24.16c.05-5.66-5.73-8.38-5.65-14.15h25.59c-2.88-4.73-5.21-8.55-8.31-13.65h27.54l-.26-.13Z"/>
  <path class="cls-1" d="m760.66,525.8h-26.41c-.39-5.79,5.78-8.26,5.88-13.97h-25.59c2.78-4.78,5.03-8.66,8.04-13.83h-27.08c3.18-5.01,5.43-8.56,8.21-12.95h-25.17c-.84-5.75,4.73-8.2,5.31-13.78h-26.22c3.84-5.75,6.69-10.03,9.53-14.3,0,0-.24.17-.24.17h27.35c-3.03,5.05-5.32,8.88-8.3,13.84h26.97c-2.81,4.69-4.97,8.3-7.82,13.05h26.57c-2.85,5.03-5.03,8.89-7.45,13.16,8.97,1.37,17.39-.71,25.6,1.34-1.44,5.06-6.14,7.72-6.63,13.27h25.93c-3.23,5.3-5.91,9.7-8.58,14.09l.09-.09Z"/>
  <path class="cls-1" d="m165.98,566.61h-27.58c3.02-4.99,5.36-8.85,8.29-13.68h-25.52c-.16-5.83,5.53-8.22,5.5-13.87h-25.47c2.73-4.73,4.83-8.36,7.55-13.07h-26.74c3.09-5.2,5.38-9.04,8.35-14.03h-26.95c3.47-5.66,6.17-10.06,8.86-14.45h26.66c-.77,5.58-5.07,8.48-6.8,13.86h25.06c-.11,5.94-5.43,8.47-5.83,14.05h24.51c-.06,5.43-4.96,7.75-5.69,12.92h24.61c-.13,5.74-4.84,8.54-6.16,13.97h26.5c-3.6,5.64-6.37,9.98-9.14,14.32Z"/>
  <path class="cls-1" d="m434.26,635.24h-26.76c.63-5.37,4.83-8.37,6.62-13.74h-25.15c.42-5.91,5.48-8.48,6.18-13.94h-24.8c.46-5.57,5.08-8.34,6.23-13.52h-26.99c8.69-9.39,10.96-18.03-.73-27.49h28.87l-.21-.16c7.54,8.03,12.33,16.32-.44,26.93h27.25c-.49,5.76-5.36,8.41-6.4,13.89h25.35c-.64,5.8-6.32,8.37-6.31,14.19h25.7c-3.26,5.24-5.97,9.61-8.69,13.97l.26-.14Z"/>
  <path class="cls-1" d="m760.64,635.4c-2.7-4.4-5.41-8.79-8.62-14.02h25.72c-.4-5.55-4.95-8.31-6.68-13.48,8.33-1.96,16.74.05,25.19-1.14-.14-4.89-5.41-7.4-5.85-12.77h42.9c-.56,5.37-5.23,8.63-7.46,13.15l.18-.16c-8.79.88-17.77-.96-26.7,1.07,1.25,5.12,5.99,7.85,6.2,13.53h-24.66c.63,5.39,5.88,7.9,5.94,12.82-.7.3-1.19.7-1.69.7-8.21.07-16.42.09-24.64.12l.17.18Z"/>
  <path class="cls-1" d="m72.46,497.78h-27.49c2.96-4.83,5.15-8.4,7.78-12.7h-25.5c-.37-5.69,4.88-8.18,5.86-13.66H6.95c3.52-5.79,6.17-10.15,8.82-14.51h26.66c-.1,5.72-5.77,8.28-6.37,13.79h24.87c-.13,5.42-5.06,8.13-5.75,13.33h25.28c-1.37,5.98-5.88,9.2-8.01,13.73Z"/>
  <path class="cls-1" d="m704.19,675.97c-2.65-4.37-5.3-8.75-8.55-14.12h25.55c-.2-5.51-5.22-8.1-6.01-13.65h26c-2.78-4.67-4.92-8.25-7.63-12.8,9.81,0,18.44,0,27.08,0,0,0-.17-.18-.17-.18,2.64,4.25,6.6,7.74,8.35,13.29-3.96,0-7.13-.01-10.29,0-4.66.03-11.22-1.81-13.54.54-4.01,4.06,4.62,7.17,3.89,13.04h-25.35c3.02,5.02,5.34,8.87,8.25,13.72h-27.78l.2.16Z"/>
  <path class="cls-1" d="m183.64,661.84c-2.76-4.03-5.52-8.06-9.11-13.3h27.16c-2.77-4.84-4.86-8.5-7.56-13.22h26.58c-2.99-5.13-5.24-9-8.16-14,9.79,0,18.67,0,27.55,0,0,0-.2-.21-.2-.21,2.43,4.5,6.34,8.2,8,14.24h-25.11c.6,5.54,5.84,8.02,6.25,13.67h-26.08c2.71,4.41,4.93,8.02,7.8,12.68h-27.35l.24.15Z"/>
  <path class="cls-1" d="m974.04,635.17c8.67,0,17.35,0,27.33,0-2.83,4.74-4.97,8.32-7.61,12.74h25.64c.02,5.71-5.12,8.26-5.92,13.47h25.02c-.94,6.38-5.78,9.79-7.79,14.64h-26.65c.54-5.66,5.48-8.55,6.84-13.89h-24.84c-.79-5.65,5.15-7.92,5.18-13.5h-25.98c3.44-5.27,6.11-9.37,8.78-13.46Z"/>
  <path class="cls-1" d="m342.26,511.68c2.77,4.31,5.54,8.62,8.97,13.96h-25.68c-.1,5.55,5.26,7.99,5.73,13.42h-25.22c.11,1.29-.02,1.92.22,2.34,1.89,3.4,6.88,6.6,5.11,10.04-1.44,2.8-6.98.87-10.68.98-4.95.15-9.92-.11-14.88-.19,0,0,.17.19.17.19-2.24-4.5-6.98-7.73-7.39-14.19h24.73c-1.25-4.94-5.57-7.56-5.92-13.06h25.28c-1.76-5.2-6.03-8.08-6.92-13.32h26.7l-.23-.17Z"/>
  <path class="cls-1" d="m490.68,675.75h-26.71c.2-5.34,5.55-8.04,6.24-13.53h-24.49c-.19-5.67,4.77-8.3,5.97-13.42h-27.33c3.99-5.47,6.95-9.52,9.9-13.57,0,0-.26.14-.26.14,8.79,0,17.57,0,27.31,0-3.14,5.06-5.36,8.64-8.17,13.16h26.49c-1.1,5.16-5.74,7.88-6.37,13.31h25.86c-3.3,5.39-5.97,9.75-8.64,14.11l.19-.21Z"/>
  <path class="cls-1" d="m379.3,676.03h26.7c-.67,5.2-5.03,8.03-6.83,13.19h25.12c.26,5.64-4.72,7.99-5.45,13.18h24.71c-1,6.39-5.03,9.92-7.78,14.13,0,0,.25-.14.25-.14h-27.61c3.25-5.11,5.54-8.72,8.47-13.34h-26.51c1.02-5.32,6.05-7.84,6.13-13.35h-25.7c3.28-5.23,6-9.56,8.72-13.89l-.22.23Z"/>
  <path class="cls-1" d="m862.8,635.36h27.26c-2.78,4.55-4.97,8.12-7.59,12.41h25.7c-.11,5.67-4.8,8.37-6.45,13.72h26.52c-3.56,5.78-6.24,10.14-8.92,14.5,0,0,.21-.17.21-.17-8.92,0-17.85,0-26.95,0,.87-5.77,6.31-8.44,6.51-14.14h-25.57c2.56-4.58,4.71-8.42,7.5-13.41h-27.15c3.55-5.05,6.35-9.05,9.16-13.05,0,0-.25.14-.25.14Z"/>
  <path class="cls-1" d="m377.73,566.55c-2.02-4.73-6.51-8.1-7.86-14.07h25.02c-.54-5.48-5.24-8.17-6.45-13.6h26.6c-2.91-4.67-5.13-8.23-8.17-13.11,9.91,0,18.51,0,27.11,0,0,0,.34.24.34.24,2.69,3.96,5.39,7.93,9.03,13.28h-26.51c.64,5.38,5.99,7.84,5.65,13.54h-25.32c2.85,4.74,5.16,8.6,8.15,13.57h-27.8l.21.16Z"/>
  <path class="cls-1" d="m825.84,607.15h27.34c-3,5.01-5.28,8.84-8.11,13.56h25.67c-1.27,6.31-5.54,10-7.94,14.65,0,0,.25-.14.25-.14-8.83,0-17.65,0-26.77,0,1.41-6,6.07-8.77,6.37-14.36h-25.94c3.58-5.34,6.45-9.61,9.31-13.88l-.18.16Z"/>
  <path class="cls-1" d="m527.74,457.14c-2.77-4.32-5.53-8.63-8.8-13.73h45.23c-3.04,5-5.71,9.37-8.38,13.74,0,0,.22-.16.22-.16-9.5,0-18.99-.01-28.49-.02l.22.17Z"/>
  <path class="cls-1" d="m440.96,198.3c-10.86,11.76-21.5,23.28-32.31,35,10.17,9.73,21.35,20.44,33.58,32.15h-66.97c8.4-9.09,17.32-19.33,26.94-28.87,3.96-3.93,4.05-5.82-.07-9.51-10.02-8.97-19.57-18.45-30.41-28.76h69.25Z"/>
  <path class="cls-1" d="m575.42,265.73h-69.12c8.53-7.99,15.84-14.82,23.12-21.68,12.78-12.05,12.9-12.19,25.59.17,6.9,6.72,13.29,13.98,20.41,21.52Z"/>
  <path class="cls-1" d="m506.42,198.09h71.29c-12.03,11.33-22.98,21.55-33.79,31.91-2.38,2.28-3.53.55-4.99-.84-10.35-9.88-20.69-19.77-32.51-31.07Z"/>
  <path class="cls-1" d="m915.35,198.07h62.99c-8.36,9.3-17.23,19.62-26.67,29.4-3.34,3.46-3.83,4.95-.21,8.73,9.41,9.84,18.1,20.37,25.96,29.36h-62.29c8.22-9,16.61-18.93,25.85-27.98,4.55-4.46,5.28-6.48.21-11.33-9.44-9.04-17.76-19.24-25.84-28.18Z"/>
  <path class="cls-1" d="m641.45,198.08h67.19c-9.97,10.49-20.69,21.77-30.66,32.26,10.97,12.4,21.23,23.99,30.97,34.99h-63.78c8.09-8.77,16.67-18.57,25.84-27.78,4.29-4.31,5.73-6.73.14-11.44-9.86-8.31-18.84-17.66-29.71-28.02Z"/>
  <path class="cls-1" d="m101.55,198.1h67.06c-9.62,10.94-19.95,22.68-30.51,34.68,10.66,10.15,21.86,20.81,34.17,32.53h-68.32c8.95-9.22,17.76-19.11,27.49-28,5.19-4.75,4.72-6.93-.29-11.25-9.76-8.41-18.79-17.66-29.59-27.96Z"/>
  <path class="cls-1" d="m304.7,265.82h-66.51c.9-4.62,4.98-6.32,7.66-8.99,5.39-5.36,11.1-10.39,16.64-15.6,9.6-9.01,9.86-9.31,19.64.22,7.92,7.71,15.07,16.21,22.56,24.37Z"/>
  <path class="cls-1" d="m236.6,198.17h69.94c-7.37,9.52-16.45,16.62-24.74,24.48-9.95,9.44-9.95,9.29-19.58-.11-8.06-7.87-16.31-15.53-25.63-24.38Z"/>
  <path class="cls-1" d="m776.72,265.27c11.62-10.98,22.25-20.91,32.73-31,2.62-2.52,4.02-.74,5.75.89,10.21,9.59,20.44,19.17,32.11,30.12h-70.59Z"/>
  <path class="cls-1" d="m775.96,197.92h71.81c-7.93,7.52-14.49,13.89-21.21,20.07-4.89,4.5-9.84,11.89-15.07,12.17-4.47.24-9.37-7.82-14.08-12.21-6.6-6.16-13.2-12.32-21.45-20.03Z"/>
  <path class="cls-1" d="m69.17,222.25c6.13.44,9.71,3.93,9.98,9.41.28,5.66-3.54,9.6-9.13,9.82-5.64.22-9.53-3.53-9.81-9.17-.29-5.82,3.8-8.75,8.96-10.05Z"/>
  <path class="cls-1" d="m349.43,231.14c-.67,6.13-3.87,10.05-9.39,10.31-5.58.27-9.57-3.34-9.87-9.07-.3-5.81,3.43-9.44,9.04-9.85,5.96-.43,8.64,3.87,10.22,8.61Z"/>
  <path class="cls-1" d="m609.7,241.75c-5.14-.94-9.35-3.42-9.56-9.37-.2-5.88,3.49-9.49,9.06-9.83,5.82-.36,9.57,3.52,9.83,9.08.26,5.63-3.42,9.04-9.33,10.12Z"/>
  <path class="cls-1" d="m879.13,222.26c6.14.7,9.83,4.19,9.86,9.68.03,5.51-3.68,9.62-9.43,9.53-5.53-.09-9.38-3.55-9.46-9.48-.08-6.03,4.01-8.58,9.03-9.74Z"/>
  <path class="cls-1" d="m465.41,231.44c.32-5.61,3.41-9.07,9.31-8.94,5.85.13,8.98,3.57,8.91,9.54-.07,6.02-3.76,9.46-9.19,9.38-5.48-.08-8.9-3.78-9.03-9.98Z"/>
  <path class="cls-1" d="m1023.65,232.74c-.72,5.43-4.3,8.86-9.73,8.7-5.66-.17-9.03-4.37-8.78-9.97.25-5.57,3.64-9.47,9.62-8.95,5.53.49,8.77,3.97,8.89,10.21Z"/>
  <path class="cls-1" d="m213.75,232.34c-.12,5.78-3.82,9.1-9.25,9.08-5.58-.02-9.07-3.83-9.01-9.64.06-5.79,3.35-9.44,9.22-9.26,5.69.18,8.96,3.58,9.04,9.82Z"/>
  <path class="cls-1" d="m753.59,230.81c.02,7.42-3.97,10.56-9.28,10.63-5.61.08-9.26-4-9.14-9.63.11-5.51,3.31-9.55,9.35-9.34,5.75.19,8.86,3.67,9.07,8.34Z"/>
  <path class="cls-1" d="m670.63,580.14c-19.04,14.15-37.82,28.09-56.58,42.06-22.57,16.8-45.17,33.57-67.63,50.52-3.11,2.35-5.05,3.46-8.86.6-40.74-30.63-81.68-61-122.54-91.46-.68-.51-1.14-1.32-1.84-2.15,41.6-31.04,83.19-61.96,124.6-93.13,4.13-3.11,6.3-.87,9.1,1.21,36.4,27.13,72.81,54.25,109.21,81.38,4.67,3.48,9.3,7.01,14.54,10.97Zm-225.26-.41c.3.46.51,1.08.95,1.4,30.23,22.63,60.53,45.17,90.68,67.91,3.99,3.01,6.81,1.82,10.12-.67,28.34-21.27,56.55-42.73,85.21-63.55,5.83-4.24,4.85-6.05.13-9.55-28.02-20.71-56.07-41.39-83.83-62.45-5.28-4-8.76-4.07-14.04-.04-29.57,22.53-59.44,44.67-89.22,66.95Z"/>
  <path class="cls-1" d="m624.65,580.08c-22.55,16.85-44.49,33.42-66.63,49.72-16.55,12.18-16.66,12.02-33.12-.21-20.46-15.21-40.93-30.4-61.36-45.64-1.61-1.2-2.98-2.72-4.54-4.16,25.35-18.89,50.58-37.43,75.46-56.45,5.3-4.05,8.77-4.4,14.2-.24,24.86,19.04,50.08,37.61,75.98,56.97Zm-56.52,10.97h23.89c-10-7.66-7.59-14.56-1.25-22.78h-22.6c2.23-3.25,5.37-6,6.03-10.26-6.78-1.18-13.48.74-19.84-1.2.63-3.92,4.54-5.53,4.07-9.13h-33.57c.16,4,4.22,5.57,3.81,10.13h-20c1,2.13,1.3,3.31,2,4.17,4.56,5.55,2.87,7.37-3.78,6.89-4.19-.3-8.42-.06-15.64-.06,9.62,8.24,8.35,15.13.81,22.26,9.31,0,16.35,0,23.39,0-1.85,3.49-5.37,6.05-6.13,11.22h20.67c-2.36,4.17-4.14,7.31-6.16,10.89h35.51c-1.24-4.22-5.14-6.48-4.97-11.55h20.47c-2.71-4.26-4.71-7.42-6.72-10.57Z"/>
  <path class="cls-1" d="m568.34,568.15c-.3.5-.53,1.08-.93,1.49-7.13,7.55-5.76,14.71.96,21.64h-20.89c-.53,4.44,3.88,6.19,3.9,10.24h-18.98c-.89-3.74,3.36-5.5,3.94-9.44-6.98-1.93-14.14-.5-21.18-.81,5.43-6.88,9.51-13.86-1.36-22.34h21.62c1.06-4.67-3.3-6.4-3.95-10.62,6.7-1.27,13.33-.57,20-.48.36,4.42-4.4,6.09-3.76,10.41,6.86.53,13.73.81,20.62-.1Z"/>
</svg>