<?xml version="1.0" encoding="UTF-8"?>
<svg id="Capa_1" data-name="Capa 1" xmlns="http://www.w3.org/2000/svg" viewBox="0 0 1080 70.61">
  <defs>
    <style>
      .cls-1 {
        fill: #e42329;
      }

      .cls-1, .cls-2, .cls-3, .cls-4, .cls-5, .cls-6 {
        stroke-width: 0px;
      }

      .cls-2 {
        fill: #b62d6c;
      }

      .cls-3 {
        fill: #16a1c6;
      }

      .cls-4 {
        fill: #6b3815;
      }

      .cls-5 {
        fill: #cad639;
      }

      .cls-6 {
        fill: #6db02d;
      }
    </style>
  </defs>
  <path class="cls-1" d="m691.91,57.38c-8.72,2.78-15.19,1.27-21.27-4.39-5.35-4.98-11.5-9.12-17.46-13.4-4.62-3.32-9.37-3.53-14,.35-5.35,4.48-10.75,8.91-16.25,13.21-6.03,4.72-12.55,7.64-21.2,4.27,8.09-6.54,15.76-12.75,23.45-18.94,5.88-4.74,11.82-9.39,17.64-14.19,2.6-2.15,5.11-2.26,7.67-.2,13.63,10.93,27.23,21.89,41.41,33.3Z"/>
  <path class="cls-5" d="m121.54,12.8c10.22-2.08,17.82.42,24.48,6.79,4.75,4.54,9.99,8.58,15.09,12.75,4.77,3.9,9.05,3.8,13.75-.17,5.46-4.63,10.9-9.28,16.35-13.92,6.26-5.33,13.3-7.63,22.47-5.39-6.69,5.47-12.87,10.56-19.08,15.59-7.62,6.17-15.32,12.25-22.9,18.47-2.28,1.86-4.29,2.86-6.98.68-14.14-11.46-28.34-22.85-43.17-34.78Z"/>
  <path class="cls-4" d="m958.96,13c-11.52,9.22-22.52,18.03-33.53,26.83-2.36,1.89-5.08,3.44-7.05,5.66-4.09,4.6-7.34,3.24-11.44-.2-12.85-10.76-25.98-21.17-39.67-32.26,9.08-2.21,16.21-.54,22.38,5.45,4.88,4.73,10.32,8.78,16.05,12.45,5.16,3.3,10.34,3.36,15.27-.26,5.17-3.79,10.42-7.56,15.14-11.88,6.36-5.84,13.38-8.25,22.84-5.79Z"/>
  <path class="cls-2" d="m654.83,12.79c7.14-1.56,13.59-.95,19.3,3.63,6.91,5.55,13.93,10.97,20.59,16.8,3.87,3.39,6.92,3.54,10.8.08,6.06-5.39,12.54-10.33,18.73-15.57,6.04-5.12,12.83-6.73,21.6-4.74-4.24,3.47-7.9,6.5-11.6,9.49-9.84,7.96-19.73,15.85-29.5,23.89-2.78,2.29-5.1,3.39-8.41.69-13.44-10.97-27.03-21.74-40.55-32.61-.39-.31-.54-.92-.96-1.67Z"/>
  <path class="cls-4" d="m318.79,12.66c-1.87,3.47-4.45,5.49-6.98,7.35-11.41,8.38-22.27,17.45-33.23,26.4-2.46,2.01-4.81,3.5-7.99.89-13.81-11.35-27.73-22.59-42.3-34.42,8.49-1.79,15.63-.96,21.57,4.6,5.65,5.28,12.25,9.36,17.67,14.97,3.66,3.79,8.45,3.92,12.78.33,6.24-5.18,12.33-10.54,18.66-15.61,5.69-4.56,12.02-6.99,19.82-4.5Z"/>
  <path class="cls-4" d="m548.51,12.68c8.34-1.7,14.89-.04,20.79,5,6.3,5.38,13.03,10.27,19.34,15.64,3.44,2.93,6.16,3.33,9.86.24,6.22-5.2,12.85-9.91,18.81-15.45,5.93-5.52,12.96-7.35,21.87-5.37-5.01,4.25-9.46,8.13-14.01,11.87-8.31,6.83-16.75,13.51-25.01,20.41-3.83,3.21-7.73,4.14-11.77.94-12.71-10.08-25.3-20.3-37.91-30.51-.68-.55-1.07-1.47-1.98-2.76Z"/>
  <path class="cls-2" d="m16.06,12.73c7.37-1.6,13.96-.71,19.79,4.04,6.73,5.48,13.6,10.8,20.18,16.46,3.62,3.11,6.5,3.47,10.31.15,6.68-5.83,13.76-11.21,20.69-16.75,5.7-4.56,12.18-5.16,20.3-3.93-9.1,7.44-17.34,14.19-25.6,20.91-5.57,4.53-11.23,8.93-16.74,13.53-2.15,1.8-3.97,2.54-6.46.53-13.8-11.15-27.68-22.2-41.51-33.32-.39-.31-.55-.91-.96-1.62Z"/>
  <path class="cls-1" d="m920.55,57.76c14.63-11.67,28.34-22.58,42.03-33.52,1.87-1.5,3.88-2.75,6.09-1,14.12,11.19,28.18,22.45,42.85,34.16-7.55,2.54-13.74,1.6-19.31-2.79-6.79-5.36-13.57-10.75-20.13-16.4-4.14-3.57-7.49-3.89-11.71.08-5.34,5.03-11.16,9.59-16.97,14.1-6.41,4.98-13.4,8.2-22.86,5.38Z"/>
  <path class="cls-3" d="m494.78,57.82c14.76-11.92,28.67-23.16,42.6-34.38,1.65-1.33,3.42-1.53,5.18-.15,14.25,11.24,28.5,22.49,43.52,34.34-8.77,2.15-15.46.85-21.57-4.36-6.44-5.49-13.28-10.52-19.78-15.95-3.38-2.82-6.14-2.68-9.44.19-6.11,5.33-12.43,10.42-18.75,15.5-6.11,4.91-12.88,7.17-21.75,4.8Z"/>
  <path class="cls-5" d="m532.99,12.94c-14.66,11.86-28.61,23.09-42.46,34.42-2.19,1.79-4.13,1.69-6.1.12-14.29-11.33-28.54-22.7-43.88-34.91,8.23-1.34,15.04-1.62,20.55,3.69,6.26,6.04,13.93,10.35,19.82,16.84,3.42,3.77,7.73,3.71,11.66.49,5.69-4.66,11.41-9.31,16.79-14.31,6.56-6.1,13.9-8.69,23.63-6.35Z"/>
  <path class="cls-6" d="m479.29,57.55c-7.35,2.16-13.33,1.47-18.64-2.5-6.49-4.85-12.87-9.87-19.03-15.12-6.98-5.96-8.37-6.06-15.28-.26-6.06,5.1-12.11,10.24-18.49,14.94-5.54,4.07-11.89,4.99-19.5,2.97,14.73-11.71,28.76-22.85,42.79-33.99,1.88-1.49,3.74-1.45,5.64.07,13.93,11.12,27.87,22.23,42.5,33.89Z"/>
  <path class="cls-5" d="m760.68,13c8.72-2.1,15.43-.55,21.21,4.45,4.56,3.95,8.84,8.22,13.37,12.21,8.32,7.35,13.98,7.37,22.33.08,4.97-4.34,9.63-9.06,14.75-13.21,5.53-4.49,11.93-5.77,19.85-3.48-10.32,8.42-20.07,16.35-29.77,24.33-3.35,2.75-6.54,5.69-9.88,8.46-3.88,3.22-8.17,3.42-11.84.13-12.62-11.32-26.13-21.56-40.02-32.98Z"/>
  <path class="cls-3" d="m176.38,57.01c13.74-11.09,27.34-22.09,40.96-33.04,2.33-1.87,4.91-2.02,7.28-.11,13.73,11.09,27.42,22.22,41.9,33.97-7.9,1.77-14.37,1.55-20.03-3.37-5.68-4.94-11.65-9.51-17.03-14.83-5.5-5.44-9.93-5.59-15.99-.77-5.59,4.46-10.66,9.57-16.22,14.06-7.86,6.34-13.61,7.36-20.88,4.09Z"/>
  <path class="cls-2" d="m973.87,13.34c7.83-3.35,13.76-1.11,19.32,2.91,5.51,3.99,10.6,8.46,15.43,13.27,8.16,8.13,13.37,8.12,21.73.07,4.77-4.59,9.5-9.19,14.89-13.07,5.62-4.05,11.65-6.06,18.85-3.72-.65,2.65-3.1,3.56-4.86,4.99-10.4,8.47-20.8,16.94-31.33,25.24-6.77,5.33-9.76,5.43-16.58.12-12.43-9.67-24.66-19.6-37.45-29.81Z"/>
  <path class="cls-6" d="m159.78,57.54c-8.74,2.09-15.36.54-21.28-4.42-6.07-5.08-12.28-10-18.35-15.08-3.98-3.32-7.57-3.25-11.59.17-6.18,5.26-12.77,10-18.87,15.4-5.52,4.89-12.17,6.34-20.36,3.97,14.41-11.7,28.15-22.89,41.95-34,1.88-1.52,4.04-1.84,6.21-.08,13.76,11.12,27.56,22.2,42.29,34.05Z"/>
  <path class="cls-2" d="m335.04,13.07c7.12-2.35,12.57-1.33,17.76,2.15,5.99,4.01,11.45,8.61,16.53,13.71,8.6,8.62,13.21,8.66,22.08.53,4.31-3.95,8.82-7.69,13.15-11.63,6.09-5.54,13.24-6.5,22.19-5.07-10.15,8.23-19.56,15.93-29.06,23.51-3.83,3.06-7.81,5.93-11.82,8.76-3.37,2.38-6.96,2.78-10.5.31-2.78-1.94-5.54-3.91-8.17-6.03-10.49-8.5-20.93-17.06-32.15-26.23Z"/>
  <path class="cls-1" d="m372.76,57.41c-8.17,2.76-14.5.94-20.17-3.45-6.26-4.83-12.81-9.27-18.38-15.01-4.48-4.62-8.16-4.5-13.39-.29-6.32,5.1-12.57,10.28-18.81,15.47-5.52,4.58-11.75,5.44-19.89,3.69,5.43-4.51,10.01-8.44,14.73-12.19,7.68-6.11,15.5-12.05,23.16-18.19,4.89-3.92,9.77-3.75,14.49-.09,12.62,9.79,25.13,19.72,38.25,30.05Z"/>
  <path class="cls-3" d="m815.24,56.71c12.88-10.16,25.72-20.36,38.66-30.44,4.07-3.17,8.39-3.09,12.47.19,12.63,10.13,25.24,20.29,38.49,30.95-8.12,2.8-14.58.81-20.43-3.81-6.66-5.26-13.23-10.64-19.65-16.19-3.32-2.86-6.06-2.92-9.45-.1-6.68,5.55-14.01,10.3-20.32,16.32-5.62,5.36-12.26,5.74-19.24,4.61-.18-.51-.36-1.02-.53-1.53Z"/>
  <path class="cls-6" d="m708.2,57.28c13.53-10.77,26.37-20.96,39.18-31.2,3.95-3.15,7.88-3.32,11.82-.16,12.49,10.03,24.95,20.09,37.4,30.17.4.32.57.93,1.08,1.81-7.17,1.96-13.59,1.35-19.17-3.53-4.83-4.22-9.5-8.63-14.18-13.02-7.43-6.99-13.06-7.47-20.99-1.14-4.12,3.29-7.77,7.16-11.62,10.79-7.33,6.91-14.65,9.06-23.52,6.28Z"/>
  <path class="cls-1" d="m8.13,22.24c15.93,10.98,30.01,23.3,45.49,35.55-7.9,1.59-14.19,1.05-19.79-3.31-8.03-6.25-16.04-12.52-24.02-18.83-2.83-2.23-3.05-4.2-1.69-13.42Z"/>
  <path class="cls-6" d="m1026.49,57.9c15.95-12.49,30.47-23.86,45.5-35.62,1.42,7.16,1.13,12.41-5.37,16.62-6.77,4.39-12.56,10.25-19.01,15.17-5.86,4.46-12.58,5.33-21.11,3.84Z"/>
</svg>